<svg width="90" height="19" viewBox="0 0 90 19" fill="none" xmlns="http://www.w3.org/2000/svg">
<g clip-path="url(#clip0_81_1724)">
<mask id="mask0_81_1724" style="mask-type:luminance" maskUnits="userSpaceOnUse" x="0" y="0" width="90" height="19">
<path d="M89.9595 0L0 0L0 18.904L89.9595 18.904V0Z" fill="white"/>
</mask>
<g mask="url(#mask0_81_1724)">
<mask id="mask1_81_1724" style="mask-type:luminance" maskUnits="userSpaceOnUse" x="0" y="0" width="90" height="19">
<path d="M89.9595 0L0 0L0 18.904L89.9595 18.904V0Z" fill="white"/>
</mask>
<g mask="url(#mask1_81_1724)">
<path d="M10.449 8.41123C9.87451 7.78836 9.03412 7.39155 7.92745 7.22183C8.86796 7.03795 9.59793 6.64476 10.1166 6.04296C10.6357 5.44117 10.8949 4.69402 10.8949 3.80188C10.8949 2.64118 10.4937 1.71705 9.6913 1.03024C8.88891 0.343413 7.69205 0 6.10109 0L0 0L0 14.8681L6.16358 14.8681C7.79572 14.8681 9.06182 14.5145 9.96114 13.8063C10.8605 13.0984 11.31 12.0932 11.31 10.7901C11.31 9.82741 11.0227 9.03447 10.449 8.41123ZM1.26929 6.16725C1.65202 6.10402 2.17429 5.97573 2.76012 5.69556L2.76012 1.8904L5.54083 1.8904C7.22872 1.8904 8.07266 2.62664 8.07266 4.09951C8.07266 5.57237 7.22872 6.32969 5.54083 6.32969C4.11709 6.33587 2.69302 6.34205 1.26929 6.34821L1.26929 6.16725ZM5.62392 12.9781L2.76012 12.9781L2.76012 8.19865L5.62392 8.19865C7.5053 8.19865 8.44616 8.99886 8.44616 10.5989C8.44616 12.1989 7.5053 12.9781 5.62392 12.9781Z" fill="white"/>
<path d="M12.3065 4.26929H14.8589L14.8589 14.8682H12.3065L12.3065 4.26929Z" fill="white"/>
<path d="M15.7931 9.64346V9.49483C15.7931 7.86681 16.2631 6.5353 17.2041 5.5018C18.1308 4.4683 19.4039 3.95117 21.0226 3.95117C22.6413 3.95117 23.893 4.4683 24.8201 5.5018C25.7607 6.53567 26.2311 7.86681 26.2311 9.49483V9.64346C26.2311 11.2719 25.7607 12.6102 24.8201 13.6579C23.893 14.6776 22.627 15.1871 21.0226 15.1871C19.4181 15.1871 18.1448 14.6773 17.2041 13.6579C16.2631 12.6102 15.7931 11.2722 15.7931 9.64346ZM23.596 9.68598V9.45232C23.596 8.22039 23.364 7.27883 22.9008 6.62725C22.437 5.97604 21.811 5.65007 21.0226 5.65007C20.2339 5.65007 19.5871 5.97241 19.1238 6.61634C18.6601 7.26102 18.4286 8.20621 18.4286 9.45195V9.68562C18.4286 10.9317 18.6601 11.8769 19.1238 12.5212C19.5871 13.1659 20.2202 13.4875 21.0226 13.4875C21.825 13.4875 22.437 13.1619 22.9008 12.5103C23.364 11.8591 23.596 10.9172 23.596 9.68526V9.68598Z" fill="white"/>
<path d="M27.0618 4.26951H29.6142V6.15991C29.9185 5.48036 30.3716 4.94216 30.9733 4.54571C31.5751 4.1496 32.2498 3.95117 32.9968 3.95117C34.297 3.95117 35.3418 4.4821 36.1303 5.54431C36.9324 6.59237 37.334 7.89514 37.334 9.45268V9.68635C37.334 11.2155 36.9324 12.5187 36.1303 13.5947C35.3418 14.6566 34.297 15.1879 32.9968 15.1879C32.2632 15.1879 31.5926 14.9862 30.9836 14.5824C30.3747 14.1787 29.9182 13.6372 29.6139 12.9573L29.6139 18.9047H27.0615L27.0615 4.26951H27.0618ZM34.6984 9.68598V9.45232C34.6984 8.20658 34.4666 7.26138 34.0033 6.61671C33.5396 5.97241 32.9065 5.65043 32.1046 5.65043C31.3852 5.65043 30.7795 5.99747 30.2889 6.6912C29.7975 7.3853 29.5521 8.30543 29.5521 9.45232V9.68598C29.5521 10.8191 29.7975 11.7356 30.2889 12.4366C30.7799 13.1376 31.3852 13.4879 32.1046 13.4879C32.907 13.4879 33.5396 13.1659 34.0033 12.5216C34.4666 11.8773 34.6984 10.9321 34.6984 9.68598Z" fill="white"/>
<path d="M38.2654 0L40.8178 0V14.8681H38.2654V0Z" fill="white"/>
<path d="M42.5619 14.2947C41.8838 13.7285 41.545 12.9567 41.545 11.9795C41.545 11.0023 41.9463 10.1741 42.7487 9.49421C43.5511 8.82883 45.142 8.43963 47.5216 8.32588L48.3723 8.28337V7.90107C48.3723 6.48526 47.7499 5.777 46.5048 5.777C45.5915 5.777 44.9134 6.32936 44.471 7.43374L42.1885 7.00893C42.465 6.08844 42.9734 5.34891 43.7136 4.78928C44.4535 4.23001 45.3841 3.9502 46.5051 3.9502C49.4519 3.9502 50.9254 5.47938 50.9254 8.5381V14.8678H48.4351V13.1475C47.757 14.4786 46.6297 15.144 45.0526 15.144C44.0702 15.144 43.24 14.8609 42.5622 14.2944L42.5619 14.2947ZM48.3726 10.8326V9.7068L47.6877 9.74931C46.2764 9.80601 45.3221 10.0466 44.8239 10.4714C44.3535 10.8679 44.1185 11.3352 44.1185 11.8734C44.1185 12.3549 44.2811 12.7372 44.6063 13.0203C44.9312 13.3037 45.3498 13.4451 45.8616 13.4451C46.6087 13.4451 47.2137 13.2009 47.6773 12.7125C48.1408 12.2241 48.3726 11.5972 48.3726 10.8326Z" fill="white"/>
<path d="M52.0675 4.26939H54.6198V6.30842C55.2976 4.73672 56.432 3.95068 58.0233 3.95068C59.2131 3.95068 60.0847 4.31917 60.6379 5.05506C61.2049 5.79167 61.4885 6.68381 61.4885 7.73148V14.8683H58.9152V8.22026C58.9152 7.4415 58.7699 6.86806 58.4791 6.49994C58.1888 6.13182 57.7321 5.94757 57.1094 5.94757C56.3486 5.94757 55.7432 6.23429 55.2937 6.80774C54.8439 7.38117 54.6192 8.1425 54.6192 9.09098V14.8683H52.0667V4.26939H52.0675Z" fill="white"/>
<path d="M62.6301 4.26939H65.1825V6.30842C65.8602 4.73672 66.9946 3.95068 68.5859 3.95068C69.7757 3.95068 70.6472 4.31917 71.2005 5.05506C71.7675 5.79167 72.0511 6.68381 72.0511 7.73148V14.8683H69.4777V8.22026C69.4777 7.4415 69.3325 6.86806 69.0418 6.49994C68.7514 6.13182 68.2947 5.94757 67.672 5.94757C66.9111 5.94757 66.3058 6.23429 65.8563 6.80774C65.4065 7.38117 65.1816 8.1425 65.1816 9.09098V14.8683H62.6293V4.26939H62.6301Z" fill="white"/>
<path d="M72.7757 9.64346V9.49483C72.7757 7.88062 73.239 6.55675 74.166 5.52289C75.1067 4.47519 76.3378 3.95117 77.8599 3.95117C79.382 3.95117 80.6303 4.43959 81.4811 5.41677C82.3317 6.39394 82.7575 7.76032 82.7575 9.51627V9.98361L75.3697 9.98361C75.4113 11.1305 75.674 12.0016 76.1582 12.5961C76.6425 13.1906 77.2997 13.4882 78.1297 13.4882C79.0981 13.4882 79.9835 12.8014 80.7859 11.4278L82.6744 12.2774C82.2312 13.1982 81.5986 13.913 80.7757 14.4225C79.9522 14.9324 79.0497 15.1871 78.0673 15.1871C76.4761 15.1871 75.1897 14.6845 74.2073 13.679C73.2526 12.688 72.7754 11.3427 72.7754 9.64346H72.7757ZM75.4322 8.49658H80.1635C80.0942 7.49142 79.8731 6.76207 79.4995 6.30891C79.1261 5.85575 78.5864 5.62935 77.881 5.62935C77.217 5.62935 76.6702 5.87719 76.2414 6.37286C75.8124 6.86855 75.5426 7.57645 75.4322 8.49695V8.49658Z" fill="white"/>
<path d="M83.6105 4.26923H86.163V6.79668C86.4534 5.91872 86.8893 5.25332 87.4703 4.80016C88.0511 4.347 88.7288 4.12061 89.5039 4.12061C89.6701 4.12061 89.8221 4.13478 89.9605 4.16313V6.62697C89.5039 6.58446 89.2203 6.56338 89.1099 6.56338C87.1451 6.56338 86.163 7.66776 86.163 9.87685V14.8685H83.6105V4.26923Z" fill="white"/>
<path d="M14.8281 0.158203L12.2756 0.158203V2.66456L14.8281 2.66456V0.158203Z" fill="#FF1935"/>
</g>
</g>
</g>
<defs>
<clipPath id="clip0_81_1724">
<rect width="90" height="19" fill="white"/>
</clipPath>
</defs>
</svg>
