<svg width="389" height="71" viewBox="0 0 389 71" fill="none" xmlns="http://www.w3.org/2000/svg">
<rect x="-3" width="392" height="71" fill="#0F2167"/>
<path d="M292.905 24.55V24.45C292.905 23.4367 293.252 22.5833 293.945 21.89C294.638 21.1967 295.492 20.85 296.505 20.85H296.605C297.618 20.85 298.472 21.1967 299.165 21.89C299.858 22.5833 300.205 23.4367 300.205 24.45V24.55C300.205 25.5633 299.858 26.4167 299.165 27.11C298.472 27.8033 297.618 28.15 296.605 28.15H296.505C295.492 28.15 294.638 27.8033 293.945 27.11C293.252 26.4167 292.905 25.5633 292.905 24.55ZM296.515 27.54H296.595C297.435 27.54 298.138 27.25 298.705 26.67C299.272 26.0967 299.555 25.3867 299.555 24.54V24.46C299.555 23.6133 299.272 22.9033 298.705 22.33C298.138 21.75 297.435 21.46 296.595 21.46H296.515C295.675 21.46 294.972 21.75 294.405 22.33C293.838 22.9033 293.555 23.6133 293.555 24.46V24.54C293.555 25.3867 293.838 26.0967 294.405 26.67C294.972 27.25 295.675 27.54 296.515 27.54ZM294.565 24.53V24.47C294.565 23.81 294.752 23.29 295.125 22.91C295.498 22.5233 295.995 22.33 296.615 22.33C297.075 22.33 297.458 22.47 297.765 22.75C298.078 23.0233 298.268 23.39 298.335 23.85L297.135 24C297.048 23.52 296.858 23.28 296.565 23.28C296.105 23.28 295.875 23.6767 295.875 24.47V24.53C295.875 25.3233 296.105 25.72 296.565 25.72C296.725 25.72 296.862 25.6567 296.975 25.53C297.088 25.3967 297.168 25.21 297.215 24.97L298.415 25.12C298.348 25.58 298.148 25.9533 297.815 26.24C297.482 26.5267 297.082 26.67 296.615 26.67C295.995 26.67 295.498 26.48 295.125 26.1C294.752 25.7133 294.565 25.19 294.565 24.53ZM303.203 26.63L304.943 25.17C305.563 24.65 305.959 24.2533 306.133 23.98C306.313 23.7133 306.403 23.4267 306.403 23.12C306.403 22.8867 306.343 22.7033 306.223 22.57C306.103 22.43 305.939 22.36 305.733 22.36C305.486 22.36 305.283 22.4633 305.123 22.67C304.969 22.8767 304.863 23.23 304.803 23.73L303.053 23.53C303.159 22.79 303.439 22.2167 303.893 21.81C304.346 21.3967 304.969 21.19 305.763 21.19C306.609 21.19 307.246 21.3867 307.673 21.78C308.093 22.1667 308.303 22.6433 308.303 23.21C308.303 23.7567 308.139 24.2367 307.813 24.65C307.493 25.0767 306.899 25.5667 306.033 26.12L305.263 26.62H308.283V28H303.203V26.63ZM308.807 24.72V24.62C308.807 23.5533 309.077 22.7167 309.617 22.11C310.157 21.4967 310.887 21.19 311.807 21.19C312.734 21.19 313.467 21.4967 314.007 22.11C314.547 22.7167 314.817 23.5533 314.817 24.62V24.72C314.817 25.7867 314.547 26.6233 314.007 27.23C313.467 27.8433 312.734 28.15 311.807 28.15C310.887 28.15 310.157 27.8433 309.617 27.23C309.077 26.6233 308.807 25.7867 308.807 24.72ZM312.907 24.72V24.62C312.907 23.78 312.807 23.1933 312.607 22.86C312.407 22.5267 312.141 22.36 311.807 22.36C311.487 22.36 311.221 22.5267 311.007 22.86C310.807 23.1933 310.707 23.78 310.707 24.62V24.72C310.707 25.5733 310.807 26.1633 311.007 26.49C311.214 26.8167 311.481 26.98 311.807 26.98C312.141 26.98 312.407 26.8167 312.607 26.49C312.807 26.1633 312.907 25.5733 312.907 24.72ZM315.221 25.9L316.961 25.69C317.041 26.55 317.375 26.98 317.961 26.98C318.215 26.98 318.418 26.9 318.571 26.74C318.725 26.5733 318.801 26.3467 318.801 26.06C318.801 25.7533 318.728 25.5333 318.581 25.4C318.435 25.26 318.178 25.19 317.811 25.19H317.131V24.02H317.761C318.375 24.02 318.681 23.7333 318.681 23.16C318.681 22.9133 318.618 22.72 318.491 22.58C318.365 22.4333 318.181 22.36 317.941 22.36C317.441 22.36 317.138 22.7333 317.031 23.48L315.341 23.28C315.421 22.6667 315.675 22.1667 316.101 21.78C316.535 21.3867 317.155 21.19 317.961 21.19C318.848 21.19 319.505 21.3733 319.931 21.74C320.371 22.1 320.591 22.5333 320.591 23.04C320.591 23.8 320.175 24.2967 319.341 24.53C320.275 24.7633 320.741 25.2933 320.741 26.12C320.741 26.7133 320.491 27.2 319.991 27.58C319.498 27.96 318.828 28.15 317.981 28.15C317.141 28.15 316.485 27.96 316.011 27.58C315.545 27.2 315.281 26.64 315.221 25.9ZM321.201 26.03L322.951 25.83C322.991 26.2167 323.091 26.5067 323.251 26.7C323.417 26.8867 323.617 26.98 323.851 26.98C324.117 26.98 324.324 26.8867 324.471 26.7C324.624 26.5067 324.701 26.23 324.701 25.87C324.701 25.0967 324.444 24.71 323.931 24.71C323.577 24.71 323.291 24.9067 323.071 25.3L321.351 25.07L321.531 21.34H326.191V22.65H322.981L322.921 24.2C323.314 23.72 323.831 23.48 324.471 23.48C325.144 23.48 325.667 23.6867 326.041 24.1C326.421 24.5133 326.611 25.05 326.611 25.71C326.611 26.47 326.354 27.0667 325.841 27.5C325.327 27.9333 324.667 28.15 323.861 28.15C323.067 28.15 322.447 27.97 322.001 27.61C321.554 27.2433 321.287 26.7167 321.201 26.03ZM332.885 25.55V25.36C332.885 24.3267 332.602 23.81 332.035 23.81C331.775 23.81 331.568 23.94 331.415 24.2C331.262 24.46 331.185 24.8467 331.185 25.36V25.55C331.185 26.07 331.262 26.46 331.415 26.72C331.568 26.9733 331.775 27.1 332.035 27.1C332.602 27.1 332.885 26.5833 332.885 25.55ZM331.225 27.23V28H329.465V21H331.225V23.69C331.352 23.4033 331.542 23.18 331.795 23.02C332.055 22.8533 332.352 22.77 332.685 22.77C333.292 22.77 333.782 23.02 334.155 23.52C334.528 24.0133 334.715 24.6267 334.715 25.36V25.55C334.715 26.2833 334.528 26.9033 334.155 27.41C333.782 27.9033 333.292 28.15 332.685 28.15C332.352 28.15 332.055 28.07 331.795 27.91C331.542 27.7433 331.352 27.5167 331.225 27.23ZM335.27 29.88V28.77C335.51 28.81 335.767 28.83 336.04 28.83C336.247 28.83 336.403 28.8 336.51 28.74C336.623 28.68 336.71 28.5767 336.77 28.43V28.42L334.8 22.92H336.67L337.66 26.52L338.5 22.92H340.08L338.46 28.34C338.287 28.9333 338.03 29.3533 337.69 29.6C337.357 29.8533 336.88 29.98 336.26 29.98C336.04 29.98 335.71 29.9467 335.27 29.88ZM342.876 21H344.796V24.02L346.976 21H349.036L346.946 23.87L349.246 28H347.026L345.586 25.24L344.796 26.26V28H342.876V21ZM349.876 22.92H351.636V28H349.876V22.92ZM349.876 21.05H351.636V22.4H349.876V21.05ZM352.551 22.92H354.311V23.8C354.618 23.1133 355.131 22.77 355.851 22.77C356.391 22.77 356.798 22.9333 357.071 23.26C357.344 23.5867 357.481 24.0233 357.481 24.57V28H355.721V24.85C355.721 24.3433 355.511 24.09 355.091 24.09C354.844 24.09 354.651 24.1733 354.511 24.34C354.378 24.5067 354.311 24.7367 354.311 25.03V28H352.551V22.92ZM358.644 26.37V24.02H357.904V22.92H358.644V21.52H360.404V22.92H361.674V24.02H360.404V26.34C360.404 26.52 360.444 26.6467 360.524 26.72C360.604 26.7933 360.744 26.83 360.944 26.83C361.004 26.83 361.121 26.8233 361.294 26.81C361.474 26.79 361.598 26.78 361.664 26.78V27.95C361.198 28.0433 360.778 28.09 360.404 28.09C359.751 28.09 359.294 27.96 359.034 27.7C358.774 27.4333 358.644 26.99 358.644 26.37ZM362.026 27.04L362.856 26.21C363.349 26.8033 363.886 27.1 364.466 27.1C364.719 27.1 364.916 27.06 365.056 26.98C365.196 26.8933 365.266 26.7833 365.266 26.65C365.266 26.5233 365.212 26.4267 365.106 26.36C365.006 26.2867 364.819 26.2233 364.546 26.17L363.816 26.03C363.322 25.9367 362.946 25.7533 362.686 25.48C362.432 25.2 362.306 24.86 362.306 24.46C362.306 23.96 362.509 23.5533 362.916 23.24C363.329 22.9267 363.909 22.77 364.656 22.77C365.102 22.77 365.522 22.8567 365.916 23.03C366.316 23.1967 366.629 23.4167 366.856 23.69L366.036 24.48C365.629 24.0333 365.172 23.81 364.666 23.81C364.439 23.81 364.266 23.8467 364.146 23.92C364.026 23.9933 363.966 24.09 363.966 24.21C363.966 24.3233 364.009 24.4167 364.096 24.49C364.182 24.5567 364.332 24.61 364.546 24.65L365.276 24.79C365.896 24.9033 366.339 25.1 366.606 25.38C366.879 25.66 367.016 26.0267 367.016 26.48C367.016 26.94 366.789 27.3367 366.336 27.67C365.882 27.99 365.299 28.15 364.586 28.15C364.039 28.15 363.539 28.0533 363.086 27.86C362.639 27.6667 362.286 27.3933 362.026 27.04ZM367.638 26.35V22.92H369.398V26.07C369.398 26.5767 369.608 26.83 370.028 26.83C370.274 26.83 370.464 26.7467 370.598 26.58C370.738 26.4133 370.808 26.1833 370.808 25.89V22.92H372.568V28H370.808V27.11C370.501 27.8033 369.988 28.15 369.268 28.15C368.728 28.15 368.321 27.9867 368.048 27.66C367.774 27.3333 367.638 26.8967 367.638 26.35ZM153.986 35.48H152.086V34H157.826V35.48H155.916V41H153.986V35.48ZM158.55 34H163.62V35.36H160.47V36.74H163.17V38.09H160.47V39.64H163.62V41H158.55V34ZM166.544 37.15H167.464C167.817 37.15 168.074 37.0733 168.234 36.92C168.4 36.7667 168.484 36.53 168.484 36.21C168.484 35.59 168.144 35.28 167.464 35.28H166.544V37.15ZM164.624 34H167.764C168.67 34 169.35 34.2 169.804 34.6C170.264 35 170.494 35.5433 170.494 36.23C170.494 37.09 170.047 37.6967 169.154 38.05L170.784 41H168.714L167.404 38.43H166.544V41H164.624V34ZM171.479 34H174.199L175.489 38.68L176.769 34H179.429V41H177.589V35.85L176.129 41H174.539L173.079 35.88V41H171.479V34ZM180.283 37.51V37.49C180.283 36.3633 180.583 35.4767 181.183 34.83C181.783 34.1767 182.58 33.85 183.573 33.85C184.566 33.85 185.36 34.1767 185.953 34.83C186.553 35.4833 186.853 36.37 186.853 37.49V37.51C186.853 38.6367 186.553 39.5267 185.953 40.18C185.366 40.8267 184.573 41.15 183.573 41.15C182.58 41.15 181.783 40.8267 181.183 40.18C180.583 39.5267 180.283 38.6367 180.283 37.51ZM184.853 37.51V37.49C184.853 35.91 184.426 35.12 183.573 35.12C182.713 35.12 182.283 35.91 182.283 37.49V37.51C182.283 39.09 182.713 39.88 183.573 39.88C184.426 39.88 184.853 39.09 184.853 37.51ZM187.093 39.49L188.393 38.54C188.92 39.36 189.54 39.77 190.253 39.77C190.546 39.77 190.78 39.71 190.953 39.59C191.126 39.4633 191.213 39.3 191.213 39.1C191.213 38.9133 191.14 38.7633 190.993 38.65C190.853 38.53 190.613 38.43 190.273 38.35L189.473 38.17C188.153 37.8833 187.493 37.18 187.493 36.06C187.493 35.46 187.733 34.9433 188.213 34.51C188.693 34.07 189.406 33.85 190.353 33.85C190.966 33.85 191.526 33.97 192.033 34.21C192.546 34.45 192.946 34.78 193.233 35.2L191.953 36.14C191.446 35.5067 190.913 35.19 190.353 35.19C190.086 35.19 189.873 35.2433 189.713 35.35C189.553 35.4567 189.473 35.6033 189.473 35.79C189.473 36.1033 189.726 36.3167 190.233 36.43L191.033 36.6C192.533 36.92 193.283 37.67 193.283 38.85C193.283 39.4967 193.013 40.0433 192.473 40.49C191.933 40.93 191.193 41.15 190.253 41.15C189.52 41.15 188.876 41.0033 188.323 40.71C187.77 40.4167 187.36 40.01 187.093 39.49ZM196.216 34H199.066C200.192 34 201.046 34.3 201.626 34.9C202.206 35.5 202.496 36.3633 202.496 37.49V37.51C202.496 38.6367 202.206 39.5 201.626 40.1C201.046 40.7 200.192 41 199.066 41H196.216V34ZM198.136 39.69H198.796C199.422 39.69 199.862 39.5233 200.116 39.19C200.369 38.8567 200.496 38.2967 200.496 37.51V37.49C200.496 36.7033 200.369 36.1433 200.116 35.81C199.862 35.4767 199.422 35.31 198.796 35.31H198.136V39.69ZM203.344 34H208.414V35.36H205.264V36.74H207.964V38.09H205.264V39.64H208.414V41H203.344V34ZM211.537 38.21V34H213.457V38.49C213.457 39.3233 213.81 39.74 214.517 39.74C215.224 39.74 215.577 39.3233 215.577 38.49V34H217.427V38.21C217.427 39.1367 217.177 39.86 216.677 40.38C216.177 40.8933 215.447 41.15 214.487 41.15C213.52 41.15 212.787 40.8933 212.287 40.38C211.787 39.86 211.537 39.1367 211.537 38.21ZM217.982 39.49L219.282 38.54C219.808 39.36 220.428 39.77 221.142 39.77C221.435 39.77 221.668 39.71 221.842 39.59C222.015 39.4633 222.102 39.3 222.102 39.1C222.102 38.9133 222.028 38.7633 221.882 38.65C221.742 38.53 221.502 38.43 221.162 38.35L220.362 38.17C219.042 37.8833 218.382 37.18 218.382 36.06C218.382 35.46 218.622 34.9433 219.102 34.51C219.582 34.07 220.295 33.85 221.242 33.85C221.855 33.85 222.415 33.97 222.922 34.21C223.435 34.45 223.835 34.78 224.122 35.2L222.842 36.14C222.335 35.5067 221.802 35.19 221.242 35.19C220.975 35.19 220.762 35.2433 220.602 35.35C220.442 35.4567 220.362 35.6033 220.362 35.79C220.362 36.1033 220.615 36.3167 221.122 36.43L221.922 36.6C223.422 36.92 224.172 37.67 224.172 38.85C224.172 39.4967 223.902 40.0433 223.362 40.49C222.822 40.93 222.082 41.15 221.142 41.15C220.408 41.15 219.765 41.0033 219.212 40.71C218.658 40.4167 218.248 40.01 217.982 39.49ZM224.648 37.51V37.49C224.648 36.3633 224.948 35.4767 225.548 34.83C226.148 34.1767 226.945 33.85 227.938 33.85C228.931 33.85 229.725 34.1767 230.318 34.83C230.918 35.4833 231.218 36.37 231.218 37.49V37.51C231.218 38.6367 230.918 39.5267 230.318 40.18C229.731 40.8267 228.938 41.15 227.938 41.15C226.945 41.15 226.148 40.8267 225.548 40.18C224.948 39.5267 224.648 38.6367 224.648 37.51ZM229.218 37.51V37.49C229.218 35.91 228.791 35.12 227.938 35.12C227.078 35.12 226.648 35.91 226.648 37.49V37.51C226.648 39.09 227.078 39.88 227.938 39.88C228.791 39.88 229.218 39.09 229.218 37.51ZM237.674 35.56C237.674 35.38 237.624 35.2367 237.524 35.13C237.43 35.0233 237.3 34.97 237.134 34.97C236.96 34.97 236.82 35.03 236.714 35.15C236.607 35.27 236.554 35.4367 236.554 35.65C236.554 35.9033 236.657 36.1967 236.864 36.53C237.157 36.41 237.364 36.2733 237.484 36.12C237.61 35.9667 237.674 35.78 237.674 35.56ZM237.694 39.71C236.987 39.1833 236.41 38.64 235.964 38.08C235.757 38.2867 235.654 38.5667 235.654 38.92V38.95C235.654 39.27 235.754 39.5233 235.954 39.71C236.16 39.89 236.437 39.98 236.784 39.98C237.084 39.98 237.387 39.89 237.694 39.71ZM233.844 39.05V38.98C233.844 38.0267 234.307 37.3767 235.234 37.03C234.967 36.53 234.834 36.0967 234.834 35.73C234.834 35.1567 235.034 34.7 235.434 34.36C235.834 34.02 236.4 33.85 237.134 33.85C237.827 33.85 238.347 34.0133 238.694 34.34C239.047 34.66 239.224 35.0533 239.224 35.52C239.224 36.3 238.684 36.92 237.604 37.38C238.044 37.8 238.474 38.16 238.894 38.46C239.194 37.9733 239.434 37.4867 239.614 37L240.944 37.52C240.684 38.2333 240.384 38.8267 240.044 39.3L240.104 39.34C240.317 39.4867 240.564 39.56 240.844 39.56H240.914V41H240.634C239.98 41 239.394 40.84 238.874 40.52L238.844 40.5C238.197 40.9333 237.447 41.15 236.594 41.15C235.78 41.15 235.117 40.9633 234.604 40.59C234.097 40.2233 233.844 39.71 233.844 39.05ZM245.782 37.39H246.722C247.469 37.39 247.842 37.0367 247.842 36.33C247.842 35.63 247.469 35.28 246.722 35.28H245.782V37.39ZM243.862 34H247.062C247.942 34 248.625 34.2067 249.112 34.62C249.599 35.0333 249.842 35.6033 249.842 36.33C249.842 37.07 249.599 37.6467 249.112 38.06C248.625 38.4667 247.942 38.67 247.062 38.67H245.782V41H243.862V34ZM250.341 37.51V37.49C250.341 36.3633 250.641 35.4767 251.241 34.83C251.841 34.1767 252.638 33.85 253.631 33.85C254.625 33.85 255.418 34.1767 256.011 34.83C256.611 35.4833 256.911 36.37 256.911 37.49V37.51C256.911 38.6367 256.611 39.5267 256.011 40.18C255.425 40.8267 254.631 41.15 253.631 41.15C252.638 41.15 251.841 40.8267 251.241 40.18C250.641 39.5267 250.341 38.6367 250.341 37.51ZM254.911 37.51V37.49C254.911 35.91 254.485 35.12 253.631 35.12C252.771 35.12 252.341 35.91 252.341 37.49V37.51C252.341 39.09 252.771 39.88 253.631 39.88C254.485 39.88 254.911 39.09 254.911 37.51ZM257.759 34H259.679V39.52H262.719V41H257.759V34ZM263.678 34H265.598V41H263.678V34ZM268.264 35.48H266.364V34H272.104V35.48H270.194V41H268.264V35.48ZM272.877 34H274.797V41H272.877V34ZM275.693 37.51V37.49C275.693 36.39 275.983 35.51 276.563 34.85C277.15 34.1833 277.953 33.85 278.973 33.85C279.833 33.85 280.51 34.07 281.003 34.51C281.496 34.9433 281.803 35.5567 281.923 36.35L280.173 36.56C280.106 36.0667 279.98 35.7067 279.793 35.48C279.606 35.2467 279.343 35.13 279.003 35.13C278.13 35.13 277.693 35.9167 277.693 37.49V37.51C277.693 38.3767 277.81 38.9867 278.043 39.34C278.283 39.6933 278.603 39.87 279.003 39.87C279.336 39.87 279.603 39.7567 279.803 39.53C280.003 39.3033 280.143 38.92 280.223 38.38L281.983 38.58C281.87 39.4267 281.55 40.0667 281.023 40.5C280.503 40.9333 279.82 41.15 278.973 41.15C277.966 41.15 277.17 40.8267 276.583 40.18C275.99 39.5267 275.693 38.6367 275.693 37.51ZM286.223 38.22L285.443 35.56L284.673 38.22H286.223ZM284.393 34H286.763L289.023 41H287.023L286.603 39.54H284.283L283.863 41H282.133L284.393 34ZM291.782 34H294.632C295.759 34 296.612 34.3 297.192 34.9C297.772 35.5 298.062 36.3633 298.062 37.49V37.51C298.062 38.6367 297.772 39.5 297.192 40.1C296.612 40.7 295.759 41 294.632 41H291.782V34ZM293.702 39.69H294.362C294.989 39.69 295.429 39.5233 295.682 39.19C295.935 38.8567 296.062 38.2967 296.062 37.51V37.49C296.062 36.7033 295.935 36.1433 295.682 35.81C295.429 35.4767 294.989 35.31 294.362 35.31H293.702V39.69ZM298.911 34H303.981V35.36H300.831V36.74H303.531V38.09H300.831V39.64H303.981V41H298.911V34ZM309.054 37.39H309.994C310.74 37.39 311.114 37.0367 311.114 36.33C311.114 35.63 310.74 35.28 309.994 35.28H309.054V37.39ZM307.134 34H310.334C311.214 34 311.897 34.2067 312.384 34.62C312.87 35.0333 313.114 35.6033 313.114 36.33C313.114 37.07 312.87 37.6467 312.384 38.06C311.897 38.4667 311.214 38.67 310.334 38.67H309.054V41H307.134V34ZM315.772 37.15H316.692C317.046 37.15 317.302 37.0733 317.462 36.92C317.629 36.7667 317.712 36.53 317.712 36.21C317.712 35.59 317.372 35.28 316.692 35.28H315.772V37.15ZM313.852 34H316.992C317.899 34 318.579 34.2 319.032 34.6C319.492 35 319.722 35.5433 319.722 36.23C319.722 37.09 319.276 37.6967 318.382 38.05L320.012 41H317.942L316.632 38.43H315.772V41H313.852V34ZM320.758 34H322.678V41H320.758V34ZM323.334 34H325.334L326.724 39.31L328.104 34H329.834L327.774 41H325.384L323.334 34ZM333.547 38.22L332.767 35.56L331.997 38.22H333.547ZM331.717 34H334.087L336.347 41H334.347L333.927 39.54H331.607L331.187 41H329.457L331.717 34ZM336.357 37.51V37.49C336.357 36.39 336.647 35.51 337.227 34.85C337.814 34.1833 338.617 33.85 339.637 33.85C340.497 33.85 341.174 34.07 341.667 34.51C342.16 34.9433 342.467 35.5567 342.587 36.35L340.837 36.56C340.77 36.0667 340.644 35.7067 340.457 35.48C340.27 35.2467 340.007 35.13 339.667 35.13C338.794 35.13 338.357 35.9167 338.357 37.49V37.51C338.357 38.3767 338.474 38.9867 338.707 39.34C338.947 39.6933 339.267 39.87 339.667 39.87C340 39.87 340.267 39.7567 340.467 39.53C340.667 39.3033 340.807 38.92 340.887 38.38L342.647 38.58C342.534 39.4267 342.214 40.0667 341.687 40.5C341.167 40.9333 340.484 41.15 339.637 41.15C338.63 41.15 337.834 40.8267 337.247 40.18C336.654 39.5267 336.357 38.6367 336.357 37.51ZM343.512 34H345.432V41H343.512V34ZM346.538 34H349.388C350.514 34 351.368 34.3 351.948 34.9C352.528 35.5 352.818 36.3633 352.818 37.49V37.51C352.818 38.6367 352.528 39.5 351.948 40.1C351.368 40.7 350.514 41 349.388 41H346.538V34ZM348.458 39.69H349.118C349.744 39.69 350.184 39.5233 350.438 39.19C350.691 38.8567 350.818 38.2967 350.818 37.51V37.49C350.818 36.7033 350.691 36.1433 350.438 35.81C350.184 35.4767 349.744 35.31 349.118 35.31H348.458V39.69ZM356.916 38.22L356.136 35.56L355.366 38.22H356.916ZM355.086 34H357.456L359.716 41H357.716L357.296 39.54H354.976L354.556 41H352.826L355.086 34ZM360.327 34H363.177C364.304 34 365.157 34.3 365.737 34.9C366.317 35.5 366.607 36.3633 366.607 37.49V37.51C366.607 38.6367 366.317 39.5 365.737 40.1C365.157 40.7 364.304 41 363.177 41H360.327V34ZM362.247 39.69H362.907C363.534 39.69 363.974 39.5233 364.227 39.19C364.48 38.8567 364.607 38.2967 364.607 37.51V37.49C364.607 36.7033 364.48 36.1433 364.227 35.81C363.974 35.4767 363.534 35.31 362.907 35.31H362.247V39.69ZM367.456 34H372.526V35.36H369.376V36.74H372.076V38.09H369.376V39.64H372.526V41H367.456V34Z" fill="white"/>
<path d="M151.896 45.31H372.996V46.59H151.896V45.31Z" fill="white"/>
<a href="https://psoriase.bioplanner.com.br/blank">
<rect fill="black" fill-opacity="0" x="524.896" y="27.5" width="221.099" height="10"/>
</a>
<g clip-path="url(#clip0_366_211)">
<path d="M24 33.5C24 23.835 32.0589 16 42 16C51.9411 16 60 23.835 60 33.5C60 43.165 51.9411 51 42 51C32.0589 51 24 43.165 24 33.5Z" fill="#FF1935"/>
<path d="M46.5982 35.4135H43.8821V37.9959L41.9214 36.092L39.9955 37.9667V35.3H37.1606L39.1249 33.3924L37.2456 31.5633H40.0185V28.9808L41.979 30.8847L43.9804 28.9368V31.6343H46.6393L44.6751 33.5416L46.5982 35.4135ZM54.8677 28.8794H44.0392L49.6775 23.3916L47.6728 21.4446L40.0185 28.8949V20.9663H37.1849V31.5041L31.4264 25.8993L29.4216 27.8462L37.0798 35.3H29.1082V38.0548H39.9048L34.223 43.5851L36.2278 45.532L43.8821 38.0817V46.0103H46.7155V35.5278L52.3738 41.0349L54.3784 39.088L46.7203 31.6343H54.8677V28.8794Z" fill="white"/>
</g>
<defs>
<clipPath id="clip0_366_211">
<rect width="36" height="35" fill="white" transform="translate(24 16)"/>
</clipPath>
</defs>
</svg>
