<svg width="334" height="69" viewBox="0 0 334 69" fill="none" xmlns="http://www.w3.org/2000/svg">
<path d="M7.08639 17.6494H10.0604C11.1419 17.6494 11.933 17.4378 12.4336 17.0147C12.9543 16.5715 13.2147 15.8663 13.2147 14.8992C13.2147 13.9321 12.9543 13.237 12.4336 12.8139C11.933 12.3707 11.1419 12.149 10.0604 12.149H7.08639V17.6494ZM7.08639 8.64335H9.88017C11.7627 8.64335 12.704 7.79715 12.704 6.10474C12.704 4.41234 11.7627 3.56614 9.88017 3.56614H7.08639V8.64335ZM1.31857 0.0302211H11.5624C13.9257 0.0302211 15.688 0.523839 16.8496 1.51108C18.0112 2.49831 18.592 3.81798 18.592 5.47009C18.592 6.6588 18.1914 7.69641 17.3903 8.58291C16.5893 9.44926 15.4577 10.0335 13.9957 10.3358C15.7381 10.5574 17.0399 11.1316 17.901 12.0584C18.7622 12.965 19.1928 14.1134 19.1928 15.5036C19.1928 17.2968 18.5119 18.697 17.15 19.7044C15.7882 20.6917 13.9056 21.1853 11.5024 21.1853H1.31857V0.0302211Z" fill="#0F2167"/>
<path d="M21.0809 16.1987V5.83275H26.3681V15.3525C26.3681 16.8837 26.9989 17.6494 28.2606 17.6494C29.0016 17.6494 29.5724 17.3975 29.9729 16.8938C30.3935 16.3901 30.6038 15.695 30.6038 14.8085V5.83275H35.8909V21.1853H30.6038V18.4956C29.6825 20.5909 28.1405 21.6386 25.9775 21.6386C24.3553 21.6386 23.1337 21.145 22.3126 20.1577C21.4914 19.1705 21.0809 17.8508 21.0809 16.1987Z" fill="#0F2167"/>
<path d="M37.4596 18.284L39.953 15.7756C41.435 17.5688 43.0472 18.4653 44.7896 18.4653C45.5506 18.4653 46.1414 18.3445 46.562 18.1027C46.9825 17.8408 47.1928 17.5083 47.1928 17.1054C47.1928 16.7226 47.0326 16.4304 46.7122 16.2289C46.4118 16.0073 45.851 15.8159 45.0299 15.6547L42.8369 15.2316C41.3549 14.9496 40.2234 14.3955 39.4423 13.5695C38.6813 12.7233 38.3008 11.6957 38.3008 10.4869C38.3008 8.97579 38.9116 7.74678 40.1333 6.79984C41.3749 5.8529 43.1173 5.37943 45.3603 5.37943C46.7022 5.37943 47.9639 5.64135 49.1455 6.16519C50.3471 6.66888 51.2884 7.33375 51.9693 8.15981L49.506 10.5473C48.2843 9.19741 46.9124 8.52246 45.3904 8.52246C44.7095 8.52246 44.1888 8.63327 43.8283 8.8549C43.4678 9.07652 43.2875 9.36867 43.2875 9.73132C43.2875 10.0738 43.4177 10.3559 43.6781 10.5775C43.9384 10.779 44.389 10.9402 45.0299 11.0611L47.2229 11.4842C49.0854 11.8267 50.4172 12.421 51.2183 13.2672C52.0394 14.1134 52.4499 15.2216 52.4499 16.5916C52.4499 17.9818 51.769 19.1806 50.4072 20.188C49.0453 21.155 47.293 21.6386 45.1501 21.6386C43.5078 21.6386 42.0058 21.3465 40.644 20.7622C39.3021 20.1779 38.2407 19.3518 37.4596 18.284Z" fill="#0F2167"/>
<path d="M64.3263 13.781V13.2068C64.3263 11.6554 64.096 10.4869 63.6354 9.7011C63.1748 8.91534 62.5539 8.52246 61.7729 8.52246C60.0706 8.52246 59.2194 10.0839 59.2194 13.2068V13.781C59.2194 16.9039 60.0706 18.4653 61.7729 18.4653C62.5539 18.4653 63.1748 18.0825 63.6354 17.3169C64.096 16.5312 64.3263 15.3525 64.3263 13.781ZM64.2062 26.9274V18.8582C63.8257 19.7246 63.2449 20.4096 62.4638 20.9133C61.7028 21.3968 60.8216 21.6386 59.8202 21.6386C57.9978 21.6386 56.5258 20.8931 55.4043 19.4022C54.2827 17.871 53.722 15.9972 53.722 13.781V13.2068C53.722 10.9906 54.2827 9.13697 55.4043 7.64604C56.5058 6.13497 57.9777 5.37943 59.8202 5.37943C60.8216 5.37943 61.7028 5.63127 62.4638 6.13496C63.2449 6.61851 63.8257 7.29346 64.2062 8.15981V5.83275H69.4933V26.9274H64.2062Z" fill="#0F2167"/>
<path d="M71.9212 16.1987V5.83275H77.2084V15.3525C77.2084 16.8837 77.8393 17.6494 79.101 17.6494C79.842 17.6494 80.4127 17.3975 80.8133 16.8938C81.2339 16.3901 81.4441 15.695 81.4441 14.8085V5.83275H86.7313V21.1853H81.4441V18.4956C80.5229 20.5909 78.9808 21.6386 76.8179 21.6386C75.1957 21.6386 73.974 21.145 73.1529 20.1577C72.3318 19.1705 71.9212 17.8508 71.9212 16.1987Z" fill="#0F2167"/>
<path d="M94.0979 11.8468H98.8743C98.7942 10.5977 98.5739 9.72125 98.2134 9.21756C97.8529 8.71387 97.3022 8.46202 96.5612 8.46202C95.1393 8.46202 94.3181 9.59029 94.0979 11.8468ZM88.7206 13.6903V13.3277C88.7206 11.0107 89.4616 9.10675 90.9436 7.61582C92.4256 6.12489 94.2781 5.37943 96.5011 5.37943C98.9244 5.37943 100.807 6.10474 102.149 7.55538C103.491 8.98586 104.161 10.9704 104.161 13.509V14.4761H94.0678C94.208 17.1356 95.2194 18.4653 97.1019 18.4653C98.3036 18.4653 99.405 17.6494 100.406 16.0174L104.071 17.468C103.511 18.7373 102.589 19.7548 101.308 20.5204C100.046 21.2659 98.5839 21.6386 96.9217 21.6386C94.5184 21.6386 92.5457 20.9234 91.0037 19.4929C89.4816 18.0422 88.7206 16.1081 88.7206 13.6903Z" fill="#0F2167"/>
<path d="M111.564 18.284L114.057 15.7756C115.539 17.5688 117.152 18.4653 118.894 18.4653C119.655 18.4653 120.246 18.3445 120.666 18.1027C121.087 17.8408 121.297 17.5083 121.297 17.1054C121.297 16.7226 121.137 16.4304 120.816 16.2289C120.516 16.0073 119.955 15.8159 119.134 15.6547L116.941 15.2316C115.459 14.9496 114.328 14.3955 113.547 13.5695C112.786 12.7233 112.405 11.6957 112.405 10.4869C112.405 8.97579 113.016 7.74678 114.238 6.79984C115.479 5.8529 117.222 5.37943 119.465 5.37943C120.806 5.37943 122.068 5.64135 123.25 6.16519C124.451 6.66888 125.393 7.33375 126.074 8.15981L123.61 10.5473C122.389 9.19741 121.017 8.52246 119.495 8.52246C118.814 8.52246 118.293 8.63327 117.933 8.8549C117.572 9.07652 117.392 9.36867 117.392 9.73132C117.392 10.0738 117.522 10.3559 117.782 10.5775C118.043 10.779 118.493 10.9402 119.134 11.0611L121.327 11.4842C123.19 11.8267 124.521 12.421 125.323 13.2672C126.144 14.1134 126.554 15.2216 126.554 16.5916C126.554 17.9818 125.873 19.1806 124.511 20.188C123.15 21.155 121.397 21.6386 119.254 21.6386C117.612 21.6386 116.11 21.3465 114.748 20.7622C113.406 20.1779 112.345 19.3518 111.564 18.284Z" fill="#0F2167"/>
<path d="M128.424 16.1987V5.83275H133.711V15.3525C133.711 16.8837 134.342 17.6494 135.603 17.6494C136.344 17.6494 136.915 17.3975 137.316 16.8938C137.736 16.3901 137.946 15.695 137.946 14.8085V5.83275H143.234V21.1853H137.946V18.4956C137.025 20.5909 135.483 21.6386 133.32 21.6386C131.698 21.6386 130.476 21.145 129.655 20.1577C128.834 19.1705 128.424 17.8508 128.424 16.1987Z" fill="#0F2167"/>
<path d="M154.566 15.5339V14.1739H154.475C152.773 14.2948 151.662 14.5768 151.141 15.0201C150.62 15.4432 150.36 15.967 150.36 16.5916C150.36 17.1356 150.53 17.5688 150.871 17.8911C151.211 18.1933 151.642 18.3444 152.162 18.3444C152.903 18.3444 153.484 18.1027 153.905 17.6191C154.345 17.1154 154.566 16.4203 154.566 15.5339ZM145.043 16.924C145.043 15.413 145.623 14.194 146.785 13.2672C147.967 12.3203 150.39 11.7864 154.055 11.6655L154.566 11.6353V11.0611C154.566 9.63059 153.925 8.91534 152.643 8.91534C151.602 8.91534 150.901 9.52985 150.54 10.7589L145.854 10.1846C146.154 8.73401 146.875 7.57552 148.017 6.70917C149.178 5.82268 150.71 5.37943 152.613 5.37943C157.439 5.37943 159.853 7.61582 159.853 12.0886V21.1853H154.686V18.9187C153.825 20.6312 152.282 21.4875 150.059 21.4875C148.597 21.4875 147.396 21.0745 146.455 20.2484C145.513 19.4022 145.043 18.2941 145.043 16.924Z" fill="#0F2167"/>
<path d="M168.736 5.83275H174.023V8.49224C174.944 6.41703 176.486 5.37943 178.649 5.37943C180.271 5.37943 181.493 5.87305 182.314 6.86028C183.135 7.84752 183.546 9.16719 183.546 10.8193V21.1853H178.258V11.6655C178.258 10.1343 177.628 9.36866 176.366 9.36866C175.625 9.36866 175.044 9.62051 174.624 10.1242C174.223 10.6279 174.023 11.323 174.023 12.2095V21.1853H168.736V5.83275Z" fill="#0F2167"/>
<path d="M185.385 13.6903V13.3277C185.385 11.0308 186.116 9.13697 187.578 7.64604C189.06 6.13497 191.012 5.37943 193.436 5.37943C195.859 5.37943 197.812 6.13497 199.294 7.64604C200.756 9.13697 201.487 11.0308 201.487 13.3277V13.6903C201.487 15.9872 200.756 17.8811 199.294 19.372C197.812 20.8831 195.859 21.6386 193.436 21.6386C191.012 21.6386 189.06 20.8831 187.578 19.372C186.116 17.8811 185.385 15.9872 185.385 13.6903ZM195.989 13.781V13.2068C195.989 10.0839 195.138 8.52246 193.436 8.52246C191.733 8.52246 190.882 10.0839 190.882 13.2068V13.781C190.882 16.9039 191.733 18.4653 193.436 18.4653C195.138 18.4653 195.989 16.9039 195.989 13.781Z" fill="#0F2167"/>
<path d="M201.747 5.83275H207.365L210.129 17.196L212.863 5.83275H217.609L212.983 21.1853H206.344L201.747 5.83275Z" fill="#0F2167"/>
<path d="M227.32 15.5339V14.1739H227.23C225.528 14.2948 224.416 14.5768 223.896 15.0201C223.375 15.4432 223.115 15.967 223.115 16.5916C223.115 17.1356 223.285 17.5688 223.625 17.8911C223.966 18.1933 224.396 18.3444 224.917 18.3444C225.658 18.3444 226.239 18.1027 226.659 17.6191C227.1 17.1154 227.32 16.4203 227.32 15.5339ZM217.797 16.924C217.797 15.413 218.378 14.194 219.54 13.2672C220.721 12.3203 223.145 11.7864 226.81 11.6655L227.32 11.6353V11.0611C227.32 9.63059 226.679 8.91534 225.398 8.91534C224.356 8.91534 223.655 9.52985 223.295 10.7589L218.609 10.1846C218.909 8.73401 219.63 7.57552 220.771 6.70917C221.933 5.82268 223.465 5.37943 225.368 5.37943C230.194 5.37943 232.608 7.61582 232.608 12.0886V21.1853H227.441V18.9187C226.579 20.6312 225.037 21.4875 222.814 21.4875C221.352 21.4875 220.151 21.0745 219.209 20.2484C218.268 19.4022 217.797 18.2941 217.797 16.924Z" fill="#0F2167"/>
<path d="M240.589 5.83275H246.207L248.971 17.196L251.704 5.83275H256.451L251.824 21.1853H245.185L240.589 5.83275Z" fill="#0F2167"/>
<path d="M262.05 11.8468H266.826C266.746 10.5977 266.526 9.72125 266.166 9.21756C265.805 8.71387 265.254 8.46202 264.513 8.46202C263.091 8.46202 262.27 9.59029 262.05 11.8468ZM256.673 13.6903V13.3277C256.673 11.0107 257.414 9.10675 258.896 7.61582C260.378 6.12489 262.23 5.37943 264.453 5.37943C266.877 5.37943 268.759 6.10474 270.101 7.55538C271.443 8.98586 272.114 10.9704 272.114 13.509V14.4761H262.02C262.16 17.1356 263.171 18.4653 265.054 18.4653C266.256 18.4653 267.357 17.6494 268.359 16.0174L272.024 17.468C271.463 18.7373 270.541 19.7548 269.26 20.5204C267.998 21.2659 266.536 21.6386 264.874 21.6386C262.471 21.6386 260.498 20.9234 258.956 19.4929C257.434 18.0422 256.673 16.1081 256.673 13.6903Z" fill="#0F2167"/>
<path d="M274.083 5.83275H279.371V9.54999C280.172 6.91065 281.634 5.59098 283.756 5.59098C283.817 5.59098 284.087 5.6212 284.568 5.68164V10.7589C284.467 10.7589 284.197 10.7387 283.756 10.6984C283.316 10.638 283.026 10.6077 282.885 10.6077C281.684 10.6077 280.792 10.8898 280.212 11.4539C279.651 12.0181 279.371 12.9348 279.371 14.2041V21.1853H274.083V5.83275Z" fill="#0F2167"/>
<path d="M285.149 18.284L287.642 15.7756C289.124 17.5688 290.736 18.4653 292.479 18.4653C293.24 18.4653 293.83 18.3445 294.251 18.1027C294.672 17.8408 294.882 17.5083 294.882 17.1054C294.882 16.7226 294.722 16.4304 294.401 16.2289C294.101 16.0073 293.54 15.8159 292.719 15.6547L290.526 15.2316C289.044 14.9496 287.912 14.3955 287.131 13.5695C286.37 12.7233 285.99 11.6957 285.99 10.4869C285.99 8.97579 286.601 7.74678 287.822 6.79984C289.064 5.8529 290.806 5.37943 293.049 5.37943C294.391 5.37943 295.653 5.64135 296.835 6.16519C298.036 6.66888 298.977 7.33375 299.658 8.15981L297.195 10.5473C295.973 9.19741 294.602 8.52246 293.079 8.52246C292.399 8.52246 291.878 8.63327 291.517 8.8549C291.157 9.07652 290.977 9.36867 290.977 9.73132C290.977 10.0738 291.107 10.3559 291.367 10.5775C291.627 10.779 292.078 10.9402 292.719 11.0611L294.912 11.4842C296.774 11.8267 298.106 12.421 298.907 13.2672C299.728 14.1134 300.139 15.2216 300.139 16.5916C300.139 17.9818 299.458 19.1806 298.096 20.188C296.734 21.155 294.982 21.6386 292.839 21.6386C291.197 21.6386 289.695 21.3465 288.333 20.7622C286.991 20.1779 285.93 19.3518 285.149 18.284Z" fill="#0F2167"/>
<path d="M310.783 15.5339V14.1739H310.693C308.991 14.2948 307.879 14.5768 307.358 15.0201C306.838 15.4432 306.577 15.967 306.577 16.5916C306.577 17.1356 306.748 17.5688 307.088 17.8911C307.428 18.1933 307.859 18.3444 308.38 18.3444C309.121 18.3444 309.702 18.1027 310.122 17.6191C310.563 17.1154 310.783 16.4203 310.783 15.5339ZM301.26 16.924C301.26 15.413 301.841 14.194 303.002 13.2672C304.184 12.3203 306.607 11.7864 310.272 11.6655L310.783 11.6353V11.0611C310.783 9.63059 310.142 8.91534 308.86 8.91534C307.819 8.91534 307.118 9.52985 306.758 10.7589L302.071 10.1846C302.372 8.73401 303.093 7.57552 304.234 6.70917C305.396 5.82268 306.928 5.37943 308.83 5.37943C313.657 5.37943 316.07 7.61582 316.07 12.0886V21.1853H310.903V18.9187C310.042 20.6312 308.5 21.4875 306.277 21.4875C304.815 21.4875 303.613 21.0745 302.672 20.2484C301.731 19.4022 301.26 18.2941 301.26 16.924ZM308.8 3.80791L308.2 3.44525C307.699 3.18333 307.338 3.05237 307.118 3.05237C306.597 3.05237 306.107 3.49562 305.646 4.38212L303.573 3.05237C303.934 2.10543 304.424 1.35997 305.045 0.815981C305.686 0.271994 306.357 0 307.058 0C307.859 0 308.6 0.211551 309.281 0.634652L309.882 0.997309C310.402 1.27938 310.763 1.42041 310.963 1.42041C311.464 1.42041 311.955 0.977162 312.435 0.0906651L314.508 1.39019C314.148 2.33713 313.647 3.08259 313.006 3.62658C312.385 4.17057 311.724 4.44256 311.023 4.44256C310.282 4.44256 309.541 4.23101 308.8 3.80791Z" fill="#0F2167"/>
<path d="M317.898 13.6903V13.3277C317.898 11.0308 318.629 9.13697 320.091 7.64604C321.573 6.13497 323.526 5.37943 325.949 5.37943C328.372 5.37943 330.325 6.13497 331.807 7.64604C333.269 9.13697 334 11.0308 334 13.3277V13.6903C334 15.9872 333.269 17.8811 331.807 19.372C330.325 20.8831 328.372 21.6386 325.949 21.6386C323.526 21.6386 321.573 20.8831 320.091 19.372C318.629 17.8811 317.898 15.9872 317.898 13.6903ZM328.503 13.781V13.2068C328.503 10.0839 327.651 8.52246 325.949 8.52246C324.247 8.52246 323.396 10.0839 323.396 13.2068V13.781C323.396 16.9039 324.247 18.4653 325.949 18.4653C327.651 18.4653 328.503 16.9039 328.503 13.781Z" fill="#0F2167"/>
<path d="M0.418424 43.139V43.0743C0.418424 41.8114 0.761746 40.8023 1.44839 40.0467C2.14576 39.2696 3.06308 38.881 4.20033 38.881C5.05864 38.881 5.77747 39.1185 6.35683 39.5934C6.93618 40.0575 7.31169 40.6997 7.48335 41.52L6.32464 41.7791C5.99205 40.4947 5.28394 39.8524 4.20033 39.8524C3.43859 39.8524 2.83241 40.1493 2.3818 40.7429C1.94192 41.3365 1.72198 42.1137 1.72198 43.0743V43.139C1.72198 44.0996 1.94192 44.8768 2.3818 45.4704C2.83241 46.064 3.43859 46.3609 4.20033 46.3609C5.3054 46.3609 6.03496 45.6701 6.38901 44.2885L7.54772 44.5476C7.08639 46.404 5.97059 47.3323 4.20033 47.3323C3.09526 47.3323 2.18868 46.9599 1.48058 46.2151C0.772475 45.4596 0.418424 44.4342 0.418424 43.139Z" fill="#0F2167"/>
<path d="M8.70078 43.139V43.0743C8.70078 41.8007 9.0441 40.7861 9.73075 40.0305C10.4281 39.2642 11.3615 38.881 12.531 38.881C13.7004 38.881 14.6338 39.2642 15.3312 40.0305C16.0178 40.7861 16.3612 41.8007 16.3612 43.0743V43.139C16.3612 44.4127 16.0178 45.4272 15.3312 46.1828C14.6338 46.9491 13.7004 47.3323 12.531 47.3323C11.3615 47.3323 10.4281 46.9491 9.73075 46.1828C9.0441 45.4272 8.70078 44.4127 8.70078 43.139ZM15.0576 43.139V43.0743C15.0576 42.0705 14.8269 41.2826 14.3656 40.7105C13.9043 40.1385 13.2927 39.8524 12.531 39.8524C11.7692 39.8524 11.1577 40.1385 10.6963 40.7105C10.235 41.2826 10.0043 42.0705 10.0043 43.0743V43.139C10.0043 44.1428 10.235 44.9307 10.6963 45.5028C11.1577 46.0748 11.7692 46.3609 12.531 46.3609C13.2927 46.3609 13.9043 46.0748 14.3656 45.5028C14.8269 44.9307 15.0576 44.1428 15.0576 43.139Z" fill="#0F2167"/>
<path d="M18.0594 39.1239H19.3307V40.7591C19.6204 40.1439 19.9959 39.6797 20.4573 39.3667C20.9186 39.0429 21.4014 38.881 21.9056 38.881C22.5816 38.881 23.1395 39.0645 23.5793 39.4315C24.03 39.7985 24.325 40.2842 24.4645 40.8886C24.7434 40.2626 25.1243 39.7715 25.6071 39.4153C26.0899 39.0591 26.5995 38.881 27.1359 38.881C28.0586 38.881 28.7399 39.1671 29.1798 39.7391C29.6089 40.3004 29.8235 40.9696 29.8235 41.7467V47.0894H28.5522V42.0381C28.5522 41.3257 28.418 40.7915 28.1498 40.4353C27.8816 40.0791 27.4364 39.901 26.8141 39.901C26.1811 39.901 25.65 40.1978 25.2209 40.7915C24.7917 41.3635 24.5771 42.1083 24.5771 43.0257V47.0894H23.3058V42.0381C23.3058 41.3257 23.1717 40.7915 22.9034 40.4353C22.6352 40.0791 22.19 39.901 21.5677 39.901C20.9347 39.901 20.4036 40.1978 19.9745 40.7915C19.5453 41.3635 19.3307 42.1083 19.3307 43.0257V47.0894H18.0594V39.1239Z" fill="#0F2167"/>
<path d="M34.8837 43.139V43.0743C34.8837 41.8007 35.227 40.7861 35.9137 40.0305C36.611 39.2642 37.5445 38.881 38.7139 38.881C39.8833 38.881 40.8167 39.2642 41.5141 40.0305C42.2008 40.7861 42.5441 41.8007 42.5441 43.0743V43.139C42.5441 44.4127 42.2008 45.4272 41.5141 46.1828C40.8167 46.9491 39.8833 47.3323 38.7139 47.3323C37.5445 47.3323 36.611 46.9491 35.9137 46.1828C35.227 45.4272 34.8837 44.4127 34.8837 43.139ZM41.2405 43.139V43.0743C41.2405 42.0705 41.0099 41.2826 40.5485 40.7105C40.0872 40.1385 39.4756 39.8524 38.7139 39.8524C37.9521 39.8524 37.3406 40.1385 36.8793 40.7105C36.4179 41.2826 36.1873 42.0705 36.1873 43.0743V43.139C36.1873 44.1428 36.4179 44.9307 36.8793 45.5028C37.3406 46.0748 37.9521 46.3609 38.7139 46.3609C39.4756 46.3609 40.0872 46.0748 40.5485 45.5028C41.0099 44.9307 41.2405 44.1428 41.2405 43.139Z" fill="#0F2167"/>
<path d="M52.6086 43.9647V43.0257L51.6591 43.0581C50.361 43.112 49.4973 43.3225 49.0681 43.6895C48.639 44.0457 48.4244 44.4666 48.4244 44.9523C48.4244 45.3841 48.58 45.7294 48.8911 45.9885C49.213 46.2367 49.6207 46.3609 50.1142 46.3609C50.8545 46.3609 51.4553 46.1288 51.9166 45.6647C52.378 45.2006 52.6086 44.6339 52.6086 43.9647ZM47.1369 44.9523C47.1369 44.24 47.4534 43.6247 48.0864 43.1067C48.7194 42.5886 49.8996 42.2864 51.627 42.2L52.6086 42.1514V41.8762C52.6086 40.527 52.0132 39.8524 50.8223 39.8524C49.8782 39.8524 49.2183 40.3543 48.8428 41.3581L47.7163 41.0181C47.9309 40.3813 48.3064 39.8686 48.8428 39.4801C49.3793 39.0807 50.0391 38.881 50.8223 38.881C52.8608 38.881 53.88 40.0251 53.88 42.3133V47.0894H52.6408V45.6971C52.3619 46.2152 51.981 46.6199 51.4982 46.9113C51.0154 47.192 50.479 47.3323 49.8889 47.3323C49.1379 47.3323 48.4888 47.1218 47.9416 46.7009C47.4052 46.2583 47.1369 45.6755 47.1369 44.9523Z" fill="#0F2167"/>
<path d="M62.0853 43.139V43.0743C62.0853 42.0705 61.8546 41.2826 61.3933 40.7105C60.9319 40.1385 60.3204 39.8524 59.5587 39.8524C58.8827 39.8524 58.298 40.1655 57.8045 40.7915C57.311 41.3959 57.0642 42.1568 57.0642 43.0743V43.139C57.0642 44.0457 57.311 44.812 57.8045 45.438C58.298 46.0532 58.8827 46.3609 59.5587 46.3609C60.3204 46.3609 60.9319 46.0748 61.3933 45.5028C61.8546 44.9307 62.0853 44.1428 62.0853 43.139ZM55.825 39.1239H57.0964V40.7267C57.3646 40.1655 57.7508 39.7175 58.2551 39.3829C58.7701 39.0483 59.3387 38.881 59.961 38.881C60.991 38.881 61.8171 39.2912 62.4393 40.1115C63.0723 40.9426 63.3888 41.9302 63.3888 43.0743V43.139C63.3888 44.2831 63.0723 45.2707 62.4393 46.1018C61.8171 46.9221 60.991 47.3323 59.961 47.3323C59.3387 47.3323 58.7701 47.165 58.2551 46.8304C57.7508 46.4958 57.3646 46.0479 57.0964 45.4866V50.1655H55.825V39.1239Z" fill="#0F2167"/>
<path d="M64.7756 43.139V43.0743C64.7756 41.8007 65.1189 40.7861 65.8056 40.0305C66.503 39.2642 67.4364 38.881 68.6058 38.881C69.7753 38.881 70.7087 39.2642 71.406 40.0305C72.0927 40.7861 72.436 41.8007 72.436 43.0743V43.139C72.436 44.4127 72.0927 45.4272 71.406 46.1828C70.7087 46.9491 69.7753 47.3323 68.6058 47.3323C67.4364 47.3323 66.503 46.9491 65.8056 46.1828C65.1189 45.4272 64.7756 44.4127 64.7756 43.139ZM71.1325 43.139V43.0743C71.1325 42.0705 70.9018 41.2826 70.4404 40.7105C69.9791 40.1385 69.3676 39.8524 68.6058 39.8524C67.8441 39.8524 67.2325 40.1385 66.7712 40.7105C66.3098 41.2826 66.0792 42.0705 66.0792 43.0743V43.139C66.0792 44.1428 66.3098 44.9307 66.7712 45.5028C67.2325 46.0748 67.8441 46.3609 68.6058 46.3609C69.3676 46.3609 69.9791 46.0748 70.4404 45.5028C70.9018 44.9307 71.1325 44.1428 71.1325 43.139Z" fill="#0F2167"/>
<path d="M74.2147 39.1239H75.486V47.0894H74.2147V39.1239ZM74.2147 36.0316H75.486V37.7154H74.2147V36.0316Z" fill="#0F2167"/>
<path d="M77.2699 43.139V43.0743C77.2699 41.8007 77.6132 40.7861 78.2998 40.0305C78.9972 39.2642 79.9306 38.881 81.1001 38.881C82.2695 38.881 83.2029 39.2642 83.9003 40.0305C84.5869 40.7861 84.9303 41.8007 84.9303 43.0743V43.139C84.9303 44.4127 84.5869 45.4272 83.9003 46.1828C83.2029 46.9491 82.2695 47.3323 81.1001 47.3323C79.9306 47.3323 78.9972 46.9491 78.2998 46.1828C77.6132 45.4272 77.2699 44.4127 77.2699 43.139ZM83.6267 43.139V43.0743C83.6267 42.0705 83.396 41.2826 82.9347 40.7105C82.4734 40.1385 81.8618 39.8524 81.1001 39.8524C80.3383 39.8524 79.7268 40.1385 79.2654 40.7105C78.8041 41.2826 78.5734 42.0705 78.5734 43.0743V43.139C78.5734 44.1428 78.8041 44.9307 79.2654 45.5028C79.7268 46.0748 80.3383 46.3609 81.1001 46.3609C81.8618 46.3609 82.4734 46.0748 82.9347 45.5028C83.396 44.9307 83.6267 44.1428 83.6267 43.139Z" fill="#0F2167"/>
<path d="M96.0731 43.139V43.0743C96.0731 42.1784 95.8209 41.4175 95.3167 40.7915C94.8232 40.1655 94.2438 39.8524 93.5786 39.8524C92.8169 39.8524 92.2053 40.1385 91.744 40.7105C91.2826 41.2826 91.052 42.0705 91.052 43.0743V43.139C91.052 44.1428 91.2826 44.9307 91.744 45.5028C92.2053 46.0748 92.8169 46.3609 93.5786 46.3609C94.2331 46.3609 94.8124 46.0532 95.3167 45.438C95.8209 44.8012 96.0731 44.0349 96.0731 43.139ZM89.7484 43.139V43.0743C89.7484 41.9194 90.0596 40.9318 90.6818 40.1115C91.3041 39.2912 92.1356 38.881 93.1763 38.881C93.7985 38.881 94.3618 39.0483 94.8661 39.3829C95.3811 39.7175 95.7726 40.1655 96.0409 40.7267V35.7563H97.3122V47.0894H96.0409V45.4866C95.7726 46.0479 95.3811 46.4958 94.8661 46.8304C94.3618 47.165 93.7985 47.3323 93.1763 47.3323C92.1356 47.3323 91.3041 46.9221 90.6818 46.1018C90.0596 45.2815 89.7484 44.2939 89.7484 43.139Z" fill="#0F2167"/>
<path d="M100.373 42.3457H105.008C104.879 40.6835 104.139 39.8524 102.787 39.8524C102.154 39.8524 101.617 40.0791 101.177 40.5324C100.748 40.9858 100.48 41.5902 100.373 42.3457ZM99.0209 43.139V43.0743C99.0209 41.8654 99.3535 40.8616 100.019 40.0629C100.673 39.275 101.596 38.881 102.787 38.881C103.935 38.881 104.809 39.2426 105.41 39.9658C106.021 40.6889 106.327 41.7143 106.327 43.0419V43.2686H100.324C100.346 44.24 100.587 45.0009 101.049 45.5514C101.51 46.091 102.127 46.3609 102.899 46.3609C103.811 46.3609 104.562 45.7996 105.152 44.6771L106.247 45.1142C105.903 45.8913 105.421 46.458 104.798 46.8142C104.165 47.1596 103.527 47.3323 102.883 47.3323C101.692 47.3323 100.748 46.9491 100.051 46.1828C99.3642 45.4272 99.0209 44.4127 99.0209 43.139Z" fill="#0F2167"/>
<path d="M117.51 43.139V43.0743C117.51 42.1784 117.258 41.4175 116.753 40.7915C116.26 40.1655 115.68 39.8524 115.015 39.8524C114.254 39.8524 113.642 40.1385 113.181 40.7105C112.719 41.2826 112.489 42.0705 112.489 43.0743V43.139C112.489 44.1428 112.719 44.9307 113.181 45.5028C113.642 46.0748 114.254 46.3609 115.015 46.3609C115.67 46.3609 116.249 46.0532 116.753 45.438C117.258 44.8012 117.51 44.0349 117.51 43.139ZM111.185 43.139V43.0743C111.185 41.9194 111.496 40.9318 112.119 40.1115C112.741 39.2912 113.572 38.881 114.613 38.881C115.235 38.881 115.799 39.0483 116.303 39.3829C116.818 39.7175 117.209 40.1655 117.478 40.7267V35.7563H118.749V47.0894H117.478V45.4866C117.209 46.0479 116.818 46.4958 116.303 46.8304C115.799 47.165 115.235 47.3323 114.613 47.3323C113.572 47.3323 112.741 46.9221 112.119 46.1018C111.496 45.2815 111.185 44.2939 111.185 43.139Z" fill="#0F2167"/>
<path d="M121.809 42.3457H126.444C126.316 40.6835 125.575 39.8524 124.223 39.8524C123.59 39.8524 123.054 40.0791 122.614 40.5324C122.185 40.9858 121.917 41.5902 121.809 42.3457ZM120.458 43.139V43.0743C120.458 41.8654 120.79 40.8616 121.455 40.0629C122.11 39.275 123.032 38.881 124.223 38.881C125.371 38.881 126.246 39.2426 126.847 39.9658C127.458 40.6889 127.764 41.7143 127.764 43.0419V43.2686H121.761C121.783 44.24 122.024 45.0009 122.485 45.5514C122.947 46.091 123.564 46.3609 124.336 46.3609C125.248 46.3609 125.999 45.7996 126.589 44.6771L127.683 45.1142C127.34 45.8913 126.857 46.458 126.235 46.8142C125.602 47.1596 124.964 47.3323 124.32 47.3323C123.129 47.3323 122.185 46.9491 121.488 46.1828C120.801 45.4272 120.458 44.4127 120.458 43.139Z" fill="#0F2167"/>
<path d="M129.502 39.1239H130.773V41.0343C131.288 39.6959 132.216 39.0267 133.557 39.0267C133.665 39.0267 133.761 39.0375 133.847 39.0591V40.241C133.675 40.2194 133.525 40.2086 133.396 40.2086C132.592 40.2086 131.953 40.4677 131.481 40.9857C131.009 41.493 130.773 42.2378 130.773 43.22V47.0894H129.502V39.1239Z" fill="#0F2167"/>
<path d="M135.411 39.1239H136.682V40.7591C136.972 40.1439 137.348 39.6797 137.809 39.3667C138.27 39.0429 138.753 38.881 139.257 38.881C139.933 38.881 140.491 39.0645 140.931 39.4315C141.382 39.7985 141.677 40.2842 141.816 40.8886C142.095 40.2626 142.476 39.7715 142.959 39.4153C143.442 39.0591 143.951 38.881 144.488 38.881C145.41 38.881 146.092 39.1671 146.531 39.7391C146.961 40.3004 147.175 40.9696 147.175 41.7467V47.0894H145.904V42.0381C145.904 41.3257 145.77 40.7915 145.502 40.4353C145.233 40.0791 144.788 39.901 144.166 39.901C143.533 39.901 143.002 40.1978 142.573 40.7915C142.143 41.3635 141.929 42.1083 141.929 43.0257V47.0894H140.657V42.0381C140.657 41.3257 140.523 40.7915 140.255 40.4353C139.987 40.0791 139.542 39.901 138.919 39.901C138.286 39.901 137.755 40.1978 137.326 40.7915C136.897 41.3635 136.682 42.1083 136.682 43.0257V47.0894H135.411V39.1239Z" fill="#0F2167"/>
<path d="M154.04 43.9647V43.0257L153.09 43.0581C151.792 43.112 150.929 43.3225 150.499 43.6895C150.07 44.0457 149.856 44.4666 149.856 44.9523C149.856 45.3841 150.011 45.7294 150.322 45.9885C150.644 46.2367 151.052 46.3609 151.546 46.3609C152.286 46.3609 152.887 46.1288 153.348 45.6647C153.809 45.2006 154.04 44.6339 154.04 43.9647ZM148.568 44.9523C148.568 44.24 148.885 43.6247 149.518 43.1067C150.151 42.5886 151.331 42.2864 153.058 42.2L154.04 42.1514V41.8762C154.04 40.527 153.445 39.8524 152.254 39.8524C151.31 39.8524 150.65 40.3543 150.274 41.3581L149.148 41.0181C149.362 40.3813 149.738 39.8686 150.274 39.4801C150.811 39.0807 151.47 38.881 152.254 38.881C154.292 38.881 155.311 40.0251 155.311 42.3133V47.0894H154.072V45.6971C153.793 46.2152 153.412 46.6199 152.93 46.9113C152.447 47.192 151.91 47.3323 151.32 47.3323C150.569 47.3323 149.92 47.1218 149.373 46.7009C148.837 46.2583 148.568 45.6755 148.568 44.9523Z" fill="#0F2167"/>
<path d="M157.741 44.8714V40.0791H156.486V39.1239H157.741V36.7439H158.996V39.1239H161.555V40.0791H158.996V44.9199C158.996 45.3733 159.077 45.6971 159.238 45.8913C159.399 46.0748 159.662 46.1666 160.026 46.1666C160.37 46.1666 160.852 46.1234 161.475 46.0371V47.0408C160.928 47.1272 160.407 47.1704 159.914 47.1704C159.141 47.1704 158.583 46.9923 158.24 46.6361C157.907 46.2691 157.741 45.6809 157.741 44.8714Z" fill="#0F2167"/>
<path d="M162.545 43.139V43.0743C162.545 41.8007 162.888 40.7861 163.575 40.0305C164.272 39.2642 165.206 38.881 166.375 38.881C167.545 38.881 168.478 39.2642 169.176 40.0305C169.862 40.7861 170.206 41.8007 170.206 43.0743V43.139C170.206 44.4127 169.862 45.4272 169.176 46.1828C168.478 46.9491 167.545 47.3323 166.375 47.3323C165.206 47.3323 164.272 46.9491 163.575 46.1828C162.888 45.4272 162.545 44.4127 162.545 43.139ZM168.902 43.139V43.0743C168.902 42.0705 168.671 41.2826 168.21 40.7105C167.749 40.1385 167.137 39.8524 166.375 39.8524C165.614 39.8524 165.002 40.1385 164.541 40.7105C164.079 41.2826 163.849 42.0705 163.849 43.0743V43.139C163.849 44.1428 164.079 44.9307 164.541 45.5028C165.002 46.0748 165.614 46.3609 166.375 46.3609C167.137 46.3609 167.749 46.0748 168.21 45.5028C168.671 44.9307 168.902 44.1428 168.902 43.139Z" fill="#0F2167"/>
<path d="M171.984 35.7563H173.256V47.0894H171.984V35.7563Z" fill="#0F2167"/>
<path d="M175.039 43.139V43.0743C175.039 41.8007 175.383 40.7861 176.069 40.0305C176.767 39.2642 177.7 38.881 178.87 38.881C180.039 38.881 180.972 39.2642 181.67 40.0305C182.356 40.7861 182.7 41.8007 182.7 43.0743V43.139C182.7 44.4127 182.356 45.4272 181.67 46.1828C180.972 46.9491 180.039 47.3323 178.87 47.3323C177.7 47.3323 176.767 46.9491 176.069 46.1828C175.383 45.4272 175.039 44.4127 175.039 43.139ZM181.396 43.139V43.0743C181.396 42.0705 181.166 41.2826 180.704 40.7105C180.243 40.1385 179.631 39.8524 178.87 39.8524C178.108 39.8524 177.496 40.1385 177.035 40.7105C176.574 41.2826 176.343 42.0705 176.343 43.0743V43.139C176.343 44.1428 176.574 44.9307 177.035 45.5028C177.496 46.0748 178.108 46.3609 178.87 46.3609C179.631 46.3609 180.243 46.0748 180.704 45.5028C181.166 44.9307 181.396 44.1428 181.396 43.139Z" fill="#0F2167"/>
<path d="M190 48.0608C190 47.6723 189.743 47.3593 189.228 47.1218C188.713 46.8951 187.914 46.7818 186.83 46.7818C186.154 46.7818 185.644 46.9005 185.301 47.138C184.968 47.3862 184.802 47.7046 184.802 48.0932C184.802 48.9891 185.655 49.437 187.361 49.437C188.176 49.437 188.82 49.3075 189.292 49.0484C189.764 48.7894 190 48.4602 190 48.0608ZM189.308 41.6819V41.6657C189.308 41.1261 189.126 40.6835 188.761 40.3381C188.396 39.982 187.903 39.8039 187.281 39.8039C186.658 39.8039 186.165 39.982 185.8 40.3381C185.435 40.6835 185.253 41.1261 185.253 41.6657V41.6819C185.253 42.2216 185.435 42.6695 185.8 43.0257C186.165 43.3711 186.658 43.5438 187.281 43.5438C187.903 43.5438 188.396 43.3711 188.761 43.0257C189.126 42.6695 189.308 42.2216 189.308 41.6819ZM183.515 48.1903C183.515 47.2621 184.067 46.6685 185.172 46.4094C184.636 46.1396 184.368 45.7618 184.368 45.2761C184.368 44.7041 184.749 44.3101 185.51 44.0942C185.028 43.8568 184.652 43.5276 184.384 43.1067C184.126 42.6749 183.998 42.2 183.998 41.6819V41.6657C183.998 40.8778 184.287 40.2194 184.867 39.6905C185.467 39.1509 186.272 38.881 187.281 38.881C188.064 38.881 188.729 39.0483 189.276 39.3829C189.695 38.6166 190.387 38.2334 191.352 38.2334H191.384V39.2534C190.708 39.2642 190.188 39.4531 189.823 39.8201C190.317 40.3166 190.564 40.9318 190.564 41.6657V41.6819C190.564 42.4698 190.269 43.1282 189.678 43.6571C189.088 44.1968 188.289 44.4666 187.281 44.4666C187.173 44.4666 187.018 44.4558 186.814 44.4342C186.621 44.4127 186.503 44.4019 186.46 44.4019C185.891 44.5853 185.607 44.8174 185.607 45.098C185.607 45.4218 185.886 45.5891 186.444 45.5999C188.225 45.6431 189.442 45.8212 190.097 46.1342C190.451 46.3069 190.73 46.5497 190.934 46.8628C191.148 47.1758 191.256 47.5104 191.256 47.8665C191.256 48.6221 190.896 49.2319 190.177 49.696C189.469 50.1709 188.504 50.4084 187.281 50.4084C186.079 50.4084 185.151 50.2087 184.496 49.8094C183.842 49.4208 183.515 48.8811 183.515 48.1903Z" fill="#0F2167"/>
<path d="M192.714 39.1239H193.985V47.0894H192.714V39.1239ZM192.714 36.0316H193.985V37.7154H192.714V36.0316Z" fill="#0F2167"/>
<path d="M195.479 44.8066L196.606 44.5152C196.895 45.7456 197.673 46.3609 198.939 46.3609C199.626 46.3609 200.146 46.2421 200.5 46.0047C200.865 45.7672 201.047 45.4596 201.047 45.0818C201.047 44.7688 200.924 44.5098 200.677 44.3047C200.431 44.0889 200.012 43.9162 199.422 43.7866L198.376 43.56C196.756 43.2146 195.946 42.4267 195.946 41.1962C195.946 40.5702 196.219 40.0305 196.767 39.5772C197.303 39.1131 198.043 38.881 198.987 38.881C199.803 38.881 200.484 39.0807 201.031 39.4801C201.579 39.8686 201.954 40.4137 202.158 41.1153L201.047 41.4067C200.919 40.9318 200.667 40.554 200.291 40.2734C199.916 39.9928 199.481 39.8524 198.987 39.8524C198.44 39.8524 198 39.9658 197.668 40.1924C197.346 40.4191 197.185 40.7105 197.185 41.0667C197.185 41.4013 197.287 41.6711 197.491 41.8762C197.705 42.0813 198.076 42.2432 198.601 42.3619L199.647 42.5886C200.57 42.7936 201.246 43.0905 201.675 43.479C202.104 43.8568 202.319 44.3533 202.319 44.9685C202.319 45.6269 202.013 46.1882 201.401 46.6523C200.811 47.1056 199.991 47.3323 198.939 47.3323C198.027 47.3323 197.266 47.111 196.654 46.6685C196.042 46.2259 195.651 45.6053 195.479 44.8066Z" fill="#0F2167"/>
<path d="M204.355 44.8714V40.0791H203.1V39.1239H204.355V36.7439H205.61V39.1239H208.169V40.0791H205.61V44.9199C205.61 45.3733 205.691 45.6971 205.852 45.8913C206.012 46.0748 206.275 46.1666 206.64 46.1666C206.983 46.1666 207.466 46.1234 208.088 46.0371V47.0408C207.541 47.1272 207.021 47.1704 206.527 47.1704C205.755 47.1704 205.197 46.9923 204.854 46.6361C204.521 46.2691 204.355 45.6809 204.355 44.8714Z" fill="#0F2167"/>
<path d="M214.72 43.9647V43.0257L213.77 43.0581C212.472 43.112 211.608 43.3225 211.179 43.6895C210.75 44.0457 210.535 44.4666 210.535 44.9523C210.535 45.3841 210.691 45.7294 211.002 45.9885C211.324 46.2367 211.732 46.3609 212.225 46.3609C212.965 46.3609 213.566 46.1288 214.028 45.6647C214.489 45.2006 214.72 44.6339 214.72 43.9647ZM209.248 44.9523C209.248 44.24 209.564 43.6247 210.197 43.1067C210.83 42.5886 212.011 42.2864 213.738 42.2L214.72 42.1514V41.8762C214.72 40.527 214.124 39.8524 212.933 39.8524C211.989 39.8524 211.329 40.3543 210.954 41.3581L209.827 41.0181C210.042 40.3813 210.417 39.8686 210.954 39.4801C211.49 39.0807 212.15 38.881 212.933 38.881C214.972 38.881 215.991 40.0251 215.991 42.3133V47.0894H214.752V45.6971C214.473 46.2152 214.092 46.6199 213.609 46.9113C213.126 47.192 212.59 47.3323 212 47.3323C211.249 47.3323 210.6 47.1218 210.053 46.7009C209.516 46.2583 209.248 45.6755 209.248 44.9523Z" fill="#0F2167"/>
<path d="M217.324 44.8066L218.451 44.5152C218.741 45.7456 219.519 46.3609 220.785 46.3609C221.471 46.3609 221.992 46.2421 222.346 46.0047C222.71 45.7672 222.893 45.4596 222.893 45.0818C222.893 44.7688 222.769 44.5098 222.523 44.3047C222.276 44.0889 221.857 43.9162 221.267 43.7866L220.221 43.56C218.601 43.2146 217.791 42.4267 217.791 41.1962C217.791 40.5702 218.065 40.0305 218.612 39.5772C219.148 39.1131 219.889 38.881 220.833 38.881C221.648 38.881 222.329 39.0807 222.877 39.4801C223.424 39.8686 223.799 40.4137 224.003 41.1153L222.893 41.4067C222.764 40.9318 222.512 40.554 222.136 40.2734C221.761 39.9928 221.326 39.8524 220.833 39.8524C220.286 39.8524 219.846 39.9658 219.513 40.1924C219.191 40.4191 219.03 40.7105 219.03 41.0667C219.03 41.4013 219.132 41.6711 219.336 41.8762C219.551 42.0813 219.921 42.2432 220.447 42.3619L221.493 42.5886C222.415 42.7936 223.091 43.0905 223.52 43.479C223.95 43.8568 224.164 44.3533 224.164 44.9685C224.164 45.6269 223.858 46.1882 223.247 46.6523C222.657 47.1056 221.836 47.3323 220.785 47.3323C219.873 47.3323 219.111 47.111 218.499 46.6685C217.888 46.2259 217.496 45.6053 217.324 44.8066Z" fill="#0F2167"/>
<path d="M231.489 42.0867H234.047C234.004 41.4175 233.886 40.948 233.693 40.6781C233.5 40.4083 233.205 40.2734 232.808 40.2734C232.046 40.2734 231.607 40.8778 231.489 42.0867ZM228.608 43.0743V42.88C228.608 41.6387 229.005 40.6188 229.799 39.8201C230.593 39.0214 231.585 38.622 232.776 38.622C234.074 38.622 235.083 39.0106 235.802 39.7877C236.52 40.554 236.88 41.6172 236.88 42.9771V43.4952H231.472C231.548 44.9199 232.089 45.6323 233.098 45.6323C233.742 45.6323 234.332 45.1952 234.868 44.3209L236.831 45.098C236.531 45.778 236.038 46.3231 235.351 46.7332C234.675 47.1326 233.892 47.3323 233.001 47.3323C231.714 47.3323 230.657 46.9491 229.831 46.1828C229.016 45.4056 228.608 44.3695 228.608 43.0743Z" fill="#FF1935"/>
<path d="M237.935 38.8648H240.767V40.2734C241.282 39.1725 242.098 38.622 243.214 38.622C243.825 38.622 244.335 38.7785 244.742 39.0915C245.15 39.3937 245.429 39.8255 245.579 40.3867C246.105 39.2102 246.931 38.622 248.058 38.622C248.905 38.622 249.549 38.8864 249.989 39.4153C250.439 39.9334 250.665 40.6404 250.665 41.5362V47.0894H247.832V41.9895C247.832 41.5686 247.752 41.261 247.591 41.0667C247.441 40.8616 247.194 40.7591 246.851 40.7591C246.507 40.7591 246.234 40.894 246.03 41.1638C245.826 41.4337 245.724 41.806 245.724 42.281V47.0894H242.892V41.9895C242.892 41.1692 242.564 40.7591 241.91 40.7591C241.556 40.7591 241.277 40.894 241.073 41.1638C240.869 41.4337 240.767 41.806 240.767 42.281V47.0894H237.935V38.8648Z" fill="#FF1935"/>
<path d="M255.121 43.0743V42.88C255.121 41.6387 255.518 40.6188 256.312 39.8201C257.106 39.0214 258.13 38.622 259.386 38.622C260.501 38.622 261.403 38.8972 262.089 39.4477C262.776 39.9874 263.184 40.7483 263.312 41.7305L260.818 42.0219C260.721 41.4499 260.566 41.0343 260.351 40.7753C260.137 40.5162 259.847 40.3867 259.482 40.3867C258.538 40.3867 258.066 41.1962 258.066 42.8152V43.1228C258.066 44.7526 258.538 45.5675 259.482 45.5675C259.868 45.5675 260.169 45.438 260.383 45.179C260.598 44.9092 260.759 44.4558 260.866 43.819L263.393 44.1104C263.264 45.1466 262.851 45.9453 262.154 46.5066C261.467 47.057 260.544 47.3323 259.386 47.3323C258.184 47.3323 257.17 46.9491 256.344 46.1828C255.529 45.4056 255.121 44.3695 255.121 43.0743Z" fill="#FF1935"/>
<path d="M264.079 43.0743V42.88C264.079 41.6495 264.471 40.635 265.254 39.8363C266.048 39.0267 267.094 38.622 268.392 38.622C269.69 38.622 270.736 39.0267 271.53 39.8363C272.313 40.635 272.705 41.6495 272.705 42.88V43.0743C272.705 44.3047 272.313 45.3193 271.53 46.118C270.736 46.9275 269.69 47.3323 268.392 47.3323C267.094 47.3323 266.048 46.9275 265.254 46.118C264.471 45.3193 264.079 44.3047 264.079 43.0743ZM269.76 43.1228V42.8152C269.76 41.1423 269.304 40.3058 268.392 40.3058C267.48 40.3058 267.024 41.1423 267.024 42.8152V43.1228C267.024 44.7958 267.48 45.6323 268.392 45.6323C269.304 45.6323 269.76 44.7958 269.76 43.1228Z" fill="#FF1935"/>
<path d="M273.768 38.8648H276.6V40.2896C277.094 39.1779 277.92 38.622 279.078 38.622C279.947 38.622 280.602 38.8864 281.042 39.4153C281.482 39.9442 281.702 40.6512 281.702 41.5362V47.0894H278.869V41.9895C278.869 41.1692 278.531 40.7591 277.855 40.7591C277.458 40.7591 277.147 40.894 276.922 41.1638C276.707 41.4337 276.6 41.806 276.6 42.281V47.0894H273.768V38.8648Z" fill="#FF1935"/>
<path d="M282.461 45.5352L283.797 44.1914C284.591 45.152 285.455 45.6323 286.388 45.6323C286.796 45.6323 287.112 45.5675 287.338 45.438C287.563 45.2977 287.676 45.1196 287.676 44.9038C287.676 44.6987 287.59 44.5422 287.418 44.4342C287.257 44.3155 286.957 44.213 286.517 44.1266L285.342 43.9C284.548 43.7489 283.942 43.452 283.524 43.0095C283.116 42.5562 282.912 42.0057 282.912 41.3581C282.912 40.5486 283.239 39.8902 283.894 39.3829C284.559 38.8756 285.492 38.622 286.694 38.622C287.413 38.622 288.089 38.7623 288.722 39.0429C289.365 39.3128 289.87 39.669 290.234 40.1115L288.915 41.3905C288.26 40.6673 287.525 40.3058 286.71 40.3058C286.345 40.3058 286.066 40.3651 285.873 40.4839C285.68 40.6026 285.584 40.7591 285.584 40.9534C285.584 41.1369 285.653 41.288 285.793 41.4067C285.932 41.5146 286.174 41.601 286.517 41.6657L287.692 41.8924C288.69 42.0759 289.403 42.3943 289.832 42.8476C290.272 43.3009 290.492 43.8946 290.492 44.6285C290.492 45.3733 290.127 46.0155 289.398 46.5551C288.668 47.0732 287.729 47.3323 286.581 47.3323C285.702 47.3323 284.897 47.1758 284.167 46.8628C283.449 46.5497 282.88 46.1072 282.461 45.5352Z" fill="#FF1935"/>
<path d="M291.998 44.4504V40.6458H290.807V38.8648H291.998V36.5982H294.83V38.8648H296.874V40.6458H294.83V44.4019C294.83 44.6933 294.894 44.8984 295.023 45.0171C295.152 45.1358 295.377 45.1952 295.699 45.1952C295.796 45.1952 295.983 45.1844 296.262 45.1628C296.552 45.1304 296.75 45.1142 296.858 45.1142V47.0085C296.107 47.1596 295.431 47.2351 294.83 47.2351C293.779 47.2351 293.044 47.0247 292.625 46.6037C292.207 46.172 291.998 45.4542 291.998 44.4504Z" fill="#FF1935"/>
<path d="M302.606 44.0619V43.3333H302.558C301.646 43.3981 301.051 43.5492 300.772 43.7866C300.493 44.0133 300.353 44.2939 300.353 44.6285C300.353 44.9199 300.444 45.152 300.627 45.3247C300.809 45.4866 301.04 45.5675 301.319 45.5675C301.716 45.5675 302.027 45.438 302.252 45.179C302.488 44.9092 302.606 44.5368 302.606 44.0619ZM297.505 44.8066C297.505 43.9971 297.816 43.3441 298.438 42.8476C299.071 42.3403 300.369 42.0543 302.333 41.9895L302.606 41.9733V41.6657C302.606 40.8994 302.263 40.5162 301.576 40.5162C301.018 40.5162 300.643 40.8454 300.45 41.5038L297.939 41.1962C298.1 40.4191 298.486 39.7985 299.098 39.3344C299.72 38.8595 300.541 38.622 301.56 38.622C304.146 38.622 305.439 39.8201 305.439 42.2162V47.0894H302.671V45.8752C302.209 46.7926 301.383 47.2513 300.192 47.2513C299.409 47.2513 298.765 47.0301 298.261 46.5875C297.757 46.1342 297.505 45.5406 297.505 44.8066Z" fill="#FF1935"/>
<path d="M306.74 38.8648H309.572V40.2896C310.066 39.1779 310.892 38.622 312.051 38.622C312.92 38.622 313.574 38.8864 314.014 39.4153C314.454 39.9442 314.674 40.6512 314.674 41.5362V47.0894H311.841V41.9895C311.841 41.1692 311.503 40.7591 310.828 40.7591C310.431 40.7591 310.119 40.894 309.894 41.1638C309.68 41.4337 309.572 41.806 309.572 42.281V47.0894H306.74V38.8648Z" fill="#FF1935"/>
<path d="M316.546 44.4504V40.6458H315.355V38.8648H316.546V36.5982H319.378V38.8648H321.422V40.6458H319.378V44.4019C319.378 44.6933 319.443 44.8984 319.572 45.0171C319.7 45.1358 319.926 45.1952 320.247 45.1952C320.344 45.1952 320.532 45.1844 320.811 45.1628C321.1 45.1304 321.299 45.1142 321.406 45.1142V47.0085C320.655 47.1596 319.979 47.2351 319.378 47.2351C318.327 47.2351 317.592 47.0247 317.174 46.6037C316.755 46.172 316.546 45.4542 316.546 44.4504Z" fill="#FF1935"/>
<path d="M324.826 42.0867H327.385C327.342 41.4175 327.224 40.948 327.031 40.6781C326.838 40.4083 326.543 40.2734 326.146 40.2734C325.384 40.2734 324.944 40.8778 324.826 42.0867ZM321.945 43.0743V42.88C321.945 41.6387 322.342 40.6188 323.136 39.8201C323.93 39.0214 324.923 38.622 326.114 38.622C327.412 38.622 328.42 39.0106 329.139 39.7877C329.858 40.554 330.217 41.6172 330.217 42.9771V43.4952H324.81C324.885 44.9199 325.427 45.6323 326.435 45.6323C327.079 45.6323 327.669 45.1952 328.206 44.3209L330.169 45.098C329.869 45.778 329.375 46.3231 328.688 46.7332C328.013 47.1326 327.229 47.3323 326.339 47.3323C325.051 47.3323 323.995 46.9491 323.169 46.1828C322.353 45.4056 321.945 44.3695 321.945 43.0743Z" fill="#FF1935"/>
<path d="M5.10155 62.4106V61.6821H5.05327C4.14132 61.7468 3.54587 61.8979 3.26693 62.1354C2.98798 62.3621 2.8485 62.6427 2.8485 62.9773C2.8485 63.2687 2.9397 63.5008 3.12209 63.6735C3.30448 63.8354 3.53515 63.9163 3.8141 63.9163C4.21106 63.9163 4.5222 63.7868 4.7475 63.5278C4.98354 63.2579 5.10155 62.8855 5.10155 62.4106ZM0 63.1554C0 62.3459 0.311136 61.6929 0.933407 61.1964C1.56641 60.6891 2.86459 60.4031 4.82797 60.3383L5.10155 60.3221V60.0145C5.10155 59.2482 4.75823 58.865 4.07159 58.865C3.51369 58.865 3.13818 59.1942 2.94506 59.8526L0.434517 59.545C0.59545 58.7679 0.981687 58.1472 1.59323 57.6831C2.2155 57.2082 3.03626 56.9708 4.05549 56.9708C6.64114 56.9708 7.93396 58.1688 7.93396 60.565V65.4382H5.16593V64.2239C4.70459 65.1414 3.87847 65.6001 2.68757 65.6001C1.90437 65.6001 1.26064 65.3788 0.756382 64.9363C0.252127 64.483 0 63.8893 0 63.1554Z" fill="#FF1935"/>
<path d="M9.80027 62.7992V58.9945H8.60938V57.2136H9.80027V54.947H12.6327V57.2136H14.6765V58.9945H12.6327V62.7506C12.6327 63.042 12.6971 63.2471 12.8258 63.3658C12.9545 63.4846 13.1799 63.5439 13.5017 63.5439C13.5983 63.5439 13.786 63.5331 14.065 63.5116C14.3547 63.4792 14.5531 63.463 14.6604 63.463V65.3572C13.9094 65.5083 13.2335 65.5839 12.6327 65.5839C11.5813 65.5839 10.8463 65.3734 10.4279 64.9525C10.0095 64.5207 9.80027 63.803 9.80027 62.7992Z" fill="#FF1935"/>
<path d="M15.5825 62.7668V57.2136H18.4149V62.3135C18.4149 63.1338 18.7529 63.5439 19.4288 63.5439C19.8258 63.5439 20.1315 63.409 20.3461 63.1392C20.5714 62.8694 20.6841 62.497 20.6841 62.0221V57.2136H23.5165V65.4382H20.6841V63.9973C20.1905 65.1198 19.3644 65.681 18.2057 65.681C17.3367 65.681 16.6822 65.4166 16.2423 64.8877C15.8025 64.3588 15.5825 63.6519 15.5825 62.7668Z" fill="#FF1935"/>
<path d="M29.5872 62.4106V61.6821H29.5389C28.6269 61.7468 28.0315 61.8979 27.7525 62.1354C27.4736 62.3621 27.3341 62.6427 27.3341 62.9773C27.3341 63.2687 27.4253 63.5008 27.6077 63.6735C27.7901 63.8354 28.0207 63.9163 28.2997 63.9163C28.6967 63.9163 29.0078 63.7868 29.2331 63.5278C29.4691 63.2579 29.5872 62.8855 29.5872 62.4106ZM24.4856 63.1554C24.4856 62.3459 24.7967 61.6929 25.419 61.1964C26.052 60.6891 27.3502 60.4031 29.3136 60.3383L29.5872 60.3221V60.0145C29.5872 59.2482 29.2438 58.865 28.5572 58.865C27.9993 58.865 27.6238 59.1942 27.4307 59.8526L24.9201 59.545C25.081 58.7679 25.4673 58.1472 26.0788 57.6831C26.7011 57.2082 27.5219 56.9708 28.5411 56.9708C31.1267 56.9708 32.4196 58.1688 32.4196 60.565V65.4382H29.6515V64.2239C29.1902 65.1414 28.3641 65.6001 27.1732 65.6001C26.39 65.6001 25.7462 65.3788 25.242 64.9363C24.7377 64.483 24.4856 63.8893 24.4856 63.1554Z" fill="#FF1935"/>
<path d="M33.8012 54.1051H36.6336V65.4382H33.8012V54.1051Z" fill="#FF1935"/>
<path d="M38.186 57.2136H41.0184V65.4382H38.186V57.2136ZM38.186 54.1861H41.0184V56.3717H38.186V54.1861Z" fill="#FF1935"/>
<path d="M42.1523 63.7706L45.9503 58.9945H42.3293V57.2136H49.2333V58.8812L45.4514 63.6411H49.2494V65.4382H42.1523V63.7706Z" fill="#FF1935"/>
<path d="M54.9686 62.4106V61.6821H54.9203C54.0083 61.7468 53.4129 61.8979 53.1339 62.1354C52.855 62.3621 52.7155 62.6427 52.7155 62.9773C52.7155 63.2687 52.8067 63.5008 52.9891 63.6735C53.1715 63.8354 53.4022 63.9163 53.6811 63.9163C54.0781 63.9163 54.3892 63.7868 54.6145 63.5278C54.8505 63.2579 54.9686 62.8855 54.9686 62.4106ZM49.867 63.1554C49.867 62.3459 50.1781 61.6929 50.8004 61.1964C51.4334 60.6891 52.7316 60.4031 54.695 60.3383L54.9686 60.3221V60.0145C54.9686 59.2482 54.6252 58.865 53.9386 58.865C53.3807 58.865 53.0052 59.1942 52.8121 59.8526L50.3015 59.545C50.4625 58.7679 50.8487 58.1472 51.4602 57.6831C52.0825 57.2082 52.9033 56.9708 53.9225 56.9708C56.5081 56.9708 57.801 58.1688 57.801 60.565V65.4382H55.0329V64.2239C54.5716 65.1414 53.7455 65.6001 52.5546 65.6001C51.7714 65.6001 51.1276 65.3788 50.6234 64.9363C50.1191 64.483 49.867 63.8893 49.867 63.1554Z" fill="#FF1935"/>
<path d="M61.2103 68.6438L61.4839 67.6724C62.0418 67.8451 62.4549 67.9315 62.7231 67.9315C63.2381 67.9315 63.4956 67.7911 63.4956 67.5105C63.4956 67.2515 63.281 67.1219 62.8519 67.1219C62.648 67.1219 62.4442 67.1597 62.2403 67.2353L61.6288 66.7496L62.3852 65.6325C61.3659 65.5029 60.5076 65.0658 59.8102 64.3211C59.1236 63.5655 58.7803 62.5995 58.7803 61.423V61.2288C58.7803 59.9875 59.1772 58.9675 59.9712 58.1688C60.7651 57.3701 61.7897 56.9708 63.045 56.9708C64.1608 56.9708 65.062 57.246 65.7486 57.7965C66.4353 58.3361 66.843 59.0971 66.9717 60.0793L64.4773 60.3707C64.3807 59.7986 64.2251 59.3831 64.0106 59.124C63.796 58.865 63.5063 58.7355 63.1415 58.7355C62.1974 58.7355 61.7253 59.545 61.7253 61.164V61.4716C61.7253 63.1014 62.1974 63.9163 63.1415 63.9163C63.5278 63.9163 63.8282 63.7868 64.0428 63.5278C64.2573 63.2579 64.4183 62.8046 64.5256 62.1678L67.0522 62.4592C66.9342 63.409 66.5801 64.1592 65.99 64.7096C65.4107 65.2493 64.6221 65.5623 63.6243 65.6487L63.3829 66.1667H63.5117C64.0588 66.1667 64.4934 66.2909 64.8152 66.5391C65.1478 66.7981 65.3141 67.1273 65.3141 67.5267C65.3141 67.9584 65.1103 68.3092 64.7026 68.5791C64.2949 68.8597 63.7423 69 63.045 69C62.4012 69 61.7897 68.8813 61.2103 68.6438Z" fill="#FF1935"/>
<path d="M72.7434 62.4106V61.6821H72.6951C71.7832 61.7468 71.1877 61.8979 70.9088 62.1354C70.6298 62.3621 70.4904 62.6427 70.4904 62.9773C70.4904 63.2687 70.5816 63.5008 70.7639 63.6735C70.9463 63.8354 71.177 63.9163 71.4559 63.9163C71.8529 63.9163 72.1641 63.7868 72.3894 63.5278C72.6254 63.2579 72.7434 62.8855 72.7434 62.4106ZM67.6419 63.1554C67.6419 62.3459 67.953 61.6929 68.5753 61.1964C69.2083 60.6891 70.5064 60.4031 72.4698 60.3383L72.7434 60.3221V60.0145C72.7434 59.2482 72.4001 58.865 71.7134 58.865C71.1555 58.865 70.78 59.1942 70.5869 59.8526L68.0764 59.545C68.2373 58.7679 68.6235 58.1472 69.2351 57.6831C69.8574 57.2082 70.6781 56.9708 71.6973 56.9708C74.283 56.9708 75.5758 58.1688 75.5758 60.565V65.4382H72.8078V64.2239C72.3464 65.1414 71.5203 65.6001 70.3294 65.6001C69.5462 65.6001 68.9025 65.3788 68.3982 64.9363C67.894 64.483 67.6419 63.8893 67.6419 63.1554ZM71.6813 56.1289L71.3594 55.9346C71.0912 55.7943 70.8981 55.7241 70.78 55.7241C70.5011 55.7241 70.2382 55.9616 69.9915 56.4365L68.881 55.7241C69.0741 55.2168 69.337 54.8175 69.6696 54.5261C70.0129 54.2346 70.3723 54.0889 70.7478 54.0889C71.177 54.0889 71.574 54.2023 71.9387 54.4289L72.2606 54.6232C72.5396 54.7743 72.7327 54.8499 72.84 54.8499C73.1082 54.8499 73.371 54.6124 73.6285 54.1375L74.739 54.8337C74.5459 55.341 74.2776 55.7403 73.9343 56.0317C73.6017 56.3232 73.2477 56.4689 72.8722 56.4689C72.4752 56.4689 72.0782 56.3555 71.6813 56.1289Z" fill="#FF1935"/>
<path d="M76.5551 61.423V61.2288C76.5551 59.9983 76.9467 58.9837 77.7299 58.185C78.5238 57.3755 79.5699 56.9708 80.8681 56.9708C82.1663 56.9708 83.2123 57.3755 84.0063 58.185C84.7895 58.9837 85.1811 59.9983 85.1811 61.2288V61.423C85.1811 62.6535 84.7895 63.6681 84.0063 64.4668C83.2123 65.2763 82.1663 65.681 80.8681 65.681C79.5699 65.681 78.5238 65.2763 77.7299 64.4668C76.9467 63.6681 76.5551 62.6535 76.5551 61.423ZM82.236 61.4716V61.164C82.236 59.491 81.78 58.6545 80.8681 58.6545C79.9561 58.6545 79.5002 59.491 79.5002 61.164V61.4716C79.5002 63.1446 79.9561 63.9811 80.8681 63.9811C81.78 63.9811 82.236 63.1446 82.236 61.4716Z" fill="#FF1935"/>
<path d="M89.1541 63.8839L90.4898 62.5402C91.2838 63.5008 92.1474 63.9811 93.0809 63.9811C93.4885 63.9811 93.805 63.9163 94.0304 63.7868C94.2557 63.6465 94.3683 63.4684 94.3683 63.2525C94.3683 63.0474 94.2825 62.8909 94.1108 62.783C93.9499 62.6643 93.6495 62.5617 93.2096 62.4754L92.0348 62.2487C91.2409 62.0976 90.6347 61.8008 90.2163 61.3583C89.8086 60.905 89.6047 60.3545 89.6047 59.7069C89.6047 58.8974 89.9319 58.239 90.5864 57.7317C91.2516 57.2244 92.185 56.9708 93.3866 56.9708C94.1054 56.9708 94.7814 57.1111 95.4144 57.3917C96.0581 57.6615 96.5623 58.0177 96.9271 58.4603L95.6075 59.7393C94.953 59.0161 94.2181 58.6545 93.4027 58.6545C93.0379 58.6545 92.759 58.7139 92.5659 58.8326C92.3727 58.9513 92.2762 59.1079 92.2762 59.3021C92.2762 59.4856 92.3459 59.6367 92.4854 59.7555C92.6249 59.8634 92.8663 59.9497 93.2096 60.0145L94.3844 60.2412C95.3822 60.4246 96.0956 60.7431 96.5248 61.1964C96.9647 61.6497 97.1846 62.2433 97.1846 62.9773C97.1846 63.722 96.8198 64.3642 96.0903 64.9039C95.3607 65.422 94.422 65.681 93.274 65.681C92.3942 65.681 91.5895 65.5245 90.86 65.2115C90.1412 64.8985 89.5725 64.456 89.1541 63.8839Z" fill="#FF1935"/>
<path d="M97.8661 61.423V61.2288C97.8661 59.9983 98.2577 58.9837 99.0409 58.185C99.8348 57.3755 100.881 56.9708 102.179 56.9708C103.477 56.9708 104.523 57.3755 105.317 58.185C106.1 58.9837 106.492 59.9983 106.492 61.2288V61.423C106.492 62.6535 106.1 63.6681 105.317 64.4668C104.523 65.2763 103.477 65.681 102.179 65.681C100.881 65.681 99.8348 65.2763 99.0409 64.4668C98.2577 63.6681 97.8661 62.6535 97.8661 61.423ZM103.547 61.4716V61.164C103.547 59.491 103.091 58.6545 102.179 58.6545C101.267 58.6545 100.811 59.491 100.811 61.164V61.4716C100.811 63.1446 101.267 63.9811 102.179 63.9811C103.091 63.9811 103.547 63.1446 103.547 61.4716Z" fill="#FF1935"/>
<path d="M113.059 61.4716V61.164C113.059 59.491 112.603 58.6545 111.691 58.6545C111.272 58.6545 110.94 58.865 110.693 59.2859C110.446 59.7069 110.323 60.3329 110.323 61.164V61.4716C110.323 62.3135 110.446 62.9449 110.693 63.3658C110.94 63.776 111.272 63.9811 111.691 63.9811C112.603 63.9811 113.059 63.1446 113.059 61.4716ZM110.387 64.1915V65.4382H107.555V54.1051H110.387V58.4603C110.591 57.9961 110.897 57.6346 111.304 57.3755C111.723 57.1057 112.2 56.9708 112.737 56.9708C113.713 56.9708 114.502 57.3755 115.102 58.185C115.703 58.9837 116.004 59.9767 116.004 61.164V61.4716C116.004 62.6589 115.703 63.6627 115.102 64.483C114.502 65.2817 113.713 65.681 112.737 65.681C112.2 65.681 111.723 65.5515 111.304 65.2925C110.897 65.0226 110.591 64.6557 110.387 64.1915Z" fill="#FF1935"/>
<path d="M117.063 57.2136H119.895V59.205C120.324 57.7911 121.108 57.0841 122.245 57.0841C122.277 57.0841 122.422 57.1003 122.679 57.1327V59.8526C122.626 59.8526 122.481 59.8418 122.245 59.8202C122.009 59.7878 121.853 59.7717 121.778 59.7717C121.134 59.7717 120.657 59.9228 120.346 60.225C120.046 60.5272 119.895 61.0183 119.895 61.6983V65.4382H117.063V57.2136Z" fill="#FF1935"/>
<path d="M126.112 60.4354H128.671C128.628 59.7663 128.51 59.2967 128.317 59.0269C128.124 58.7571 127.829 58.6222 127.432 58.6222C126.67 58.6222 126.23 59.2266 126.112 60.4354ZM123.232 61.423V61.2288C123.232 59.9875 123.629 58.9675 124.423 58.1688C125.217 57.3701 126.209 56.9708 127.4 56.9708C128.698 56.9708 129.707 57.3593 130.425 58.1364C131.144 58.9028 131.504 59.9659 131.504 61.3259V61.844H126.096C126.171 63.2687 126.713 63.9811 127.722 63.9811C128.366 63.9811 128.956 63.5439 129.492 62.6697L131.455 63.4468C131.155 64.1268 130.661 64.6719 129.975 65.082C129.299 65.4814 128.516 65.681 127.625 65.681C126.338 65.681 125.281 65.2979 124.455 64.5315C123.639 63.7544 123.232 62.7182 123.232 61.423Z" fill="#FF1935"/>
<path d="M139.267 59.5936H140.78C141.982 59.5936 142.582 59.0215 142.582 57.8774C142.582 56.7441 141.982 56.1775 140.78 56.1775H139.267V59.5936ZM136.177 54.1051H141.327C142.743 54.1051 143.843 54.4397 144.626 55.1089C145.41 55.7781 145.801 56.7009 145.801 57.8774C145.801 59.0755 145.41 60.0091 144.626 60.6783C143.843 61.3367 142.743 61.6659 141.327 61.6659H139.267V65.4382H136.177V54.1051Z" fill="#FF1935"/>
<path d="M145.936 63.8839L147.272 62.5402C148.066 63.5008 148.929 63.9811 149.863 63.9811C150.271 63.9811 150.587 63.9163 150.812 63.7868C151.038 63.6465 151.15 63.4684 151.15 63.2525C151.15 63.0474 151.065 62.8909 150.893 62.783C150.732 62.6643 150.432 62.5617 149.992 62.4754L148.817 62.2487C148.023 62.0976 147.417 61.8008 146.998 61.3583C146.591 60.905 146.387 60.3545 146.387 59.7069C146.387 58.8974 146.714 58.239 147.368 57.7317C148.034 57.2244 148.967 56.9708 150.169 56.9708C150.888 56.9708 151.563 57.1111 152.196 57.3917C152.84 57.6615 153.344 58.0177 153.709 58.4603L152.39 59.7393C151.735 59.0161 151 58.6545 150.185 58.6545C149.82 58.6545 149.541 58.7139 149.348 58.8326C149.155 58.9513 149.058 59.1079 149.058 59.3021C149.058 59.4856 149.128 59.6367 149.267 59.7555C149.407 59.8634 149.648 59.9497 149.992 60.0145L151.166 60.2412C152.164 60.4246 152.878 60.7431 153.307 61.1964C153.747 61.6497 153.967 62.2433 153.967 62.9773C153.967 63.722 153.602 64.3642 152.872 64.9039C152.143 65.422 151.204 65.681 150.056 65.681C149.176 65.681 148.372 65.5245 147.642 65.2115C146.923 64.8985 146.355 64.456 145.936 63.8839Z" fill="#FF1935"/>
<path d="M154.648 61.423V61.2288C154.648 59.9983 155.04 58.9837 155.823 58.185C156.617 57.3755 157.663 56.9708 158.961 56.9708C160.259 56.9708 161.305 57.3755 162.099 58.185C162.883 58.9837 163.274 59.9983 163.274 61.2288V61.423C163.274 62.6535 162.883 63.6681 162.099 64.4668C161.305 65.2763 160.259 65.681 158.961 65.681C157.663 65.681 156.617 65.2763 155.823 64.4668C155.04 63.6681 154.648 62.6535 154.648 61.423ZM160.329 61.4716V61.164C160.329 59.491 159.873 58.6545 158.961 58.6545C158.049 58.6545 157.593 59.491 157.593 61.164V61.4716C157.593 63.1446 158.049 63.9811 158.961 63.9811C159.873 63.9811 160.329 63.1446 160.329 61.4716Z" fill="#FF1935"/>
<path d="M164.337 57.2136H167.169V59.205C167.598 57.7911 168.382 57.0841 169.519 57.0841C169.551 57.0841 169.696 57.1003 169.953 57.1327V59.8526C169.9 59.8526 169.755 59.8418 169.519 59.8202C169.283 59.7878 169.127 59.7717 169.052 59.7717C168.408 59.7717 167.931 59.9228 167.62 60.225C167.319 60.5272 167.169 61.0183 167.169 61.6983V65.4382H164.337V57.2136Z" fill="#FF1935"/>
<path d="M172.306 54.1375H175.026L173.368 56.4365H171.421L172.306 54.1375ZM171.002 57.2136H173.835V65.4382H171.002V57.2136Z" fill="#FF1935"/>
<path d="M179.99 62.4106V61.6821H179.941C179.029 61.7468 178.434 61.8979 178.155 62.1354C177.876 62.3621 177.737 62.6427 177.737 62.9773C177.737 63.2687 177.828 63.5008 178.01 63.6735C178.193 63.8354 178.423 63.9163 178.702 63.9163C179.099 63.9163 179.41 63.7868 179.636 63.5278C179.872 63.2579 179.99 62.8855 179.99 62.4106ZM174.888 63.1554C174.888 62.3459 175.199 61.6929 175.822 61.1964C176.455 60.6891 177.753 60.4031 179.716 60.3383L179.99 60.3221V60.0145C179.99 59.2482 179.646 58.865 178.96 58.865C178.402 58.865 178.026 59.1942 177.833 59.8526L175.323 59.545C175.484 58.7679 175.87 58.1472 176.481 57.6831C177.104 57.2082 177.924 56.9708 178.944 56.9708C181.529 56.9708 182.822 58.1688 182.822 60.565V65.4382H180.054V64.2239C179.593 65.1414 178.767 65.6001 177.576 65.6001C176.793 65.6001 176.149 65.3788 175.645 64.9363C175.14 64.483 174.888 63.8893 174.888 63.1554Z" fill="#FF1935"/>
<path d="M183.576 63.8839L184.912 62.5402C185.706 63.5008 186.569 63.9811 187.503 63.9811C187.911 63.9811 188.227 63.9163 188.452 63.7868C188.678 63.6465 188.79 63.4684 188.79 63.2525C188.79 63.0474 188.704 62.8909 188.533 62.783C188.372 62.6643 188.071 62.5617 187.632 62.4754L186.457 62.2487C185.663 62.0976 185.057 61.8008 184.638 61.3583C184.231 60.905 184.027 60.3545 184.027 59.7069C184.027 58.8974 184.354 58.239 185.008 57.7317C185.674 57.2244 186.607 56.9708 187.809 56.9708C188.527 56.9708 189.203 57.1111 189.836 57.3917C190.48 57.6615 190.984 58.0177 191.349 58.4603L190.029 59.7393C189.375 59.0161 188.64 58.6545 187.825 58.6545C187.46 58.6545 187.181 58.7139 186.988 58.8326C186.795 58.9513 186.698 59.1079 186.698 59.3021C186.698 59.4856 186.768 59.6367 186.907 59.7555C187.047 59.8634 187.288 59.9497 187.632 60.0145L188.806 60.2412C189.804 60.4246 190.518 60.7431 190.947 61.1964C191.387 61.6497 191.607 62.2433 191.607 62.9773C191.607 63.722 191.242 64.3642 190.512 64.9039C189.783 65.422 188.844 65.681 187.696 65.681C186.816 65.681 186.012 65.5245 185.282 65.2115C184.563 64.8985 183.995 64.456 183.576 63.8839Z" fill="#FF1935"/>
<path d="M195.169 60.4354H197.728C197.685 59.7663 197.567 59.2967 197.374 59.0269C197.18 58.7571 196.885 58.6222 196.488 58.6222C195.727 58.6222 195.287 59.2266 195.169 60.4354ZM192.288 61.423V61.2288C192.288 59.9875 192.685 58.9675 193.479 58.1688C194.273 57.3701 195.265 56.9708 196.456 56.9708C197.754 56.9708 198.763 57.3593 199.482 58.1364C200.201 58.9028 200.56 59.9659 200.56 61.3259V61.844H195.153C195.228 63.2687 195.77 63.9811 196.778 63.9811C197.422 63.9811 198.012 63.5439 198.548 62.6697L200.512 63.4468C200.211 64.1268 199.718 64.6719 199.031 65.082C198.355 65.4814 197.572 65.681 196.682 65.681C195.394 65.681 194.337 65.2979 193.511 64.5315C192.696 63.7544 192.288 62.7182 192.288 61.423Z" fill="#FF1935"/>
</svg>
