<svg width="307" height="62" viewBox="0 0 307 62" fill="none" xmlns="http://www.w3.org/2000/svg">
<path d="M0.194322 11.8483V11.7836C0.194322 8.17946 1.06877 5.31989 2.81766 3.20488C4.56656 1.06829 6.99558 0 10.1047 0C13.2139 0 15.6429 1.06829 17.3918 3.20488C19.1407 5.31989 20.0151 8.17946 20.0151 11.7836V11.8483C20.0151 15.4525 19.1407 18.3229 17.3918 20.4594C15.6429 22.5744 13.2139 23.6319 10.1047 23.6319C6.99558 23.6319 4.56656 22.5744 2.81766 20.4594C1.06877 18.3229 0.194322 15.4525 0.194322 11.8483ZM17.2622 11.8483V11.7836C17.2622 8.67584 16.6145 6.30185 15.319 4.66164C14.0451 2.99985 12.307 2.16896 10.1047 2.16896C7.90241 2.16896 6.15352 2.99985 4.85804 4.66164C3.58415 6.30185 2.94721 8.67584 2.94721 11.7836V11.8483C2.94721 14.9561 3.58415 17.3409 4.85804 19.0027C6.15352 20.6429 7.90241 21.463 10.1047 21.463C12.307 21.463 14.0451 20.6429 15.319 19.0027C16.6145 17.3409 17.2622 14.9561 17.2622 11.8483Z" fill="#0F2167"/>
<path d="M33.5797 21.0098H39.1502C42.6264 21.0098 44.3645 19.607 44.3645 16.8013C44.3645 13.9957 42.6264 12.5929 39.1502 12.5929H33.5797V21.0098ZM33.5797 10.4563H39.0531C42.1838 10.4563 43.7492 9.15063 43.7492 6.53925C43.7492 3.92787 42.1838 2.62218 39.0531 2.62218H33.5797V10.4563ZM30.8916 0.485587H39.1178C41.5577 0.485587 43.4037 1.01434 44.656 2.07184C45.9083 3.10776 46.5345 4.51057 46.5345 6.28027C46.5345 7.6615 46.1458 8.80533 45.3685 9.71176C44.5912 10.5966 43.5333 11.1793 42.1946 11.4599C43.8139 11.7404 45.0447 12.3447 45.8867 13.2727C46.7504 14.2008 47.1822 15.377 47.1822 16.8013C47.1822 18.83 46.5021 20.3947 45.1418 21.4954C43.8032 22.596 41.8815 23.1464 39.3769 23.1464H30.8916V0.485587Z" fill="#0F2167"/>
<path d="M50.9398 7.21907H53.4984V23.1464H50.9398V7.21907ZM50.9398 1.03592H53.4984V4.40266H50.9398V1.03592Z" fill="#0F2167"/>
<path d="M57.0883 15.2475V15.118C57.0883 12.5713 57.7792 10.5427 59.1611 9.03194C60.5645 7.49964 62.4429 6.73349 64.7964 6.73349C67.1498 6.73349 69.0283 7.49964 70.4317 9.03194C71.8136 10.5427 72.5045 12.5713 72.5045 15.118V15.2475C72.5045 17.7941 71.8136 19.8228 70.4317 21.3335C69.0283 22.8658 67.1498 23.6319 64.7964 23.6319C62.4429 23.6319 60.5645 22.8658 59.1611 21.3335C57.7792 19.8228 57.0883 17.7941 57.0883 15.2475ZM69.8811 15.2475V15.118C69.8811 13.1109 69.4169 11.5354 68.4885 10.3916C67.5601 9.24775 66.3294 8.67584 64.7964 8.67584C63.2634 8.67584 62.0327 9.24775 61.1043 10.3916C60.1758 11.5354 59.7116 13.1109 59.7116 15.118V15.2475C59.7116 17.2546 60.1758 18.83 61.1043 19.9739C62.0327 21.1177 63.2634 21.6896 64.7964 21.6896C66.3294 21.6896 67.5601 21.1177 68.4885 19.9739C69.4169 18.83 69.8811 17.2546 69.8811 15.2475Z" fill="#0F2167"/>
<path d="M88.5206 15.2475V15.118C88.5206 13.1109 88.0564 11.5354 87.1279 10.3916C86.1995 9.24775 84.9688 8.67584 83.4358 8.67584C82.0756 8.67584 80.8988 9.30171 79.9056 10.5534C78.9124 11.762 78.4158 13.2835 78.4158 15.118V15.2475C78.4158 17.0603 78.9124 18.5926 79.9056 19.8444C80.8988 21.0745 82.0756 21.6896 83.4358 21.6896C84.9688 21.6896 86.1995 21.1177 87.1279 19.9739C88.0564 18.83 88.5206 17.2546 88.5206 15.2475ZM75.9221 7.21907H78.4806V10.424C79.0204 9.30171 79.7977 8.40607 80.8125 7.73704C81.8489 7.068 82.9932 6.73349 84.2455 6.73349C86.3183 6.73349 87.9808 7.55359 89.2331 9.1938C90.507 10.8556 91.1439 12.8303 91.1439 15.118V15.2475C91.1439 17.5351 90.507 19.5098 89.2331 21.1716C87.9808 22.8118 86.3183 23.6319 84.2455 23.6319C82.9932 23.6319 81.8489 23.2974 80.8125 22.6284C79.7977 21.9594 79.0204 21.0637 78.4806 19.9415V29.2971H75.9221V7.21907Z" fill="#0F2167"/>
<path d="M94.7444 0.485587H97.303V23.1464H94.7444V0.485587Z" fill="#0F2167"/>
<path d="M111.451 16.8985V15.0209L109.54 15.0856C106.928 15.1935 105.19 15.6143 104.326 16.3481C103.462 17.0603 103.03 17.902 103.03 18.8732C103.03 19.7365 103.343 20.4271 103.97 20.945C104.617 21.4414 105.438 21.6896 106.431 21.6896C107.921 21.6896 109.13 21.2256 110.058 20.2976C110.987 19.3696 111.451 18.2365 111.451 16.8985ZM100.439 18.8732C100.439 17.4488 101.076 16.2186 102.35 15.1827C103.624 14.1468 105.999 13.5425 109.475 13.3699L111.451 13.2727V12.7224C111.451 10.0247 110.253 8.67584 107.856 8.67584C105.956 8.67584 104.628 9.67939 103.872 11.6865L101.605 11.0067C102.037 9.73334 102.793 8.70821 103.872 7.93127C104.952 7.13275 106.28 6.73349 107.856 6.73349C111.958 6.73349 114.01 9.02114 114.01 13.5965V23.1464H111.516V20.3623C110.954 21.3982 110.188 22.2076 109.216 22.7903C108.245 23.3514 107.165 23.6319 105.978 23.6319C104.466 23.6319 103.16 23.2111 102.059 22.3694C100.979 21.4846 100.439 20.3192 100.439 18.8732Z" fill="#0F2167"/>
<path d="M117.924 7.21907H120.482V10.5211C121.065 9.3125 121.843 8.38449 122.814 7.73704C123.807 7.068 124.898 6.73349 126.085 6.73349C127.964 6.73349 129.346 7.3054 130.231 8.44923C131.116 9.59306 131.559 10.9311 131.559 12.4634V23.1464H129V13.0461C129 11.6002 128.719 10.5319 128.158 9.84125C127.618 9.12905 126.744 8.77295 125.535 8.77295C123.98 8.77295 122.749 9.34487 121.843 10.4887C120.936 11.6325 120.482 13.1432 120.482 15.0209V23.1464H117.924V7.21907Z" fill="#0F2167"/>
<path d="M135.477 7.21907H138.036V10.5211C138.619 9.3125 139.396 8.38449 140.368 7.73704C141.361 7.068 142.451 6.73349 143.639 6.73349C145.517 6.73349 146.899 7.3054 147.784 8.44923C148.67 9.59306 149.112 10.9311 149.112 12.4634V23.1464H146.554V13.0461C146.554 11.6002 146.273 10.5319 145.712 9.84125C145.172 9.12905 144.297 8.77295 143.088 8.77295C141.534 8.77295 140.303 9.34487 139.396 10.4887C138.489 11.6325 138.036 13.1432 138.036 15.0209V23.1464H135.477V7.21907Z" fill="#0F2167"/>
<path d="M155.104 13.6612H164.431C164.172 10.3376 162.682 8.67584 159.962 8.67584C158.688 8.67584 157.608 9.12905 156.723 10.0355C155.859 10.9419 155.319 12.1505 155.104 13.6612ZM152.383 15.2475V15.118C152.383 12.7008 153.052 10.6937 154.391 9.09668C155.708 7.52122 157.565 6.73349 159.962 6.73349C162.272 6.73349 164.032 7.45647 165.241 8.90245C166.471 10.3484 167.087 12.3987 167.087 15.0532V15.5064H155.006C155.05 17.4488 155.535 18.9703 156.464 20.071C157.392 21.1501 158.634 21.6896 160.188 21.6896C162.024 21.6896 163.535 20.5673 164.722 18.3229L166.925 19.1969C166.234 20.7508 165.262 21.8838 164.01 22.596C162.736 23.2866 161.451 23.6319 160.156 23.6319C157.759 23.6319 155.859 22.8658 154.456 21.3335C153.074 19.8228 152.383 17.7941 152.383 15.2475Z" fill="#0F2167"/>
<path d="M170.584 7.21907H173.143V11.039C174.179 8.3629 176.047 7.02484 178.746 7.02484C178.962 7.02484 179.156 7.04642 179.329 7.08958V9.45278C178.983 9.40962 178.681 9.38803 178.422 9.38803C176.803 9.38803 175.518 9.906 174.568 10.9419C173.618 11.9563 173.143 13.4454 173.143 15.4093V23.1464H170.584V7.21907Z" fill="#0F2167"/>
<path d="M197.338 0.679824H200.771L197.111 4.82351H194.973L197.338 0.679824ZM191.476 13.6612H200.803C200.544 10.3376 199.054 8.67584 196.334 8.67584C195.06 8.67584 193.98 9.12905 193.095 10.0355C192.231 10.9419 191.691 12.1505 191.476 13.6612ZM188.755 15.2475V15.118C188.755 12.7008 189.424 10.6937 190.763 9.09668C192.08 7.52122 193.937 6.73349 196.334 6.73349C198.644 6.73349 200.404 7.45647 201.613 8.90245C202.843 10.3484 203.459 12.3987 203.459 15.0532V15.5064H191.378C191.422 17.4488 191.907 18.9703 192.836 20.071C193.764 21.1501 195.006 21.6896 196.56 21.6896C198.396 21.6896 199.907 20.5673 201.094 18.3229L203.297 19.1969C202.606 20.7508 201.634 21.8838 200.382 22.596C199.108 23.2866 197.823 23.6319 196.528 23.6319C194.131 23.6319 192.231 22.8658 190.828 21.3335C189.446 19.8228 188.755 17.7941 188.755 15.2475Z" fill="#0F2167"/>
<path d="M11.0763 47.9179V47.3029C11.0763 43.9577 10.1587 42.2851 8.32344 42.2851C7.48138 42.2851 6.81205 42.706 6.31545 43.5477C5.81885 44.3893 5.57055 45.6411 5.57055 47.3029V47.9179C5.57055 49.6013 5.81885 50.8638 6.31545 51.7055C6.81205 52.5256 7.48138 52.9357 8.32344 52.9357C10.1587 52.9357 11.0763 51.2631 11.0763 47.9179ZM0 39.404H5.7001V41.8967C6.11033 40.9686 6.72569 40.2457 7.54615 39.7277C8.38822 39.1882 9.34903 38.9184 10.4286 38.9184C12.3934 38.9184 13.9804 39.7277 15.1895 41.3463C16.3986 42.9434 17.0031 44.9289 17.0031 47.3029V47.9179C17.0031 50.2919 16.3986 52.299 15.1895 53.9392C13.9804 55.5363 12.3934 56.3348 10.4286 56.3348C9.34903 56.3348 8.38822 56.0758 7.54615 55.5579C6.72569 55.0183 6.11033 54.2845 5.7001 53.3565V62H0V39.404Z" fill="#FF1935"/>
<path d="M28.5278 49.7956V48.3388H28.4307C26.5954 48.4683 25.3971 48.7704 24.8357 49.2452C24.2743 49.6984 23.9937 50.2596 23.9937 50.9286C23.9937 51.5113 24.1772 51.9753 24.5442 52.3206C24.9113 52.6443 25.3755 52.8062 25.9369 52.8062C26.7357 52.8062 27.3619 52.5472 27.8153 52.0293C28.2903 51.4897 28.5278 50.7452 28.5278 49.7956ZM18.2612 51.2847C18.2612 49.6661 18.8873 48.3604 20.1396 47.3676C21.4135 46.3533 24.026 45.7814 27.9772 45.6519L28.5278 45.6195V45.0044C28.5278 43.4721 27.8369 42.706 26.4551 42.706C25.3323 42.706 24.5766 43.3642 24.188 44.6807L19.1356 44.0656C19.4595 42.5117 20.2368 41.2708 21.4675 40.3428C22.7198 39.3932 24.3715 38.9184 26.4227 38.9184C31.6262 38.9184 34.2279 41.314 34.2279 46.1051V55.8492H28.6574V53.4213C27.7289 55.2557 26.0664 56.1729 23.6698 56.1729C22.0936 56.1729 20.7981 55.7305 19.7834 54.8457C18.7686 53.9392 18.2612 52.7522 18.2612 51.2847Z" fill="#FF1935"/>
<path d="M36.8465 39.404H42.5466V43.3858C43.4102 40.5586 44.9864 39.145 47.2751 39.145C47.3398 39.145 47.6313 39.1774 48.1495 39.2421V44.6807C48.0415 44.6807 47.7501 44.6591 47.2751 44.6159C46.8 44.5512 46.487 44.5188 46.3358 44.5188C45.0404 44.5188 44.0795 44.821 43.4534 45.4253C42.8488 46.0296 42.5466 47.0115 42.5466 48.3712V55.8492H36.8465V39.404Z" fill="#FF1935"/>
<path d="M58.8273 49.7956V48.3388H58.7302C56.8949 48.4683 55.6966 48.7704 55.1352 49.2452C54.5738 49.6984 54.2931 50.2596 54.2931 50.9286C54.2931 51.5113 54.4767 51.9753 54.8437 52.3206C55.2108 52.6443 55.675 52.8062 56.2364 52.8062C57.0352 52.8062 57.6614 52.5472 58.1148 52.0293C58.5898 51.4897 58.8273 50.7452 58.8273 49.7956ZM48.5607 51.2847C48.5607 49.6661 49.1868 48.3604 50.4391 47.3676C51.713 46.3533 54.3255 45.7814 58.2767 45.6519L58.8273 45.6195V45.0044C58.8273 43.4721 58.1364 42.706 56.7546 42.706C55.6318 42.706 54.8761 43.3642 54.4875 44.6807L49.4351 44.0656C49.759 42.5117 50.5363 41.2708 51.767 40.3428C53.0193 39.3932 54.671 38.9184 56.7222 38.9184C61.9257 38.9184 64.5274 41.314 64.5274 46.1051V55.8492H58.9569V53.4213C58.0284 55.2557 56.3659 56.1729 53.9693 56.1729C52.3931 56.1729 51.0976 55.7305 50.0828 54.8457C49.0681 53.9392 48.5607 52.7522 48.5607 51.2847Z" fill="#FF1935"/>
<path d="M73.1325 39.404H79.1888L82.1684 51.576L85.1156 39.404H90.2328L85.2452 55.8492H78.0877L73.1325 39.404Z" fill="#FF1935"/>
<path d="M90.4721 47.8208V47.4324C90.4721 44.972 91.2602 42.9434 92.8364 41.3463C94.4341 39.7277 96.5393 38.9184 99.1518 38.9184C101.764 38.9184 103.87 39.7277 105.467 41.3463C107.043 42.9434 107.832 44.972 107.832 47.4324V47.8208C107.832 50.2811 107.043 52.3098 105.467 53.9069C103.87 55.5255 101.764 56.3348 99.1518 56.3348C96.5393 56.3348 94.4341 55.5255 92.8364 53.9069C91.2602 52.3098 90.4721 50.2811 90.4721 47.8208ZM101.905 47.9179V47.3029C101.905 43.9577 100.987 42.2851 99.1518 42.2851C97.3166 42.2851 96.3989 43.9577 96.3989 47.3029V47.9179C96.3989 51.2631 97.3166 52.9357 99.1518 52.9357C100.987 52.9357 101.905 51.2631 101.905 47.9179Z" fill="#FF1935"/>
<path d="M109.322 47.8208V47.4324C109.322 44.9505 110.121 42.911 111.719 41.314C113.317 39.7169 115.379 38.9184 117.905 38.9184C120.15 38.9184 121.964 39.4687 123.346 40.5694C124.728 41.6485 125.548 43.17 125.807 45.1339L120.787 45.7166C120.593 44.5728 120.28 43.7419 119.848 43.2239C119.416 42.706 118.833 42.447 118.099 42.447C116.199 42.447 115.249 44.0656 115.249 47.3029V47.9179C115.249 51.1768 116.199 52.8062 118.099 52.8062C118.876 52.8062 119.481 52.5472 119.913 52.0293C120.345 51.4897 120.669 50.5833 120.884 49.31L125.969 49.8927C125.71 51.9645 124.879 53.5616 123.475 54.6838C122.094 55.7845 120.237 56.3348 117.905 56.3348C115.487 56.3348 113.446 55.5687 111.784 54.0364C110.143 52.4825 109.322 50.4106 109.322 47.8208Z" fill="#FF1935"/>
<path d="M133.407 33.2856H137.973L141.6 37.8177H137.552L135.706 35.8106L133.828 37.8177H129.779L133.407 33.2856ZM133.147 45.8461H138.297C138.211 44.508 137.973 43.5692 137.584 43.0297C137.196 42.4902 136.602 42.2204 135.803 42.2204C134.27 42.2204 133.385 43.429 133.147 45.8461ZM127.35 47.8208V47.4324C127.35 44.9505 128.149 42.911 129.747 41.314C131.345 39.7169 133.342 38.9184 135.738 38.9184C138.351 38.9184 140.381 39.6953 141.827 41.2492C143.274 42.7815 143.997 44.9073 143.997 47.6266V48.6625H133.115C133.266 51.5113 134.357 52.9357 136.386 52.9357C137.682 52.9357 138.869 52.0616 139.949 50.3135L143.9 51.8674C143.295 53.227 142.302 54.3169 140.92 55.137C139.56 55.9355 137.984 56.3348 136.192 56.3348C133.601 56.3348 131.474 55.5687 129.812 54.0364C128.171 52.4825 127.35 50.4106 127.35 47.8208Z" fill="#FF1935"/>
<path d="M163.864 47.9179V47.3029C163.864 45.6411 163.615 44.3893 163.119 43.5477C162.622 42.706 161.953 42.2851 161.111 42.2851C159.276 42.2851 158.358 43.9577 158.358 47.3029V47.9179C158.358 51.2631 159.276 52.9357 161.111 52.9357C161.953 52.9357 162.622 52.5256 163.119 51.7055C163.615 50.8638 163.864 49.6013 163.864 47.9179ZM163.734 62V53.3565C163.324 54.2845 162.698 55.0183 161.856 55.5579C161.035 56.0758 160.085 56.3348 159.006 56.3348C157.041 56.3348 155.454 55.5363 154.245 53.9392C153.036 52.299 152.431 50.2919 152.431 47.9179V47.3029C152.431 44.9289 153.036 42.9434 154.245 41.3463C155.432 39.7277 157.019 38.9184 159.006 38.9184C160.085 38.9184 161.035 39.1882 161.856 39.7277C162.698 40.2457 163.324 40.9686 163.734 41.8967V39.404H169.434V62H163.734Z" fill="#FF1935"/>
<path d="M172.052 50.5078V39.404H177.752V49.6013C177.752 51.2415 178.432 52.0616 179.792 52.0616C180.591 52.0616 181.206 51.7919 181.638 51.2523C182.092 50.7128 182.318 49.9682 182.318 49.0186V39.404H188.019V55.8492H182.318V52.9681C181.325 55.2126 179.663 56.3348 177.331 56.3348C175.582 56.3348 174.265 55.8061 173.38 54.7486C172.494 53.6911 172.052 52.2775 172.052 50.5078Z" fill="#FF1935"/>
<path d="M195.96 45.8461H201.11C201.024 44.508 200.786 43.5692 200.397 43.0297C200.009 42.4902 199.415 42.2204 198.616 42.2204C197.083 42.2204 196.198 43.429 195.96 45.8461ZM190.163 47.8208V47.4324C190.163 44.9505 190.962 42.911 192.56 41.314C194.158 39.7169 196.155 38.9184 198.551 38.9184C201.164 38.9184 203.193 39.6953 204.64 41.2492C206.087 42.7815 206.81 44.9073 206.81 47.6266V48.6625H195.928C196.079 51.5113 197.17 52.9357 199.199 52.9357C200.495 52.9357 201.682 52.0616 202.762 50.3135L206.713 51.8674C206.108 53.227 205.115 54.3169 203.733 55.137C202.373 55.9355 200.797 56.3348 199.005 56.3348C196.414 56.3348 194.287 55.5687 192.625 54.0364C190.984 52.4825 190.163 50.4106 190.163 47.8208Z" fill="#FF1935"/>
<path d="M221.041 45.8461H226.191C226.104 44.508 225.867 43.5692 225.478 43.0297C225.09 42.4902 224.496 42.2204 223.697 42.2204C222.164 42.2204 221.279 43.429 221.041 45.8461ZM215.244 47.8208V47.4324C215.244 44.9505 216.043 42.911 217.641 41.314C219.238 39.7169 221.236 38.9184 223.632 38.9184C226.245 38.9184 228.274 39.6953 229.721 41.2492C231.168 42.7815 231.891 44.9073 231.891 47.6266V48.6625H221.009C221.16 51.5113 222.25 52.9357 224.28 52.9357C225.575 52.9357 226.763 52.0616 227.843 50.3135L231.794 51.8674C231.189 53.227 230.196 54.3169 228.814 55.137C227.454 55.9355 225.878 56.3348 224.086 56.3348C221.495 56.3348 219.368 55.5687 217.705 54.0364C216.064 52.4825 215.244 50.4106 215.244 47.8208Z" fill="#FF1935"/>
<path d="M232.787 52.7415L235.475 50.0545C237.073 51.9753 238.811 52.9357 240.689 52.9357C241.51 52.9357 242.147 52.8062 242.6 52.5472C243.054 52.2667 243.28 51.9106 243.28 51.4789C243.28 51.0689 243.108 50.7559 242.762 50.5401C242.438 50.3027 241.834 50.0977 240.948 49.925L238.584 49.4718C236.986 49.1697 235.766 48.5762 234.924 47.6913C234.104 46.7849 233.694 45.6842 233.694 44.3893C233.694 42.7707 234.352 41.4542 235.669 40.4399C237.008 39.4256 238.886 38.9184 241.305 38.9184C242.751 38.9184 244.111 39.1989 245.385 39.7601C246.681 40.2996 247.696 41.0118 248.43 41.8967L245.774 44.4541C244.457 43.0081 242.978 42.2851 241.337 42.2851C240.603 42.2851 240.042 42.4038 239.653 42.6412C239.264 42.8786 239.07 43.1916 239.07 43.58C239.07 43.9469 239.21 44.2491 239.491 44.4865C239.772 44.7023 240.257 44.8749 240.948 45.0044L243.313 45.4576C245.321 45.8245 246.756 46.4612 247.62 47.3676C248.505 48.274 248.948 49.461 248.948 50.9286C248.948 52.4177 248.214 53.7018 246.746 54.7809C245.277 55.8168 243.388 56.3348 241.078 56.3348C239.307 56.3348 237.688 56.0219 236.22 55.396C234.773 54.7701 233.629 53.8853 232.787 52.7415Z" fill="#FF1935"/>
<path d="M251.978 50.5725V42.965H249.581V39.404H251.978V34.8718H257.678V39.404H261.791V42.965H257.678V50.4754C257.678 51.0581 257.808 51.4681 258.067 51.7055C258.326 51.9429 258.779 52.0616 259.427 52.0616C259.621 52.0616 259.999 52.0401 260.56 51.9969C261.143 51.9321 261.543 51.8998 261.759 51.8998V55.6874C260.247 55.9895 258.887 56.1406 257.678 56.1406C255.562 56.1406 254.083 55.7197 253.241 54.878C252.399 54.0148 251.978 52.5796 251.978 50.5725Z" fill="#FF1935"/>
<path d="M273.327 49.7956V48.3388H273.23C271.395 48.4683 270.197 48.7704 269.635 49.2452C269.074 49.6984 268.793 50.2596 268.793 50.9286C268.793 51.5113 268.977 51.9753 269.344 52.3206C269.711 52.6443 270.175 52.8062 270.737 52.8062C271.535 52.8062 272.162 52.5472 272.615 52.0293C273.09 51.4897 273.327 50.7452 273.327 49.7956ZM263.061 51.2847C263.061 49.6661 263.687 48.3604 264.939 47.3676C266.213 46.3533 268.826 45.7814 272.777 45.6519L273.327 45.6195V45.0044C273.327 43.4721 272.637 42.706 271.255 42.706C270.132 42.706 269.376 43.3642 268.988 44.6807L263.935 44.0656C264.259 42.5117 265.036 41.2708 266.267 40.3428C267.519 39.3932 269.171 38.9184 271.222 38.9184C276.426 38.9184 279.028 41.314 279.028 46.1051V55.8492H273.457V53.4213C272.529 55.2557 270.866 56.1729 268.469 56.1729C266.893 56.1729 265.598 55.7305 264.583 54.8457C263.568 53.9392 263.061 52.7522 263.061 51.2847ZM271.158 33.2532H276.631L273.295 37.8501H269.376L271.158 33.2532Z" fill="#FF1935"/>
<path d="M282.164 50.184H287.897V55.8492H282.164V50.184Z" fill="#FF1935"/>
<path d="M291.716 50.184H297.448V55.8492H291.716V50.184Z" fill="#FF1935"/>
<path d="M301.268 50.184H307V55.8492H301.268V50.184Z" fill="#FF1935"/>
</svg>
