<svg width="297" height="71" viewBox="0 0 297 71" fill="none" xmlns="http://www.w3.org/2000/svg">
<path d="M0.824613 9.79652V9.74298C0.824613 6.79868 1.53674 4.43431 2.961 2.64988C4.36745 0.883292 6.32581 0 8.83606 0C10.6164 0 12.1208 0.481796 13.3492 1.44539C14.5776 2.40898 15.3965 3.86329 15.806 5.80832L13.8032 6.26335C13.1622 3.28335 11.5065 1.79335 8.83606 1.79335C7.14476 1.79335 5.76501 2.47144 4.69681 3.8276C3.62862 5.16592 3.09452 7.13772 3.09452 9.74298V9.79652C3.09452 12.491 3.64642 14.4985 4.75022 15.819C5.85402 17.1038 7.20707 17.7461 8.80936 17.7461C10.109 17.7461 11.2128 17.3447 12.1208 16.5417C13.0287 15.7387 13.6518 14.5877 13.9901 13.0888L15.993 13.5438C15.5835 15.471 14.7289 16.9521 13.4293 17.987C12.1475 19.022 10.6075 19.5395 8.80936 19.5395C6.51274 19.5395 4.6078 18.7097 3.09452 17.0502C1.58125 15.4085 0.824613 12.9906 0.824613 9.79652Z" fill="white"/>
<path d="M17.9808 12.607V12.4999C17.9808 10.3943 18.5505 8.71694 19.6899 7.46784C20.8471 6.20089 22.396 5.56742 24.3365 5.56742C26.2771 5.56742 27.826 6.20089 28.9832 7.46784C30.1226 8.71694 30.6923 10.3943 30.6923 12.4999V12.607C30.6923 14.7126 30.1226 16.39 28.9832 17.6391C27.826 18.906 26.2771 19.5395 24.3365 19.5395C22.396 19.5395 20.8471 18.906 19.6899 17.6391C18.5505 16.39 17.9808 14.7126 17.9808 12.607ZM28.5292 12.607V12.4999C28.5292 10.8404 28.1464 9.53777 27.3809 8.59203C26.6154 7.64628 25.6006 7.1734 24.3365 7.1734C23.0725 7.1734 22.0577 7.64628 21.2922 8.59203C20.5267 9.53777 20.1439 10.8404 20.1439 12.4999V12.607C20.1439 14.2665 20.5267 15.5691 21.2922 16.5149C22.0577 17.4606 23.0725 17.9335 24.3365 17.9335C25.6006 17.9335 26.6154 17.4606 27.3809 16.5149C28.1464 15.5691 28.5292 14.2665 28.5292 12.607Z" fill="white"/>
<path d="M33.5103 5.96892H35.62V8.69909C36.1006 7.69981 36.7416 6.93251 37.5427 6.39718C38.3617 5.84401 39.2607 5.56742 40.2399 5.56742C41.7888 5.56742 42.9282 6.04029 43.6581 6.98604C44.388 7.93179 44.753 9.03813 44.753 10.3051V19.138H42.6433V10.7869C42.6433 9.59131 42.4119 8.70801 41.949 8.137C41.5039 7.54813 40.7829 7.2537 39.7859 7.2537C38.5041 7.2537 37.4893 7.72658 36.7416 8.67233C35.9938 9.61807 35.62 10.8672 35.62 12.4196V19.138H33.5103V5.96892Z" fill="white"/>
<path d="M48.9188 7.54813H46.8358V5.96892H48.9188V4.36293C48.9188 2.98892 49.2481 1.95395 49.9068 1.25802C50.5834 0.544251 51.6604 0.187366 53.1381 0.187366C53.7434 0.187366 54.2686 0.240899 54.7137 0.347964V1.92718C54.2508 1.83796 53.779 1.79335 53.2983 1.79335C52.4972 1.79335 51.9186 1.96287 51.5625 2.30191C51.2065 2.64096 51.0284 3.21197 51.0284 4.01497V5.96892H54.7137V7.54813H51.0284V19.138H48.9188V7.54813Z" fill="white"/>
<path d="M57.1931 5.96892H59.3028V19.138H57.1931V5.96892ZM57.1931 0.856526H59.3028V3.64023H57.1931V0.856526Z" fill="white"/>
<path d="M62.7969 5.96892H64.9066V9.12735C65.7611 6.91466 67.3011 5.80832 69.5265 5.80832C69.7046 5.80832 69.8648 5.82616 70.0072 5.86185V7.8158C69.7224 7.78011 69.4731 7.76227 69.2595 7.76227C67.9242 7.76227 66.865 8.19053 66.0816 9.04706C65.2983 9.88574 64.9066 11.117 64.9066 12.7408V19.138H62.7969V5.96892Z" fill="white"/>
<path d="M79.8354 13.9721V12.4196L78.2598 12.4732C76.1057 12.5624 74.6725 12.9103 73.9604 13.5171C73.2482 14.1059 72.8922 14.8018 72.8922 15.6048C72.8922 16.3186 73.1503 16.8896 73.6666 17.3179C74.2007 17.7283 74.8772 17.9335 75.6962 17.9335C76.9246 17.9335 77.9216 17.5499 78.6871 16.7826C79.4527 16.0153 79.8354 15.0784 79.8354 13.9721ZM70.7558 15.6048C70.7558 14.4271 71.281 13.41 72.3314 12.5535C73.3818 11.6969 75.3401 11.1973 78.2064 11.0545L79.8354 10.9742V10.5192C79.8354 8.28867 78.8474 7.1734 76.8712 7.1734C75.3045 7.1734 74.2096 8.00317 73.5865 9.66268L71.7172 9.10059C72.0732 8.04778 72.6963 7.20017 73.5865 6.55778C74.4767 5.89754 75.5716 5.56742 76.8712 5.56742C80.2538 5.56742 81.9451 7.45891 81.9451 11.2419V19.138H79.8888V16.8361C79.426 17.6926 78.7939 18.3618 77.9928 18.8436C77.1917 19.3075 76.3015 19.5395 75.3223 19.5395C74.0761 19.5395 72.999 19.1915 72.091 18.4956C71.2009 17.764 70.7558 16.8004 70.7558 15.6048Z" fill="white"/>
<path d="M99.0556 13.9721V12.4196L97.48 12.4732C95.3258 12.5624 93.8927 12.9103 93.1805 13.5171C92.4684 14.1059 92.1123 14.8018 92.1123 15.6048C92.1123 16.3186 92.3705 16.8896 92.8868 17.3179C93.4209 17.7283 94.0974 17.9335 94.9164 17.9335C96.1448 17.9335 97.1418 17.5499 97.9073 16.7826C98.6728 16.0153 99.0556 15.0784 99.0556 13.9721ZM89.976 15.6048C89.976 14.4271 90.5012 13.41 91.5515 12.5535C92.6019 11.6969 94.5603 11.1973 97.4266 11.0545L99.0556 10.9742V10.5192C99.0556 8.28867 98.0675 7.1734 96.0914 7.1734C94.5247 7.1734 93.4298 8.00317 92.8067 9.66268L90.9373 9.10059C91.2934 8.04778 91.9165 7.20017 92.8067 6.55778C93.6968 5.89754 94.7917 5.56742 96.0914 5.56742C99.474 5.56742 101.165 7.45891 101.165 11.2419V19.138H99.109V16.8361C98.6461 17.6926 98.0141 18.3618 97.213 18.8436C96.4118 19.3075 95.5217 19.5395 94.5425 19.5395C93.2963 19.5395 92.2192 19.1915 91.3112 18.4956C90.421 17.764 89.976 16.8004 89.976 15.6048Z" fill="white"/>
<path d="M111.813 11.2954H119.504C119.291 8.54742 118.062 7.1734 115.819 7.1734C114.769 7.1734 113.878 7.54814 113.148 8.2976C112.436 9.04706 111.991 10.0463 111.813 11.2954ZM109.57 12.607V12.4999C109.57 10.5014 110.122 8.84185 111.226 7.52137C112.312 6.21874 113.843 5.56742 115.819 5.56742C117.724 5.56742 119.175 6.1652 120.172 7.36077C121.187 8.55634 121.694 10.2515 121.694 12.4464V12.8211H111.733C111.769 14.4271 112.169 15.6851 112.935 16.5952C113.7 17.4874 114.724 17.9335 116.006 17.9335C117.519 17.9335 118.765 17.0056 119.745 15.1498L121.56 15.8725C120.991 17.1573 120.19 18.0941 119.157 18.683C118.107 19.254 117.047 19.5395 115.979 19.5395C114.003 19.5395 112.436 18.906 111.279 17.6391C110.14 16.39 109.57 14.7126 109.57 12.607Z" fill="white"/>
<path d="M127.668 12.259L123.075 5.96892H125.479L128.923 10.8136L132.422 5.96892H134.692L130.072 12.2055L135.146 19.138H132.742L128.843 13.6241L124.864 19.138H122.594L127.668 12.259Z" fill="white"/>
<path d="M147.719 12.607V12.4999C147.719 10.8404 147.336 9.53777 146.57 8.59203C145.805 7.64628 144.79 7.1734 143.526 7.1734C142.404 7.1734 141.434 7.69089 140.615 8.72586C139.796 9.72514 139.387 10.9832 139.387 12.4999V12.607C139.387 14.1059 139.796 15.3729 140.615 16.4078C141.434 17.4249 142.404 17.9335 143.526 17.9335C144.79 17.9335 145.805 17.4606 146.57 16.5149C147.336 15.5691 147.719 14.2665 147.719 12.607ZM137.331 5.96892H139.44V8.61879C139.885 7.69089 140.526 6.95035 141.363 6.39718C142.217 5.84401 143.161 5.56742 144.194 5.56742C145.903 5.56742 147.274 6.2455 148.306 7.60167C149.357 8.97568 149.882 10.6084 149.882 12.4999V12.607C149.882 14.4985 149.357 16.1312 148.306 17.5052C147.274 18.8614 145.903 19.5395 144.194 19.5395C143.161 19.5395 142.217 19.2629 141.363 18.7097C140.526 18.1566 139.885 17.416 139.44 16.4881V24.2236H137.331V5.96892Z" fill="white"/>
<path d="M154.426 11.2954H162.117C161.904 8.54742 160.675 7.1734 158.432 7.1734C157.382 7.1734 156.491 7.54814 155.761 8.2976C155.049 9.04706 154.604 10.0463 154.426 11.2954ZM152.183 12.607V12.4999C152.183 10.5014 152.735 8.84185 153.839 7.52137C154.925 6.21874 156.456 5.56742 158.432 5.56742C160.337 5.56742 161.788 6.1652 162.785 7.36077C163.8 8.55634 164.307 10.2515 164.307 12.4464V12.8211H154.346C154.382 14.4271 154.782 15.6851 155.548 16.5952C156.313 17.4874 157.337 17.9335 158.619 17.9335C160.132 17.9335 161.378 17.0056 162.358 15.1498L164.173 15.8725C163.604 17.1573 162.803 18.0941 161.77 18.683C160.72 19.254 159.66 19.5395 158.592 19.5395C156.616 19.5395 155.049 18.906 153.892 17.6391C152.753 16.39 152.183 14.7126 152.183 12.607Z" fill="white"/>
<path d="M167.191 5.96892H169.301V9.12735C170.155 6.91466 171.695 5.80832 173.92 5.80832C174.099 5.80832 174.259 5.82616 174.401 5.86185V7.8158C174.116 7.78011 173.867 7.76227 173.653 7.76227C172.318 7.76227 171.259 8.19053 170.476 9.04706C169.692 9.88574 169.301 11.117 169.301 12.7408V19.138H167.191V5.96892Z" fill="white"/>
<path d="M177.13 5.96892H179.24V19.138H177.13V5.96892ZM177.13 0.856526H179.24V3.64023H177.13V0.856526Z" fill="white"/>
<path d="M187.274 0.642394H189.25L192.187 3.88113H190.185L188.262 2.03425L186.339 3.88113H184.336L187.274 0.642394ZM184.443 11.2954H192.134C191.92 8.54742 190.692 7.1734 188.449 7.1734C187.398 7.1734 186.508 7.54814 185.778 8.2976C185.066 9.04706 184.621 10.0463 184.443 11.2954ZM182.2 12.607V12.4999C182.2 10.5014 182.752 8.84185 183.856 7.52137C184.942 6.21874 186.473 5.56742 188.449 5.56742C190.354 5.56742 191.805 6.1652 192.802 7.36077C193.816 8.55634 194.324 10.2515 194.324 12.4464V12.8211H184.363C184.399 14.4271 184.799 15.6851 185.565 16.5952C186.33 17.4874 187.354 17.9335 188.636 17.9335C190.149 17.9335 191.395 17.0056 192.374 15.1498L194.19 15.8725C193.621 17.1573 192.819 18.0941 191.787 18.683C190.736 19.254 189.677 19.5395 188.609 19.5395C186.633 19.5395 185.066 18.906 183.909 17.6391C182.77 16.39 182.2 14.7126 182.2 12.607Z" fill="white"/>
<path d="M197.208 5.96892H199.317V8.69909C199.798 7.69981 200.439 6.93251 201.24 6.39718C202.059 5.84401 202.958 5.56742 203.937 5.56742C205.486 5.56742 206.626 6.04029 207.356 6.98604C208.085 7.93179 208.45 9.03813 208.45 10.3051V19.138H206.341V10.7869C206.341 9.59131 206.109 8.70801 205.646 8.137C205.201 7.54813 204.48 7.2537 203.483 7.2537C202.202 7.2537 201.187 7.72658 200.439 8.67233C199.691 9.61807 199.317 10.8672 199.317 12.4196V19.138H197.208V5.96892Z" fill="white"/>
<path d="M211.147 12.607V12.4999C211.147 10.4121 211.717 8.7437 212.857 7.4946C214.014 6.20981 215.536 5.56742 217.423 5.56742C218.847 5.56742 220.04 5.95999 221.001 6.74514C221.963 7.51245 222.586 8.57418 222.871 9.93035L220.948 10.3586C220.396 8.23514 219.221 7.1734 217.423 7.1734C216.159 7.1734 215.153 7.66412 214.405 8.64556C213.676 9.627 213.311 10.9118 213.311 12.4999V12.607C213.311 14.1951 213.676 15.4799 214.405 16.4614C215.153 17.4428 216.159 17.9335 217.423 17.9335C219.257 17.9335 220.467 16.7915 221.055 14.5074L222.978 14.9357C222.212 18.0049 220.361 19.5395 217.423 19.5395C215.589 19.5395 214.085 18.9239 212.91 17.6926C211.735 16.4435 211.147 14.7483 211.147 12.607Z" fill="white"/>
<path d="M225.689 5.96892H227.799V19.138H225.689V5.96892ZM225.689 0.856526H227.799V3.64023H225.689V0.856526Z" fill="white"/>
<path d="M239.465 13.9721V12.4196L237.889 12.4732C235.735 12.5624 234.302 12.9103 233.59 13.5171C232.877 14.1059 232.521 14.8018 232.521 15.6048C232.521 16.3186 232.779 16.8896 233.296 17.3179C233.83 17.7283 234.506 17.9335 235.325 17.9335C236.554 17.9335 237.551 17.5499 238.316 16.7826C239.082 16.0153 239.465 15.0784 239.465 13.9721ZM230.385 15.6048C230.385 14.4271 230.91 13.41 231.961 12.5535C233.011 11.6969 234.969 11.1973 237.836 11.0545L239.465 10.9742V10.5192C239.465 8.28867 238.477 7.1734 236.5 7.1734C234.934 7.1734 233.839 8.00317 233.216 9.66268L231.346 9.10059C231.702 8.04778 232.325 7.20017 233.216 6.55778C234.106 5.89754 235.201 5.56742 236.5 5.56742C239.883 5.56742 241.574 7.45891 241.574 11.2419V19.138H239.518V16.8361C239.055 17.6926 238.423 18.3618 237.622 18.8436C236.821 19.3075 235.931 19.5395 234.951 19.5395C233.705 19.5395 232.628 19.1915 231.72 18.4956C230.83 17.764 230.385 16.8004 230.385 15.6048Z" fill="white"/>
<path d="M7.42718 37.8988V37.4982C7.42718 36.4156 7.26587 35.6002 6.94325 35.0519C6.62064 34.5036 6.18581 34.2294 5.63876 34.2294C4.44649 34.2294 3.85035 35.319 3.85035 37.4982V37.8988C3.85035 40.078 4.44649 41.1676 5.63876 41.1676C6.18581 41.1676 6.62064 40.9005 6.94325 40.3662C7.26587 39.8179 7.42718 38.9955 7.42718 37.8988ZM0 37.8988V37.4982C0 35.9517 0.39275 34.6582 1.17825 33.6178C1.94972 32.5634 2.98069 32.0362 4.27115 32.0362C4.97249 32.0362 5.58967 32.2119 6.12269 32.5634C6.66973 32.9008 7.07651 33.3718 7.34302 33.9763V28.3035H11.0461V43.0656H7.34302V41.4417C7.07651 42.0463 6.66973 42.5243 6.12269 42.8758C5.58967 43.2132 4.97249 43.3819 4.27115 43.3819C2.99472 43.3819 1.96375 42.8617 1.17825 41.8213C0.39275 40.7528 0 39.4453 0 37.8988Z" fill="white"/>
<path d="M16.1971 36.5492H19.5425C19.4864 35.6775 19.3321 35.0659 19.0796 34.7144C18.8272 34.363 18.4414 34.1872 17.9224 34.1872C16.9265 34.1872 16.3514 34.9745 16.1971 36.5492ZM12.431 37.8356V37.5825C12.431 35.9657 12.9499 34.6371 13.9879 33.5967C15.0259 32.5564 16.3234 32.0362 17.8804 32.0362C19.5776 32.0362 20.8961 32.5423 21.8359 33.5546C22.7757 34.5528 23.2456 35.9376 23.2456 37.709V38.3839H16.1761C16.2743 40.2397 16.9826 41.1676 18.3012 41.1676C19.1428 41.1676 19.9142 40.5982 20.6156 39.4594L23.1825 40.4717C22.7897 41.3574 22.1445 42.0674 21.2468 42.6016C20.3631 43.1218 19.3391 43.3819 18.1749 43.3819C16.4917 43.3819 15.1101 42.8828 14.03 41.8846C12.964 40.8723 12.431 39.5227 12.431 37.8356Z" fill="white"/>
<path d="M35.2682 39.122V38.173H35.2051C34.0129 38.2573 33.2344 38.4542 32.8697 38.7635C32.505 39.0587 32.3226 39.4243 32.3226 39.8601C32.3226 40.2397 32.4419 40.542 32.6803 40.7669C32.9188 40.9778 33.2203 41.0832 33.585 41.0832C34.104 41.0832 34.5108 40.9145 34.8054 40.5771C35.114 40.2256 35.2682 39.7406 35.2682 39.122ZM28.5985 40.0921C28.5985 39.0376 29.0053 38.1871 29.8188 37.5403C30.6464 36.8796 32.3437 36.507 34.9106 36.4226L35.2682 36.4015V36.0009C35.2682 35.0027 34.8194 34.5036 33.9217 34.5036C33.1923 34.5036 32.7013 34.9324 32.4489 35.79L29.1666 35.3893C29.377 34.377 29.882 33.5686 30.6815 32.9641C31.495 32.3455 32.5681 32.0362 33.9006 32.0362C37.2811 32.0362 38.9713 33.5967 38.9713 36.7179V43.0656H35.3524V41.4839C34.7493 42.6789 33.6692 43.2765 32.1122 43.2765C31.0883 43.2765 30.2467 42.9883 29.5874 42.4118C28.9281 41.8213 28.5985 41.0481 28.5985 40.0921Z" fill="white"/>
<path d="M40.7776 28.3035H44.4807V43.0656H40.7776V28.3035Z" fill="white"/>
<path d="M53.5377 44.2044C53.5377 43.4733 52.6049 43.1077 50.7393 43.1077C49.5471 43.1077 48.9509 43.4663 48.9509 44.1833C48.9509 44.9706 49.6944 45.3642 51.1812 45.3642C51.9246 45.3642 52.4997 45.2588 52.9065 45.0479C53.3273 44.837 53.5377 44.5558 53.5377 44.2044ZM52.633 35.7267V35.6634C52.633 34.4544 52.114 33.8498 51.076 33.8498C50.052 33.8498 49.5401 34.4544 49.5401 35.6634V35.7267C49.5401 36.9358 50.052 37.5403 51.076 37.5403C52.114 37.5403 52.633 36.9358 52.633 35.7267ZM45.5845 44.4153C45.5845 43.3046 46.2999 42.5946 47.7306 42.2853C47.2817 42.1447 46.9311 41.9268 46.6786 41.6315C46.4401 41.3222 46.3209 40.9708 46.3209 40.5771C46.3209 39.7054 46.9241 39.1079 48.1304 38.7846C46.8118 38.18 46.1526 37.1607 46.1526 35.7267V35.6634C46.1526 34.5809 46.5734 33.7092 47.415 33.0484C48.2706 32.3736 49.491 32.0362 51.076 32.0362C52.4506 32.0362 53.5447 32.2892 54.3583 32.7954C54.5827 31.6144 55.4664 31.0239 57.0093 31.0239H57.1356V33.4491C56.3781 33.4491 55.8241 33.5686 55.4734 33.8076C55.8241 34.3278 55.9994 34.9464 55.9994 35.6634V35.7267C55.9994 36.8233 55.5716 37.709 54.7159 38.3839C53.8743 39.0447 52.661 39.375 51.076 39.375C50.8516 39.375 50.557 39.361 50.1923 39.3329C49.7434 39.4875 49.519 39.6914 49.519 39.9444C49.519 40.2256 49.7575 40.3662 50.2344 40.3662C52.9977 40.3803 54.8001 40.6333 55.6417 41.1254C56.5394 41.6315 56.9883 42.447 56.9883 43.5717C56.9883 44.7105 56.4553 45.6173 55.3892 46.2921C54.3372 46.981 52.8714 47.3255 50.9918 47.3255C49.3086 47.3255 47.9831 47.0724 47.0152 46.5663C46.0614 46.0602 45.5845 45.3432 45.5845 44.4153Z" fill="white"/>
<path d="M57.9706 39.5859V32.3525H61.6737V38.9955C61.6737 40.0639 62.1155 40.5982 62.9992 40.5982C63.5182 40.5982 63.9179 40.4225 64.1985 40.071C64.493 39.7195 64.6403 39.2345 64.6403 38.6159V32.3525H68.3434V43.0656H64.6403V41.1887C63.9951 42.6508 62.915 43.3819 61.4001 43.3819C60.264 43.3819 59.4083 43.0375 58.8332 42.3486C58.2581 41.6597 57.9706 40.7388 57.9706 39.5859Z" fill="white"/>
<path d="M70.1574 32.3525H73.8605V34.2083C74.5057 32.7602 75.5858 32.0362 77.1007 32.0362C78.2369 32.0362 79.0925 32.3806 79.6676 33.0695C80.2427 33.7584 80.5302 34.6793 80.5302 35.8321V43.0656H76.8272V36.4226C76.8272 35.3541 76.3853 34.8199 75.5016 34.8199C74.9827 34.8199 74.5759 34.9956 74.2813 35.3471C74.0008 35.6986 73.8605 36.1836 73.8605 36.8022V43.0656H70.1574V32.3525Z" fill="white"/>
<path d="M81.5237 41.0411L83.2701 39.2907C84.3081 40.542 85.4372 41.1676 86.6575 41.1676C87.1906 41.1676 87.6043 41.0832 87.8989 40.9145C88.1935 40.7318 88.3408 40.4998 88.3408 40.2186C88.3408 39.9515 88.2285 39.7476 88.0041 39.607C87.7937 39.4524 87.401 39.3188 86.8259 39.2063L85.2899 38.9111C84.2519 38.7143 83.4594 38.3276 82.9124 37.7512C82.3794 37.1607 82.1129 36.4437 82.1129 35.6002C82.1129 34.5457 82.5407 33.6881 83.3963 33.0274C84.266 32.3666 85.4863 32.0362 87.0573 32.0362C87.9971 32.0362 88.8808 32.2189 89.7084 32.5845C90.55 32.936 91.2092 33.3999 91.6861 33.9763L89.9608 35.6423C89.1052 34.7004 88.1444 34.2294 87.0783 34.2294C86.6014 34.2294 86.2367 34.3067 85.9843 34.4614C85.7318 34.616 85.6055 34.8199 85.6055 35.073C85.6055 35.312 85.6967 35.5088 85.8791 35.6634C86.0614 35.804 86.377 35.9165 86.8259 36.0009L88.3618 36.2961C89.6663 36.5351 90.5991 36.9498 91.1601 37.5403C91.7352 38.1308 92.0228 38.9041 92.0228 39.8601C92.0228 40.8302 91.5459 41.6667 90.592 42.3696C89.6382 43.0445 88.4109 43.3819 86.91 43.3819C85.7598 43.3819 84.7078 43.178 83.754 42.7703C82.8142 42.3626 82.0708 41.7862 81.5237 41.0411Z" fill="white"/>
<path d="M97.9576 32.3525H101.661V34.1872C102.334 32.7532 103.4 32.0362 104.859 32.0362C105.658 32.0362 106.325 32.24 106.858 32.6478C107.391 33.0414 107.755 33.6038 107.952 34.3349C108.639 32.8024 109.719 32.0362 111.192 32.0362C112.3 32.0362 113.142 32.3806 113.717 33.0695C114.306 33.7444 114.6 34.6652 114.6 35.8321V43.0656H110.897V36.4226C110.897 35.8743 110.792 35.4736 110.582 35.2206C110.385 34.9534 110.063 34.8199 109.614 34.8199C109.165 34.8199 108.807 34.9956 108.541 35.3471C108.274 35.6986 108.141 36.1836 108.141 36.8022V43.0656H104.438V36.4226C104.438 35.3541 104.01 34.8199 103.155 34.8199C102.692 34.8199 102.327 34.9956 102.06 35.3471C101.794 35.6986 101.661 36.1836 101.661 36.8022V43.0656H97.9576V32.3525Z" fill="white"/>
<path d="M121.145 28.3457H124.701L122.533 31.3403H119.988L121.145 28.3457ZM119.672 36.5492H123.017C122.961 35.6775 122.807 35.0659 122.555 34.7144C122.302 34.363 121.916 34.1872 121.397 34.1872C120.401 34.1872 119.826 34.9745 119.672 36.5492ZM115.906 37.8356V37.5825C115.906 35.9657 116.425 34.6371 117.463 33.5967C118.501 32.5564 119.798 32.0362 121.355 32.0362C123.052 32.0362 124.371 32.5423 125.311 33.5546C126.251 34.5528 126.72 35.9376 126.72 37.709V38.3839H119.651C119.749 40.2397 120.458 41.1676 121.776 41.1676C122.618 41.1676 123.389 40.5982 124.09 39.4594L126.657 40.4717C126.265 41.3574 125.619 42.0674 124.722 42.6016C123.838 43.1218 122.814 43.3819 121.65 43.3819C119.967 43.3819 118.585 42.8828 117.505 41.8846C116.439 40.8723 115.906 39.5227 115.906 37.8356Z" fill="white"/>
<path d="M135.106 37.8988V37.4982C135.106 36.4156 134.945 35.6002 134.623 35.0519C134.3 34.5036 133.865 34.2294 133.318 34.2294C132.126 34.2294 131.53 35.319 131.53 37.4982V37.8988C131.53 40.078 132.126 41.1676 133.318 41.1676C133.865 41.1676 134.3 40.9005 134.623 40.3662C134.945 39.8179 135.106 38.9955 135.106 37.8988ZM127.679 37.8988V37.4982C127.679 35.9517 128.072 34.6582 128.858 33.6178C129.629 32.5634 130.66 32.0362 131.95 32.0362C132.652 32.0362 133.269 32.2119 133.802 32.5634C134.349 32.9008 134.756 33.3718 135.022 33.9763V28.3035H138.725V43.0656H135.022V41.4417C134.756 42.0463 134.349 42.5243 133.802 42.8758C133.269 43.2132 132.652 43.3819 131.95 43.3819C130.674 43.3819 129.643 42.8617 128.858 41.8213C128.072 40.7528 127.679 39.4453 127.679 37.8988Z" fill="white"/>
<path d="M140.636 32.3525H144.339V43.0656H140.636V32.3525ZM140.636 28.4089H144.339V31.2559H140.636V28.4089Z" fill="white"/>
<path d="M145.843 37.8356V37.5825C145.843 35.9657 146.362 34.6371 147.4 33.5967C148.438 32.5564 149.777 32.0362 151.419 32.0362C152.877 32.0362 154.056 32.3947 154.953 33.1117C155.851 33.8147 156.384 34.8058 156.552 36.0852L153.291 36.4648C153.165 35.7197 152.961 35.1784 152.681 34.841C152.4 34.5036 152.022 34.3349 151.545 34.3349C150.31 34.3349 149.693 35.3893 149.693 37.4982V37.8988C149.693 40.0218 150.31 41.0832 151.545 41.0832C152.05 41.0832 152.442 40.9145 152.723 40.5771C153.004 40.2256 153.214 39.6351 153.354 38.8057L156.658 39.1853C156.489 40.5349 155.949 41.5753 155.037 42.3064C154.14 43.0234 152.933 43.3819 151.419 43.3819C149.848 43.3819 148.522 42.8828 147.442 41.8846C146.376 40.8723 145.843 39.5227 145.843 37.8356Z" fill="white"/>
<path d="M157.555 37.8356V37.5825C157.555 35.9798 158.067 34.6582 159.091 33.6178C160.129 32.5634 161.496 32.0362 163.193 32.0362C164.891 32.0362 166.258 32.5634 167.296 33.6178C168.32 34.6582 168.832 35.9798 168.832 37.5825V37.8356C168.832 39.4383 168.32 40.7599 167.296 41.8003C166.258 42.8547 164.891 43.3819 163.193 43.3819C161.496 43.3819 160.129 42.8547 159.091 41.8003C158.067 40.7599 157.555 39.4383 157.555 37.8356ZM164.982 37.8988V37.4982C164.982 35.319 164.386 34.2294 163.193 34.2294C162.001 34.2294 161.405 35.319 161.405 37.4982V37.8988C161.405 40.078 162.001 41.1676 163.193 41.1676C164.386 41.1676 164.982 40.078 164.982 37.8988Z" fill="white"/>
<path d="M169.321 41.0411L171.068 39.2907C172.106 40.542 173.235 41.1676 174.455 41.1676C174.988 41.1676 175.402 41.0832 175.696 40.9145C175.991 40.7318 176.138 40.4998 176.138 40.2186C176.138 39.9515 176.026 39.7476 175.802 39.607C175.591 39.4524 175.198 39.3188 174.623 39.2063L173.087 38.9111C172.049 38.7143 171.257 38.3276 170.71 37.7512C170.177 37.1607 169.91 36.4437 169.91 35.6002C169.91 34.5457 170.338 33.6881 171.194 33.0274C172.063 32.3666 173.284 32.0362 174.855 32.0362C175.795 32.0362 176.678 32.2189 177.506 32.5845C178.347 32.936 179.007 33.3999 179.484 33.9763L177.758 35.6423C176.903 34.7004 175.942 34.2294 174.876 34.2294C174.399 34.2294 174.034 34.3067 173.782 34.4614C173.529 34.616 173.403 34.8199 173.403 35.073C173.403 35.312 173.494 35.5088 173.677 35.6634C173.859 35.804 174.174 35.9165 174.623 36.0009L176.159 36.2961C177.464 36.5351 178.397 36.9498 178.958 37.5403C179.533 38.1308 179.82 38.9041 179.82 39.8601C179.82 40.8302 179.343 41.6667 178.39 42.3696C177.436 43.0445 176.208 43.3819 174.708 43.3819C173.557 43.3819 172.505 43.178 171.551 42.7703C170.612 42.3626 169.868 41.7862 169.321 41.0411Z" fill="white"/>
<path d="M189.1 36.5492H192.446C192.39 35.6775 192.235 35.0659 191.983 34.7144C191.73 34.363 191.345 34.1872 190.826 34.1872C189.83 34.1872 189.255 34.9745 189.1 36.5492ZM185.334 37.8356V37.5825C185.334 35.9657 185.853 34.6371 186.891 33.5967C187.929 32.5564 189.227 32.0362 190.784 32.0362C192.481 32.0362 193.799 32.5423 194.739 33.5546C195.679 34.5528 196.149 35.9376 196.149 37.709V38.3839H189.079C189.178 40.2397 189.886 41.1676 191.204 41.1676C192.046 41.1676 192.818 40.5982 193.519 39.4594L196.086 40.4717C195.693 41.3574 195.048 42.0674 194.15 42.6016C193.266 43.1218 192.242 43.3819 191.078 43.3819C189.395 43.3819 188.013 42.8828 186.933 41.8846C185.867 40.8723 185.334 39.5227 185.334 37.8356Z" fill="white"/>
<path d="M209.245 37.8988V37.4982C209.245 35.319 208.648 34.2294 207.456 34.2294C206.909 34.2294 206.474 34.5036 206.152 35.0519C205.829 35.6002 205.668 36.4156 205.668 37.4982V37.8988C205.668 38.9955 205.829 39.8179 206.152 40.3662C206.474 40.9005 206.909 41.1676 207.456 41.1676C208.648 41.1676 209.245 40.078 209.245 37.8988ZM202.049 32.3525H205.752V33.9763C206.018 33.3718 206.418 32.9008 206.951 32.5634C207.498 32.2119 208.122 32.0362 208.824 32.0362C210.1 32.0362 211.131 32.5634 211.917 33.6178C212.702 34.6582 213.095 35.9517 213.095 37.4982V37.8988C213.095 39.4453 212.702 40.7528 211.917 41.8213C211.131 42.8617 210.1 43.3819 208.824 43.3819C208.122 43.3819 207.498 43.2132 206.951 42.8758C206.418 42.5243 206.018 42.0463 205.752 41.4417V47.0724H202.049V32.3525Z" fill="white"/>
<path d="M220.582 39.122V38.173H220.519C219.327 38.2573 218.548 38.4542 218.183 38.7635C217.819 39.0587 217.636 39.4243 217.636 39.8601C217.636 40.2397 217.756 40.542 217.994 40.7669C218.232 40.9778 218.534 41.0832 218.899 41.0832C219.418 41.0832 219.825 40.9145 220.119 40.5771C220.428 40.2256 220.582 39.7406 220.582 39.122ZM213.912 40.0921C213.912 39.0376 214.319 38.1871 215.133 37.5403C215.96 36.8796 217.657 36.507 220.224 36.4226L220.582 36.4015V36.0009C220.582 35.0027 220.133 34.5036 219.235 34.5036C218.506 34.5036 218.015 34.9324 217.763 35.79L214.48 35.3893C214.691 34.377 215.196 33.5686 215.995 32.9641C216.809 32.3455 217.882 32.0362 219.214 32.0362C222.595 32.0362 224.285 33.5967 224.285 36.7179V43.0656H220.666V41.4839C220.063 42.6789 218.983 43.2765 217.426 43.2765C216.402 43.2765 215.56 42.9883 214.901 42.4118C214.242 41.8213 213.912 41.0481 213.912 40.0921Z" fill="white"/>
<path d="M225.565 37.8356V37.5825C225.565 35.9657 226.084 34.6371 227.122 33.5967C228.16 32.5564 229.5 32.0362 231.141 32.0362C232.6 32.0362 233.778 32.3947 234.676 33.1117C235.573 33.8147 236.106 34.8058 236.275 36.0852L233.014 36.4648C232.887 35.7197 232.684 35.1784 232.403 34.841C232.123 34.5036 231.744 34.3349 231.267 34.3349C230.033 34.3349 229.416 35.3893 229.416 37.4982V37.8988C229.416 40.0218 230.033 41.0832 231.267 41.0832C231.772 41.0832 232.165 40.9145 232.446 40.5771C232.726 40.2256 232.936 39.6351 233.077 38.8057L236.38 39.1853C236.212 40.5349 235.672 41.5753 234.76 42.3064C233.862 43.0234 232.656 43.3819 231.141 43.3819C229.57 43.3819 228.244 42.8828 227.164 41.8846C226.098 40.8723 225.565 39.5227 225.565 37.8356Z" fill="white"/>
<path d="M237.824 32.3525H241.527V43.0656H237.824V32.3525ZM237.824 28.4089H241.527V31.2559H237.824V28.4089Z" fill="white"/>
<path d="M246.797 36.5492H250.142C250.086 35.6775 249.932 35.0659 249.679 34.7144C249.427 34.363 249.041 34.1872 248.522 34.1872C247.526 34.1872 246.951 34.9745 246.797 36.5492ZM243.03 37.8356V37.5825C243.03 35.9657 243.549 34.6371 244.587 33.5967C245.625 32.5564 246.923 32.0362 248.48 32.0362C250.177 32.0362 251.496 32.5423 252.435 33.5546C253.375 34.5528 253.845 35.9376 253.845 37.709V38.3839H246.775C246.874 40.2397 247.582 41.1676 248.901 41.1676C249.742 41.1676 250.514 40.5982 251.215 39.4594L253.782 40.4717C253.389 41.3574 252.744 42.0674 251.846 42.6016C250.962 43.1218 249.939 43.3819 248.774 43.3819C247.091 43.3819 245.709 42.8828 244.629 41.8846C243.563 40.8723 243.03 39.5227 243.03 37.8356Z" fill="white"/>
<path d="M255.225 32.3525H258.928V34.2083C259.573 32.7602 260.653 32.0362 262.168 32.0362C263.304 32.0362 264.16 32.3806 264.735 33.0695C265.31 33.7584 265.597 34.6793 265.597 35.8321V43.0656H261.894V36.4226C261.894 35.3541 261.452 34.8199 260.569 34.8199C260.05 34.8199 259.643 34.9956 259.348 35.3471C259.068 35.6986 258.928 36.1836 258.928 36.8022V43.0656H255.225V32.3525Z" fill="white"/>
<path d="M268.045 39.6281V34.6723H266.488V32.3525H268.045V29.4001H271.748V32.3525H274.42V34.6723H271.748V39.5648C271.748 39.9444 271.832 40.2116 272.001 40.3662C272.169 40.5209 272.464 40.5982 272.884 40.5982C273.011 40.5982 273.256 40.5841 273.621 40.556C274 40.5138 274.259 40.4928 274.399 40.4928V42.9601C273.417 43.157 272.534 43.2554 271.748 43.2554C270.374 43.2554 269.413 42.9812 268.866 42.4329C268.319 41.8705 268.045 40.9356 268.045 39.6281Z" fill="white"/>
<path d="M278.87 36.5492H282.216C282.16 35.6775 282.005 35.0659 281.753 34.7144C281.5 34.363 281.115 34.1872 280.596 34.1872C279.6 34.1872 279.025 34.9745 278.87 36.5492ZM275.104 37.8356V37.5825C275.104 35.9657 275.623 34.6371 276.661 33.5967C277.699 32.5564 278.997 32.0362 280.554 32.0362C282.251 32.0362 283.569 32.5423 284.509 33.5546C285.449 34.5528 285.919 35.9376 285.919 37.709V38.3839H278.849C278.948 40.2397 279.656 41.1676 280.974 41.1676C281.816 41.1676 282.588 40.5982 283.289 39.4594L285.856 40.4717C285.463 41.3574 284.818 42.0674 283.92 42.6016C283.036 43.1218 282.012 43.3819 280.848 43.3819C279.165 43.3819 277.783 42.8828 276.703 41.8846C275.637 40.8723 275.104 39.5227 275.104 37.8356Z" fill="white"/>
<path d="M286.501 41.0411L288.247 39.2907C289.285 40.542 290.414 41.1676 291.635 41.1676C292.168 41.1676 292.582 41.0832 292.876 40.9145C293.171 40.7318 293.318 40.4998 293.318 40.2186C293.318 39.9515 293.206 39.7476 292.981 39.607C292.771 39.4524 292.378 39.3188 291.803 39.2063L290.267 38.9111C289.229 38.7143 288.437 38.3276 287.89 37.7512C287.357 37.1607 287.09 36.4437 287.09 35.6002C287.09 34.5457 287.518 33.6881 288.374 33.0274C289.243 32.3666 290.464 32.0362 292.035 32.0362C292.974 32.0362 293.858 32.2189 294.686 32.5845C295.527 32.936 296.186 33.3999 296.663 33.9763L294.938 35.6423C294.082 34.7004 293.122 34.2294 292.056 34.2294C291.579 34.2294 291.214 34.3067 290.961 34.4614C290.709 34.616 290.583 34.8199 290.583 35.073C290.583 35.312 290.674 35.5088 290.856 35.6634C291.039 35.804 291.354 35.9165 291.803 36.0009L293.339 36.2961C294.644 36.5351 295.576 36.9498 296.137 37.5403C296.712 38.1308 297 38.9041 297 39.8601C297 40.8302 296.523 41.6667 295.569 42.3696C294.615 43.0445 293.388 43.3819 291.887 43.3819C290.737 43.3819 289.685 43.178 288.731 42.7703C287.791 42.3626 287.048 41.7862 286.501 41.0411Z" fill="white"/>
<path d="M0 61.7631V61.5101C0 59.8933 0.518991 58.5647 1.55697 57.5243C2.59495 56.4839 3.93451 55.9638 5.57564 55.9638C7.03443 55.9638 8.21268 56.3223 9.11039 57.0393C10.0081 57.7422 10.5411 58.7334 10.7094 60.0128L7.44822 60.3924C7.32198 59.6472 7.11859 59.106 6.83805 58.7686C6.55752 58.4311 6.1788 58.2624 5.70188 58.2624C4.46753 58.2624 3.85035 59.3169 3.85035 61.4257V61.8264C3.85035 63.9493 4.46753 65.0108 5.70188 65.0108C6.20685 65.0108 6.5996 64.8421 6.88013 64.5047C7.16067 64.1532 7.37107 63.5627 7.51134 62.7332L10.8146 63.1128C10.6463 64.4625 10.1063 65.5029 9.19455 66.234C8.29684 66.951 7.09054 67.3095 5.57564 67.3095C4.00464 67.3095 2.67911 66.8104 1.59905 65.8122C0.533017 64.7999 0 63.4502 0 61.7631Z" fill="white"/>
<path d="M11.7118 61.7631V61.5101C11.7118 59.9073 12.2238 58.5858 13.2477 57.5454C14.2857 56.491 15.6533 55.9638 17.3506 55.9638C19.0478 55.9638 20.4154 56.491 21.4534 57.5454C22.4774 58.5858 22.9893 59.9073 22.9893 61.5101V61.7631C22.9893 63.3659 22.4774 64.6874 21.4534 65.7278C20.4154 66.7823 19.0478 67.3095 17.3506 67.3095C15.6533 67.3095 14.2857 66.7823 13.2477 65.7278C12.2238 64.6874 11.7118 63.3659 11.7118 61.7631ZM19.139 61.8264V61.4257C19.139 59.2466 18.5429 58.157 17.3506 58.157C16.1583 58.157 15.5622 59.2466 15.5622 61.4257V61.8264C15.5622 64.0056 16.1583 65.0952 17.3506 65.0952C18.5429 65.0952 19.139 64.0056 19.139 61.8264Z" fill="white"/>
<path d="M24.3786 56.2801H28.0817V58.1148C28.755 56.6808 29.821 55.9638 31.2798 55.9638C32.0793 55.9638 32.7456 56.1676 33.2786 56.5753C33.8117 56.969 34.1763 57.5313 34.3727 58.2624C35.06 56.73 36.1401 55.9638 37.6129 55.9638C38.721 55.9638 39.5626 56.3082 40.1377 56.9971C40.7269 57.6719 41.0214 58.5928 41.0214 59.7597V66.9931H37.3184V60.3502C37.3184 59.8019 37.2132 59.4012 37.0027 59.1481C36.8064 58.881 36.4838 58.7475 36.0349 58.7475C35.586 58.7475 35.2284 58.9232 34.9618 59.2747C34.6953 59.6262 34.5621 60.1112 34.5621 60.7298V66.9931H30.859V60.3502C30.859 59.2817 30.4312 58.7475 29.5756 58.7475C29.1127 58.7475 28.748 58.9232 28.4815 59.2747C28.215 59.6262 28.0817 60.1112 28.0817 60.7298V66.9931H24.3786V56.2801Z" fill="white"/>
<path d="M46.8472 61.7631V61.5101C46.8472 59.9073 47.3592 58.5858 48.3832 57.5454C49.4212 56.491 50.7888 55.9638 52.486 55.9638C54.1833 55.9638 55.5509 56.491 56.5888 57.5454C57.6128 58.5858 58.1248 59.9073 58.1248 61.5101V61.7631C58.1248 63.3659 57.6128 64.6874 56.5888 65.7278C55.5509 66.7823 54.1833 67.3095 52.486 67.3095C50.7888 67.3095 49.4212 66.7823 48.3832 65.7278C47.3592 64.6874 46.8472 63.3659 46.8472 61.7631ZM54.2744 61.8264V61.4257C54.2744 59.2466 53.6783 58.157 52.486 58.157C51.2937 58.157 50.6976 59.2466 50.6976 61.4257V61.8264C50.6976 64.0056 51.2937 65.0952 52.486 65.0952C53.6783 65.0952 54.2744 64.0056 54.2744 61.8264Z" fill="white"/>
<path d="M68.2845 64.5258H70.3675C71.125 64.5258 71.679 64.3782 72.0297 64.0829C72.3944 63.7736 72.5767 63.2815 72.5767 62.6067C72.5767 61.9319 72.3944 61.4468 72.0297 61.1516C71.679 60.8423 71.125 60.6876 70.3675 60.6876H68.2845V64.5258ZM68.2845 58.2413H70.2413C71.5598 58.2413 72.2191 57.6508 72.2191 56.4699C72.2191 55.2889 71.5598 54.6984 70.2413 54.6984H68.2845V58.2413ZM64.2448 52.231H71.4195C73.0747 52.231 74.309 52.5755 75.1226 53.2644C75.9361 53.9533 76.3429 54.8742 76.3429 56.027C76.3429 56.8565 76.0624 57.5806 75.5013 58.1992C74.9402 58.8037 74.1477 59.2114 73.1238 59.4223C74.3441 59.577 75.2559 59.9776 75.859 60.6244C76.4622 61.257 76.7637 62.0584 76.7637 63.0285C76.7637 64.2797 76.2868 65.2568 75.333 65.9598C74.3792 66.6487 73.0607 66.9931 71.3774 66.9931H64.2448V52.231Z" fill="white"/>
<path d="M78.2965 56.2801H81.9996V66.9931H78.2965V56.2801ZM78.2965 52.3365H81.9996V55.1835H78.2965V52.3365Z" fill="white"/>
<path d="M83.5032 61.7631V61.5101C83.5032 59.9073 84.0151 58.5858 85.0391 57.5454C86.0771 56.491 87.4447 55.9638 89.1419 55.9638C90.8392 55.9638 92.2068 56.491 93.2448 57.5454C94.2687 58.5858 94.7807 59.9073 94.7807 61.5101V61.7631C94.7807 63.3659 94.2687 64.6874 93.2448 65.7278C92.2068 66.7823 90.8392 67.3095 89.1419 67.3095C87.4447 67.3095 86.0771 66.7823 85.0391 65.7278C84.0151 64.6874 83.5032 63.3659 83.5032 61.7631ZM90.9303 61.8264V61.4257C90.9303 59.2466 90.3342 58.157 89.1419 58.157C87.9496 58.157 87.3535 59.2466 87.3535 61.4257V61.8264C87.3535 64.0056 87.9496 65.0952 89.1419 65.0952C90.3342 65.0952 90.9303 64.0056 90.9303 61.8264Z" fill="white"/>
<path d="M103.366 61.8264V61.4257C103.366 59.2466 102.77 58.157 101.577 58.157C101.03 58.157 100.595 58.4311 100.273 58.9794C99.9502 59.5277 99.7889 60.3432 99.7889 61.4257V61.8264C99.7889 62.923 99.9502 63.7455 100.273 64.2938C100.595 64.828 101.03 65.0952 101.577 65.0952C102.77 65.0952 103.366 64.0056 103.366 61.8264ZM96.17 56.2801H99.8731V57.9039C100.14 57.2994 100.539 56.8284 101.072 56.491C101.619 56.1395 102.244 55.9638 102.945 55.9638C104.221 55.9638 105.252 56.491 106.038 57.5454C106.823 58.5858 107.216 59.8792 107.216 61.4257V61.8264C107.216 63.3729 106.823 64.6804 106.038 65.7489C105.252 66.7893 104.221 67.3095 102.945 67.3095C102.244 67.3095 101.619 67.1408 101.072 66.8033C100.539 66.4519 100.14 65.9739 99.8731 65.3693V71H96.17V56.2801Z" fill="white"/>
<path d="M108.706 52.231H112.409V66.9931H108.706V52.231Z" fill="white"/>
<path d="M120.456 63.0496V62.1006H120.393C119.201 62.1849 118.422 62.3817 118.058 62.691C117.693 62.9863 117.511 63.3518 117.511 63.7877C117.511 64.1673 117.63 64.4695 117.868 64.6945C118.107 64.9054 118.408 65.0108 118.773 65.0108C119.292 65.0108 119.699 64.8421 119.993 64.5047C120.302 64.1532 120.456 63.6682 120.456 63.0496ZM113.787 64.0196C113.787 62.9652 114.193 62.1146 115.007 61.4679C115.834 60.8071 117.532 60.4346 120.099 60.3502L120.456 60.3291V59.9284C120.456 58.9302 120.007 58.4311 119.11 58.4311C118.38 58.4311 117.889 58.8599 117.637 59.7175L114.355 59.3169C114.565 58.3046 115.07 57.4962 115.87 56.8917C116.683 56.2731 117.756 55.9638 119.089 55.9638C122.469 55.9638 124.159 57.5243 124.159 60.6454V66.9931H120.54V65.4115C119.937 66.6065 118.857 67.204 117.3 67.204C116.276 67.204 115.435 66.9158 114.775 66.3394C114.116 65.7489 113.787 64.9757 113.787 64.0196Z" fill="white"/>
<path d="M125.86 56.2801H129.564V58.1359C130.209 56.6878 131.289 55.9638 132.804 55.9638C133.94 55.9638 134.796 56.3082 135.371 56.9971C135.946 57.686 136.233 58.6069 136.233 59.7597V66.9931H132.53V60.3502C132.53 59.2817 132.088 58.7475 131.205 58.7475C130.686 58.7475 130.279 58.9232 129.984 59.2747C129.704 59.6262 129.564 60.1112 129.564 60.7298V66.9931H125.86V56.2801Z" fill="white"/>
<path d="M137.942 56.2801H141.645V58.1359C142.29 56.6878 143.37 55.9638 144.885 55.9638C146.022 55.9638 146.877 56.3082 147.452 56.9971C148.027 57.686 148.315 58.6069 148.315 59.7597V66.9931H144.612V60.3502C144.612 59.2817 144.17 58.7475 143.286 58.7475C142.767 58.7475 142.361 58.9232 142.066 59.2747C141.785 59.6262 141.645 60.1112 141.645 60.7298V66.9931H137.942V56.2801Z" fill="white"/>
<path d="M153.369 60.4767H156.715C156.658 59.6051 156.504 58.9935 156.252 58.642C155.999 58.2905 155.613 58.1148 155.094 58.1148C154.099 58.1148 153.523 58.9021 153.369 60.4767ZM149.603 61.7631V61.5101C149.603 59.8933 150.122 58.5647 151.16 57.5243C152.198 56.4839 153.495 55.9638 155.052 55.9638C156.75 55.9638 158.068 56.4699 159.008 57.4821C159.948 58.4803 160.418 59.8652 160.418 61.6366V62.3115H153.348C153.446 64.1673 154.155 65.0952 155.473 65.0952C156.315 65.0952 157.086 64.5258 157.788 63.387L160.354 64.3992C159.962 65.285 159.317 65.9949 158.419 66.5292C157.535 67.0494 156.511 67.3095 155.347 67.3095C153.664 67.3095 152.282 66.8104 151.202 65.8122C150.136 64.7999 149.603 63.4502 149.603 61.7631Z" fill="white"/>
<path d="M161.797 56.2801H165.5V58.874C166.061 57.0322 167.085 56.1114 168.572 56.1114C168.614 56.1114 168.804 56.1325 169.14 56.1746V59.7175C169.07 59.7175 168.881 59.7035 168.572 59.6754C168.264 59.6332 168.06 59.6121 167.962 59.6121C167.12 59.6121 166.496 59.8089 166.089 60.2026C165.697 60.5962 165.5 61.2359 165.5 62.1217V66.9931H161.797V56.2801Z" fill="white"/>
</svg>
