<svg width="134" height="83" viewBox="0 0 134 83" fill="none" xmlns="http://www.w3.org/2000/svg">
<g filter="url(#filter0_d_81_1257)">
<path d="M4 16.8449C4 7.54173 11.5456 0 20.8535 0H113.146C122.454 0 130 7.54173 130 16.8449V58.1551C130 67.4583 122.454 75 113.146 75H20.8535C11.5456 75 4 67.4583 4 58.1551V16.8449Z" fill="#FEFEFE"/>
<path d="M24.1648 22.5529H19.3351V19.362H24.1648V14.3711H27.5756V19.362H32.4054V22.5529H27.5756V27.5166H24.1648V22.5529Z" fill="#FF1935"/>
<path d="M34.603 24.3529L39.3509 23.7802C39.5692 26.1257 40.4787 27.2984 42.0796 27.2984C42.7708 27.2984 43.3256 27.0802 43.744 26.6439C44.1624 26.1893 44.3716 25.5711 44.3716 24.7893C44.3716 23.9529 44.1715 23.3529 43.7713 22.9893C43.3711 22.6075 42.6708 22.4166 41.6702 22.4166H39.8148V19.2257H41.5338C43.2074 19.2257 44.0442 18.4438 44.0442 16.8802C44.0442 16.2075 43.8714 15.6802 43.5257 15.2984C43.1801 14.8984 42.6799 14.6984 42.025 14.6984C40.6606 14.6984 39.833 15.7166 39.5419 17.7529L34.9305 17.2075C35.1487 15.5348 35.84 14.1711 37.0042 13.1166C38.1867 12.0438 39.8784 11.5075 42.0796 11.5075C44.499 11.5075 46.2908 12.0075 47.455 13.0075C48.6556 13.9893 49.2559 15.1711 49.2559 16.5529C49.2559 18.6257 48.119 19.9802 45.8451 20.6166C48.3919 21.2529 49.6652 22.6984 49.6652 24.9529C49.6652 26.5711 48.9831 27.8984 47.6187 28.9348C46.2726 29.9711 44.4444 30.4893 42.1341 30.4893C39.842 30.4893 38.0502 29.9711 36.7587 28.9348C35.4853 27.8984 34.7667 26.3711 34.603 24.3529Z" fill="#FF1935"/>
<path d="M50.7036 21.1348V20.862C50.7036 17.9529 51.4404 15.6711 52.9138 14.0166C54.3873 12.3438 56.3792 11.5075 58.8896 11.5075C61.4182 11.5075 63.4192 12.3438 64.8927 14.0166C66.3661 15.6711 67.1029 17.9529 67.1029 20.862V21.1348C67.1029 24.0439 66.3661 26.3257 64.8927 27.9802C63.4192 29.6529 61.4182 30.4893 58.8896 30.4893C56.3792 30.4893 54.3873 29.6529 52.9138 27.9802C51.4404 26.3257 50.7036 24.0439 50.7036 21.1348ZM61.8911 21.1348V20.862C61.8911 18.5711 61.6183 16.9711 61.0725 16.062C60.5268 15.1529 59.7992 14.6984 58.8896 14.6984C58.0164 14.6984 57.2888 15.1529 56.7067 16.062C56.1609 16.9711 55.8881 18.5711 55.8881 20.862V21.1348C55.8881 23.462 56.1609 25.0711 56.7067 25.962C57.2706 26.8529 57.9982 27.2984 58.8896 27.2984C59.7992 27.2984 60.5268 26.8529 61.0725 25.962C61.6183 25.0711 61.8911 23.462 61.8911 21.1348Z" fill="#FF1935"/>
<path d="M68.6371 21.1348V20.862C68.6371 17.9529 69.3739 15.6711 70.8473 14.0166C72.3208 12.3438 74.3127 11.5075 76.8231 11.5075C79.3517 11.5075 81.3527 12.3438 82.8262 14.0166C84.2996 15.6711 85.0364 17.9529 85.0364 20.862V21.1348C85.0364 24.0439 84.2996 26.3257 82.8262 27.9802C81.3527 29.6529 79.3517 30.4893 76.8231 30.4893C74.3127 30.4893 72.3208 29.6529 70.8473 27.9802C69.3739 26.3257 68.6371 24.0439 68.6371 21.1348ZM79.8246 21.1348V20.862C79.8246 18.5711 79.5518 16.9711 79.006 16.062C78.4603 15.1529 77.7327 14.6984 76.8231 14.6984C75.9499 14.6984 75.2223 15.1529 74.6402 16.062C74.0944 16.9711 73.8216 18.5711 73.8216 20.862V21.1348C73.8216 23.462 74.0944 25.0711 74.6402 25.962C75.2041 26.8529 75.9317 27.2984 76.8231 27.2984C77.7327 27.2984 78.4603 26.8529 79.006 25.962C79.5518 25.0711 79.8246 23.462 79.8246 21.1348Z" fill="#FF1935"/>
<path d="M23.2419 42.5904V42.539C23.2419 41.8289 23.0407 41.2257 22.6384 40.7294C22.2446 40.2332 21.7823 39.985 21.2516 39.985C20.6438 39.985 20.1558 40.2118 19.7877 40.6652C19.4196 41.1187 19.2356 41.7433 19.2356 42.539V42.5904C19.2356 43.3861 19.4196 44.0107 19.7877 44.4642C20.1558 44.9176 20.6438 45.1444 21.2516 45.1444C21.7738 45.1444 22.236 44.9005 22.6384 44.4128C23.0407 43.908 23.2419 43.3005 23.2419 42.5904ZM18.1955 42.5904V42.539C18.1955 41.6235 18.4437 40.8406 18.9402 40.1904C19.4367 39.5401 20.1002 39.215 20.9305 39.215C21.4271 39.215 21.8765 39.3476 22.2788 39.6128C22.6897 39.8781 23.0022 40.2332 23.2162 40.6781V36.738H24.2306V45.7219H23.2162V44.4513C23.0022 44.8963 22.6897 45.2513 22.2788 45.5166C21.8765 45.7818 21.4271 45.9144 20.9305 45.9144C20.1002 45.9144 19.4367 45.5893 18.9402 44.939C18.4437 44.2888 18.1955 43.5059 18.1955 42.5904Z" fill="#0F2167"/>
<path d="M26.6726 41.9615H30.3707C30.268 40.6439 29.6773 39.985 28.5987 39.985C28.0936 39.985 27.6656 40.1647 27.3146 40.5241C26.9722 40.8834 26.7582 41.3626 26.6726 41.9615ZM25.594 42.5904V42.539C25.594 41.5808 25.8593 40.785 26.3901 40.1519C26.9123 39.5273 27.6485 39.215 28.5987 39.215C29.5147 39.215 30.2123 39.5016 30.6917 40.0749C31.1797 40.6481 31.4237 41.461 31.4237 42.5134V42.693H26.6341C26.6512 43.4631 26.8438 44.0663 27.2119 44.5027C27.58 44.9305 28.0722 45.1444 28.6886 45.1444C29.4162 45.1444 30.0155 44.6995 30.4863 43.8096L31.3595 44.1562C31.0855 44.7722 30.7003 45.2214 30.2038 45.5037C29.6987 45.7775 29.1894 45.9144 28.6757 45.9144C27.7255 45.9144 26.9722 45.6107 26.4158 45.0032C25.8679 44.4043 25.594 43.6 25.594 42.5904Z" fill="#0F2167"/>
<path d="M32.8104 39.4075H33.8248V40.9219C34.2357 39.861 34.9762 39.3305 36.0462 39.3305C36.1318 39.3305 36.2089 39.339 36.2774 39.3561V40.293C36.1404 40.2759 36.0206 40.2674 35.9178 40.2674C35.2758 40.2674 34.7664 40.4727 34.3898 40.8834C34.0131 41.2856 33.8248 41.8759 33.8248 42.6545V45.7219H32.8104V39.4075Z" fill="#0F2167"/>
<path d="M37.5253 39.4075H38.5397V40.7037C38.7709 40.216 39.0705 39.8481 39.4386 39.6C39.8067 39.3433 40.1919 39.215 40.5943 39.215C41.1336 39.215 41.5787 39.3604 41.9297 39.6513C42.2893 39.9422 42.5247 40.3273 42.636 40.8064C42.8585 40.3102 43.1624 39.9209 43.5476 39.6385C43.9329 39.3562 44.3395 39.215 44.7675 39.215C45.5037 39.215 46.0473 39.4417 46.3983 39.8952C46.7407 40.3401 46.9119 40.8706 46.9119 41.4866V45.7219H45.8975V41.7176C45.8975 41.1529 45.7905 40.7294 45.5765 40.4471C45.3625 40.1647 45.0072 40.0235 44.5107 40.0235C44.0056 40.0235 43.5819 40.2588 43.2395 40.7294C42.897 41.1829 42.7258 41.7733 42.7258 42.5005V45.7219H41.7114V41.7176C41.7114 41.1529 41.6044 40.7294 41.3904 40.4471C41.1764 40.1647 40.8211 40.0235 40.3246 40.0235C39.8195 40.0235 39.3958 40.2588 39.0534 40.7294C38.711 41.1829 38.5397 41.7733 38.5397 42.5005V45.7219H37.5253V39.4075Z" fill="#0F2167"/>
<path d="M52.3893 43.2449V42.5005L51.6317 42.5262C50.5959 42.569 49.9068 42.7358 49.5643 43.0267C49.2219 43.3091 49.0507 43.6428 49.0507 44.0278C49.0507 44.3701 49.1748 44.6438 49.4231 44.8492C49.6799 45.046 50.0052 45.1444 50.399 45.1444C50.9897 45.1444 51.4691 44.9604 51.8372 44.5925C52.2053 44.2246 52.3893 43.7754 52.3893 43.2449ZM48.0235 44.0278C48.0235 43.4631 48.276 42.9754 48.7811 42.5647C49.2861 42.154 50.2278 41.9144 51.606 41.846L52.3893 41.8075V41.5893C52.3893 40.5198 51.9142 39.985 50.964 39.985C50.2107 39.985 49.6842 40.3829 49.3846 41.1786L48.4857 40.9091C48.6569 40.4043 48.9566 39.9979 49.3846 39.6898C49.8126 39.3733 50.3391 39.215 50.964 39.215C52.5905 39.215 53.4037 40.1219 53.4037 41.9358V45.7219H52.415V44.6182C52.1924 45.0289 51.8885 45.3497 51.5033 45.5807C51.1181 45.8032 50.6901 45.9144 50.2192 45.9144C49.62 45.9144 49.1021 45.7476 48.6655 45.4139C48.2375 45.0631 48.0235 44.6011 48.0235 44.0278Z" fill="#0F2167"/>
<path d="M55.3424 43.9636V40.1647H54.3408V39.4075H55.3424V37.5209H56.344V39.4075H58.3857V40.1647H56.344V44.0021C56.344 44.3615 56.4082 44.6182 56.5366 44.7722C56.665 44.9176 56.8747 44.9904 57.1658 44.9904C57.4397 44.9904 57.8249 44.9561 58.3214 44.8877V45.6834C57.8849 45.7519 57.4697 45.7861 57.0759 45.7861C56.4595 45.7861 56.0144 45.6449 55.7405 45.3626C55.4751 45.0717 55.3424 44.6053 55.3424 43.9636Z" fill="#0F2167"/>
<path d="M59.1756 42.5904V42.539C59.1756 41.5294 59.4495 40.7251 59.9974 40.1262C60.5538 39.5187 61.2986 39.215 62.2317 39.215C63.1648 39.215 63.9095 39.5187 64.466 40.1262C65.0138 40.7251 65.2878 41.5294 65.2878 42.539V42.5904C65.2878 43.6 65.0138 44.4043 64.466 45.0032C63.9095 45.6107 63.1648 45.9144 62.2317 45.9144C61.2986 45.9144 60.5538 45.6107 59.9974 45.0032C59.4495 44.4043 59.1756 43.6 59.1756 42.5904ZM64.2477 42.5904V42.539C64.2477 41.7433 64.0636 41.1187 63.6955 40.6652C63.3274 40.2118 62.8395 39.985 62.2317 39.985C61.6239 39.985 61.1359 40.2118 60.7678 40.6652C60.3997 41.1187 60.2157 41.7433 60.2157 42.539V42.5904C60.2157 43.3861 60.3997 44.0107 60.7678 44.4642C61.1359 44.9176 61.6239 45.1444 62.2317 45.1444C62.8395 45.1444 63.3274 44.9176 63.6955 44.4642C64.0636 44.0107 64.2477 43.3861 64.2477 42.5904Z" fill="#0F2167"/>
<path d="M66.707 36.738H67.7214V45.7219H66.707V36.738Z" fill="#0F2167"/>
<path d="M69.1447 42.5904V42.539C69.1447 41.5294 69.4186 40.7251 69.9665 40.1262C70.5229 39.5187 71.2677 39.215 72.2008 39.215C73.1339 39.215 73.8787 39.5187 74.4351 40.1262C74.983 40.7251 75.2569 41.5294 75.2569 42.539V42.5904C75.2569 43.6 74.983 44.4043 74.4351 45.0032C73.8787 45.6107 73.1339 45.9144 72.2008 45.9144C71.2677 45.9144 70.5229 45.6107 69.9665 45.0032C69.4186 44.4043 69.1447 43.6 69.1447 42.5904ZM74.2168 42.5904V42.539C74.2168 41.7433 74.0328 41.1187 73.6647 40.6652C73.2966 40.2118 72.8086 39.985 72.2008 39.985C71.593 39.985 71.1051 40.2118 70.737 40.6652C70.3689 41.1187 70.1848 41.7433 70.1848 42.539V42.5904C70.1848 43.3861 70.3689 44.0107 70.737 44.4642C71.1051 44.9176 71.593 45.1444 72.2008 45.1444C72.8086 45.1444 73.2966 44.9176 73.6647 44.4642C74.0328 44.0107 74.2168 43.3861 74.2168 42.5904Z" fill="#0F2167"/>
<path d="M81.082 46.492C81.082 46.184 80.8765 45.9358 80.4656 45.7476C80.0547 45.5679 79.417 45.4781 78.5524 45.4781C78.0131 45.4781 77.6064 45.5722 77.3325 45.7604C77.0671 45.9572 76.9344 46.2096 76.9344 46.5176C76.9344 47.2278 77.615 47.5829 78.9761 47.5829C79.6267 47.5829 80.1404 47.4802 80.517 47.2749C80.8937 47.0695 81.082 46.8086 81.082 46.492ZM80.5299 41.4353V41.4225C80.5299 40.9947 80.3843 40.6438 80.0933 40.3701C79.8022 40.0877 79.4084 39.9465 78.9119 39.9465C78.4154 39.9465 78.0216 40.0877 77.7306 40.3701C77.4395 40.6438 77.294 40.9947 77.294 41.4225V41.4353C77.294 41.8631 77.4395 42.2182 77.7306 42.5005C78.0216 42.7743 78.4154 42.9112 78.9119 42.9112C79.4084 42.9112 79.8022 42.7743 80.0933 42.5005C80.3843 42.2182 80.5299 41.8631 80.5299 41.4353ZM75.9072 46.5947C75.9072 45.8588 76.348 45.3882 77.2298 45.1829C76.8017 44.969 76.5877 44.6695 76.5877 44.2845C76.5877 43.831 76.8916 43.5187 77.4994 43.3476C77.1142 43.1594 76.8146 42.8984 76.6006 42.5647C76.3951 42.2225 76.2924 41.846 76.2924 41.4353V41.4225C76.2924 40.7979 76.5235 40.2759 76.9858 39.8567C77.4652 39.4289 78.1072 39.215 78.9119 39.215C79.5368 39.215 80.0676 39.3476 80.5042 39.6128C80.838 39.0053 81.3902 38.7016 82.1606 38.7016H82.1863V39.5102C81.647 39.5187 81.2318 39.6684 80.9408 39.9594C81.3345 40.3529 81.5314 40.8406 81.5314 41.4225V41.4353C81.5314 42.0599 81.296 42.5818 80.8252 43.0011C80.3544 43.4289 79.7166 43.6428 78.9119 43.6428C78.8263 43.6428 78.7022 43.6342 78.5395 43.6171C78.3854 43.6 78.2913 43.5914 78.257 43.5914C77.8033 43.7369 77.5765 43.9209 77.5765 44.1433C77.5765 44.4 77.799 44.5326 78.2442 44.5412C79.6652 44.5754 80.6369 44.7166 81.159 44.9647C81.4415 45.1016 81.6641 45.2941 81.8268 45.5422C81.998 45.7904 82.0836 46.0556 82.0836 46.338C82.0836 46.9369 81.7968 47.4203 81.2233 47.7882C80.6583 48.1647 79.8878 48.3529 78.9119 48.3529C77.9531 48.3529 77.2127 48.1947 76.6905 47.8781C76.1683 47.5701 75.9072 47.1422 75.9072 46.5947Z" fill="#0F2167"/>
<path d="M83.247 39.4075H84.2614V45.7219H83.247V39.4075ZM83.247 36.9562H84.2614V38.2909H83.247V36.9562Z" fill="#0F2167"/>
<path d="M85.4536 43.9123L86.3524 43.6813C86.5836 44.6567 87.2042 45.1444 88.2143 45.1444C88.7622 45.1444 89.1774 45.0503 89.4599 44.862C89.751 44.6738 89.8965 44.4299 89.8965 44.1305C89.8965 43.8824 89.798 43.677 89.6012 43.5144C89.4043 43.3433 89.0704 43.2064 88.5996 43.1037L87.7649 42.9241C86.4723 42.6503 85.826 42.0257 85.826 41.0503C85.826 40.554 86.0443 40.1262 86.4808 39.7668C86.9089 39.3989 87.4995 39.215 88.2529 39.215C88.9035 39.215 89.4471 39.3733 89.8836 39.6898C90.3202 39.9979 90.6199 40.4299 90.7825 40.9861L89.8965 41.2171C89.7938 40.8406 89.5926 40.5412 89.293 40.3187C88.9934 40.0963 88.6467 39.985 88.2529 39.985C87.8163 39.985 87.4653 40.0749 87.1999 40.2545C86.9431 40.4342 86.8147 40.6652 86.8147 40.9476C86.8147 41.2128 86.896 41.4267 87.0587 41.5893C87.2299 41.7519 87.5252 41.8802 87.9447 41.9743L88.7793 42.154C89.5155 42.3166 90.0548 42.5519 90.3973 42.8599C90.7397 43.1594 90.9109 43.5529 90.9109 44.0406C90.9109 44.5626 90.6669 45.0075 90.179 45.3754C89.7082 45.7348 89.0533 45.9144 88.2143 45.9144C87.4867 45.9144 86.8789 45.739 86.391 45.3882C85.903 45.0374 85.5906 44.5455 85.4536 43.9123Z" fill="#0F2167"/>
<path d="M92.5355 43.9636V40.1647H91.5339V39.4075H92.5355V37.5209H93.537V39.4075H95.5787V40.1647H93.537V44.0021C93.537 44.3615 93.6012 44.6182 93.7297 44.7722C93.8581 44.9176 94.0678 44.9904 94.3588 44.9904C94.6328 44.9904 95.018 44.9561 95.5145 44.8877V45.6834C95.0779 45.7519 94.6628 45.7861 94.269 45.7861C93.6526 45.7861 93.2075 45.6449 92.9335 45.3626C92.6682 45.0717 92.5355 44.6053 92.5355 43.9636Z" fill="#0F2167"/>
<path d="M100.806 43.2449V42.5005L100.048 42.5262C99.0121 42.569 98.323 42.7358 97.9806 43.0267C97.6381 43.3091 97.4669 43.6428 97.4669 44.0278C97.4669 44.3701 97.591 44.6438 97.8393 44.8492C98.0961 45.046 98.4214 45.1444 98.8152 45.1444C99.4059 45.1444 99.8853 44.9604 100.253 44.5925C100.621 44.2246 100.806 43.7754 100.806 43.2449ZM96.4397 44.0278C96.4397 43.4631 96.6922 42.9754 97.1973 42.5647C97.7023 42.154 98.644 41.9144 100.022 41.846L100.806 41.8075V41.5893C100.806 40.5198 100.33 39.985 99.3802 39.985C98.6269 39.985 98.1004 40.3829 97.8008 41.1786L96.9019 40.9091C97.0731 40.4043 97.3728 39.9979 97.8008 39.6898C98.2288 39.3733 98.7553 39.215 99.3802 39.215C101.007 39.215 101.82 40.1219 101.82 41.9358V45.7219H100.831V44.6182C100.609 45.0289 100.305 45.3497 99.9195 45.5807C99.5343 45.8032 99.1062 45.9144 98.6354 45.9144C98.0362 45.9144 97.5183 45.7476 97.0817 45.4139C96.6537 45.0631 96.4397 44.6011 96.4397 44.0278Z" fill="#0F2167"/>
<path d="M102.884 43.9123L103.783 43.6813C104.014 44.6567 104.635 45.1444 105.645 45.1444C106.193 45.1444 106.608 45.0503 106.89 44.862C107.181 44.6738 107.327 44.4299 107.327 44.1305C107.327 43.8824 107.228 43.677 107.031 43.5144C106.835 43.3433 106.501 43.2064 106.03 43.1037L105.195 42.9241C103.903 42.6503 103.256 42.0257 103.256 41.0503C103.256 40.554 103.475 40.1262 103.911 39.7668C104.339 39.3989 104.93 39.215 105.683 39.215C106.334 39.215 106.877 39.3733 107.314 39.6898C107.751 39.9979 108.05 40.4299 108.213 40.9861L107.327 41.2171C107.224 40.8406 107.023 40.5412 106.723 40.3187C106.424 40.0963 106.077 39.985 105.683 39.985C105.247 39.985 104.896 40.0749 104.63 40.2545C104.373 40.4342 104.245 40.6652 104.245 40.9476C104.245 41.2128 104.326 41.4267 104.489 41.5893C104.66 41.7519 104.956 41.8802 105.375 41.9743L106.21 42.154C106.946 42.3166 107.485 42.5519 107.828 42.8599C108.17 43.1594 108.341 43.5529 108.341 44.0406C108.341 44.5626 108.097 45.0075 107.609 45.3754C107.138 45.7348 106.484 45.9144 105.645 45.9144C104.917 45.9144 104.309 45.739 103.821 45.3882C103.333 45.0374 103.021 44.5455 102.884 43.9123Z" fill="#0F2167"/>
<path d="M22.3816 56.8813V56.1369L21.6239 56.1626C20.5881 56.2053 19.899 56.3722 19.5566 56.6631C19.2142 56.9455 19.043 57.2791 19.043 57.6642C19.043 58.0064 19.1671 58.2802 19.4153 58.4856C19.6722 58.6824 19.9975 58.7807 20.3912 58.7807C20.9819 58.7807 21.4613 58.5968 21.8294 58.2289C22.1975 57.861 22.3816 57.4118 22.3816 56.8813ZM18.0157 57.6642C18.0157 57.0995 18.2682 56.6118 18.7733 56.2011C19.2784 55.7904 20.22 55.5508 21.5983 55.4824L22.3816 55.4439V55.2257C22.3816 54.1562 21.9064 53.6214 20.9562 53.6214C20.2029 53.6214 19.6764 54.0192 19.3768 54.815L18.478 54.5455C18.6492 54.0406 18.9488 53.6342 19.3768 53.3262C19.8048 53.0096 20.3313 52.8513 20.9562 52.8513C22.5827 52.8513 23.396 53.7583 23.396 55.5722V59.3583H22.4072V58.2545C22.1847 58.6652 21.8808 58.9861 21.4955 59.2171C21.1103 59.4396 20.6823 59.5508 20.2115 59.5508C19.6122 59.5508 19.0943 59.384 18.6577 59.0503C18.2297 58.6995 18.0157 58.2374 18.0157 57.6642ZM19.0173 50.4513H20.3784L21.3158 52.0941H20.4683L19.0173 50.4513Z" fill="#0F2167"/>
<path d="M27.2062 57.5487L28.105 57.3176C28.3362 58.2931 28.9568 58.7807 29.9669 58.7807C30.5148 58.7807 30.93 58.6866 31.2125 58.4984C31.5035 58.3102 31.6491 58.0663 31.6491 57.7668C31.6491 57.5187 31.5506 57.3134 31.3537 57.1508C31.1568 56.9797 30.823 56.8428 30.3522 56.7401L29.5175 56.5604C28.2249 56.2866 27.5786 55.662 27.5786 54.6866C27.5786 54.1904 27.7968 53.7626 28.2334 53.4032C28.6615 53.0353 29.2521 52.8513 30.0055 52.8513C30.6561 52.8513 31.1996 53.0096 31.6362 53.3262C32.0728 53.6342 32.3724 54.0663 32.5351 54.6225L31.6491 54.8535C31.5463 54.477 31.3452 54.1775 31.0456 53.9551C30.7459 53.7326 30.3992 53.6214 30.0055 53.6214C29.5689 53.6214 29.2179 53.7112 28.9525 53.8909C28.6957 54.0706 28.5673 54.3016 28.5673 54.584C28.5673 54.8492 28.6486 55.0631 28.8113 55.2257C28.9825 55.3882 29.2778 55.5166 29.6973 55.6107L30.5319 55.7904C31.2681 55.9529 31.8074 56.1882 32.1499 56.4963C32.4923 56.7957 32.6635 57.1893 32.6635 57.677C32.6635 58.1989 32.4195 58.6439 31.9316 59.0118C31.4607 59.3711 30.8059 59.5508 29.9669 59.5508C29.2393 59.5508 28.6315 59.3754 28.1435 59.0246C27.6556 58.6738 27.3431 58.1818 27.2062 57.5487Z" fill="#0F2167"/>
<path d="M33.8998 57.2791V53.0438H34.9142V57.0481C34.9142 57.6214 35.0212 58.0492 35.2353 58.3316C35.4578 58.6053 35.8088 58.7422 36.2882 58.7422C36.9046 58.7422 37.3925 58.5155 37.752 58.062C38.1116 57.6086 38.2914 57.0096 38.2914 56.2652V53.0438H39.3058V59.3583H38.2914V58.0492C38.0602 58.5283 37.7478 58.9005 37.354 59.1658C36.9688 59.4225 36.5407 59.5508 36.0699 59.5508C35.3166 59.5508 34.7687 59.3283 34.4263 58.8834C34.0753 58.4299 33.8998 57.8952 33.8998 57.2791Z" fill="#0F2167"/>
<path d="M44.8529 56.8813V56.1369L44.0953 56.1626C43.0595 56.2053 42.3703 56.3722 42.0279 56.6631C41.6855 56.9455 41.5143 57.2791 41.5143 57.6642C41.5143 58.0064 41.6384 58.2802 41.8867 58.4856C42.1435 58.6824 42.4688 58.7807 42.8626 58.7807C43.4532 58.7807 43.9326 58.5968 44.3007 58.2289C44.6688 57.861 44.8529 57.4118 44.8529 56.8813ZM40.487 57.6642C40.487 57.0995 40.7396 56.6118 41.2446 56.2011C41.7497 55.7904 42.6914 55.5508 44.0696 55.4824L44.8529 55.4439V55.2257C44.8529 54.1562 44.3778 53.6214 43.4276 53.6214C42.6742 53.6214 42.1478 54.0192 41.8482 54.815L40.9493 54.5455C41.1205 54.0406 41.4201 53.6342 41.8482 53.3262C42.2762 53.0096 42.8026 52.8513 43.4276 52.8513C45.0541 52.8513 45.8673 53.7583 45.8673 55.5722V59.3583H44.8786V58.2545C44.656 58.6652 44.3521 58.9861 43.9669 59.2171C43.5817 59.4396 43.1536 59.5508 42.6828 59.5508C42.0836 59.5508 41.5657 59.384 41.1291 59.0503C40.701 58.6995 40.487 58.2374 40.487 57.6642Z" fill="#0F2167"/>
<path d="M54.9551 56.2267V56.1754C54.9551 55.4652 54.7539 54.862 54.3515 54.3658C53.9578 53.8695 53.4955 53.6214 52.9647 53.6214C52.3569 53.6214 51.869 53.8481 51.5009 54.3016C51.1328 54.7551 50.9487 55.3797 50.9487 56.1754V56.2267C50.9487 57.0225 51.1328 57.6471 51.5009 58.1005C51.869 58.554 52.3569 58.7807 52.9647 58.7807C53.4869 58.7807 53.9492 58.5369 54.3515 58.0492C54.7539 57.5444 54.9551 56.9369 54.9551 56.2267ZM49.9086 56.2267V56.1754C49.9086 55.2599 50.1569 54.477 50.6534 53.8267C51.1499 53.1765 51.8134 52.8513 52.6437 52.8513C53.1402 52.8513 53.5897 52.984 53.992 53.2492C54.4029 53.5144 54.7154 53.8695 54.9294 54.3144V50.3743H55.9438V59.3583H54.9294V58.0877C54.7154 58.5326 54.4029 58.8877 53.992 59.1529C53.5897 59.4182 53.1402 59.5508 52.6437 59.5508C51.8134 59.5508 51.1499 59.2257 50.6534 58.5754C50.1569 57.9251 49.9086 57.1422 49.9086 56.2267Z" fill="#0F2167"/>
<path d="M57.6281 53.0438H58.6426V59.3583H57.6281V53.0438ZM57.6281 50.5925H58.6426V51.9273H57.6281V50.5925Z" fill="#0F2167"/>
<path d="M59.8348 57.5487L60.7336 57.3176C60.9647 58.2931 61.5854 58.7807 62.5955 58.7807C63.1434 58.7807 63.5586 58.6866 63.8411 58.4984C64.1321 58.3102 64.2777 58.0663 64.2777 57.7668C64.2777 57.5187 64.1792 57.3134 63.9823 57.1508C63.7854 56.9797 63.4516 56.8428 62.9807 56.7401L62.1461 56.5604C60.8535 56.2866 60.2071 55.662 60.2071 54.6866C60.2071 54.1904 60.4254 53.7626 60.862 53.4032C61.29 53.0353 61.8807 52.8513 62.634 52.8513C63.2846 52.8513 63.8282 53.0096 64.2648 53.3262C64.7014 53.6342 65.001 54.0663 65.1637 54.6225L64.2777 54.8535C64.1749 54.477 63.9738 54.1775 63.6741 53.9551C63.3745 53.7326 63.0278 53.6214 62.634 53.6214C62.1975 53.6214 61.8465 53.7112 61.5811 53.8909C61.3243 54.0706 61.1959 54.3016 61.1959 54.584C61.1959 54.8492 61.2772 55.0631 61.4398 55.2257C61.6111 55.3882 61.9064 55.5166 62.3259 55.6107L63.1605 55.7904C63.8967 55.9529 64.436 56.1882 64.7784 56.4963C65.1209 56.7957 65.2921 57.1893 65.2921 57.677C65.2921 58.1989 65.0481 58.6439 64.5602 59.0118C64.0893 59.3711 63.4344 59.5508 62.5955 59.5508C61.8679 59.5508 61.2601 59.3754 60.7721 59.0246C60.2842 58.6738 59.9717 58.1818 59.8348 57.5487Z" fill="#0F2167"/>
<path d="M71.5877 56.2267V56.1754C71.5877 55.3797 71.4036 54.7551 71.0355 54.3016C70.6674 53.8481 70.1795 53.6214 69.5717 53.6214C69.0324 53.6214 68.5658 53.8695 68.172 54.3658C67.7782 54.8449 67.5813 55.4481 67.5813 56.1754V56.2267C67.5813 56.9455 67.7782 57.5529 68.172 58.0492C68.5658 58.5369 69.0324 58.7807 69.5717 58.7807C70.1795 58.7807 70.6674 58.554 71.0355 58.1005C71.4036 57.6471 71.5877 57.0225 71.5877 56.2267ZM66.5926 53.0438H67.607V54.3144C67.821 53.8695 68.1292 53.5144 68.5316 53.2492C68.9425 52.984 69.3962 52.8513 69.8927 52.8513C70.7145 52.8513 71.3736 53.1765 71.8702 53.8267C72.3752 54.4856 72.6278 55.2684 72.6278 56.1754V56.2267C72.6278 57.1337 72.3752 57.9166 71.8702 58.5754C71.3736 59.2257 70.7145 59.5508 69.8927 59.5508C69.3962 59.5508 68.9425 59.4182 68.5316 59.1529C68.1292 58.8877 67.821 58.5326 67.607 58.0877V61.7968H66.5926V53.0438Z" fill="#0F2167"/>
<path d="M73.7343 56.2267V56.1754C73.7343 55.1658 74.0082 54.3615 74.5561 53.7626C75.1125 53.1551 75.8573 52.8513 76.7904 52.8513C77.7235 52.8513 78.4682 53.1551 79.0247 53.7626C79.5725 54.3615 79.8465 55.1658 79.8465 56.1754V56.2267C79.8465 57.2364 79.5725 58.0406 79.0247 58.6396C78.4682 59.2471 77.7235 59.5508 76.7904 59.5508C75.8573 59.5508 75.1125 59.2471 74.5561 58.6396C74.0082 58.0406 73.7343 57.2364 73.7343 56.2267ZM78.8064 56.2267V56.1754C78.8064 55.3797 78.6223 54.7551 78.2542 54.3016C77.8861 53.8481 77.3982 53.6214 76.7904 53.6214C76.1826 53.6214 75.6946 53.8481 75.3265 54.3016C74.9584 54.7551 74.7744 55.3797 74.7744 56.1754V56.2267C74.7744 57.0225 74.9584 57.6471 75.3265 58.1005C75.6946 58.554 76.1826 58.7807 76.7904 58.7807C77.3982 58.7807 77.8861 58.554 78.2542 58.1005C78.6223 57.6471 78.8064 57.0225 78.8064 56.2267Z" fill="#0F2167"/>
<path d="M80.6508 57.5487L81.5497 57.3176C81.7808 58.2931 82.4015 58.7807 83.4116 58.7807C83.9595 58.7807 84.3747 58.6866 84.6572 58.4984C84.9482 58.3102 85.0937 58.0663 85.0937 57.7668C85.0937 57.5187 84.9953 57.3134 84.7984 57.1508C84.6015 56.9797 84.2676 56.8428 83.7968 56.7401L82.9622 56.5604C81.6695 56.2866 81.0232 55.662 81.0232 54.6866C81.0232 54.1904 81.2415 53.7626 81.6781 53.4032C82.1061 53.0353 82.6968 52.8513 83.4501 52.8513C84.1007 52.8513 84.6443 53.0096 85.0809 53.3262C85.5175 53.6342 85.8171 54.0663 85.9798 54.6225L85.0937 54.8535C84.991 54.477 84.7898 54.1775 84.4902 53.9551C84.1906 53.7326 83.8439 53.6214 83.4501 53.6214C83.0135 53.6214 82.6626 53.7112 82.3972 53.8909C82.1404 54.0706 82.012 54.3016 82.012 54.584C82.012 54.8492 82.0933 55.0631 82.2559 55.2257C82.4271 55.3882 82.7225 55.5166 83.1419 55.6107L83.9766 55.7904C84.7128 55.9529 85.2521 56.1882 85.5945 56.4963C85.9369 56.7957 86.1082 57.1893 86.1082 57.677C86.1082 58.1989 85.8642 58.6439 85.3762 59.0118C84.9054 59.3711 84.2505 59.5508 83.4116 59.5508C82.684 59.5508 82.0762 59.3754 81.5882 59.0246C81.1003 58.6738 80.7878 58.1818 80.6508 57.5487Z" fill="#0F2167"/>
<path d="M87.4729 53.0438H88.4873V59.3583H87.4729V53.0438ZM87.4729 50.5925H88.4873V51.9273H87.4729V50.5925Z" fill="#0F2167"/>
<path d="M91.7469 61.7455L91.9523 61.2064C92.3204 61.3433 92.62 61.4118 92.8512 61.4118C93.3306 61.4118 93.5703 61.2706 93.5703 60.9882C93.5703 60.877 93.5232 60.7829 93.429 60.7059C93.3434 60.6374 93.2235 60.6032 93.0695 60.6032C92.8726 60.6032 92.7014 60.6289 92.5558 60.6802L92.0807 60.3979L92.5558 59.538C91.7854 59.4524 91.1476 59.1187 90.6426 58.5369C90.1546 57.9551 89.9106 57.185 89.9106 56.2267V56.1754C89.9106 55.1743 90.1846 54.3743 90.7324 53.7754C91.2889 53.1594 92.0208 52.8513 92.9282 52.8513C93.613 52.8513 94.1866 53.0396 94.6489 53.416C95.1111 53.784 95.4108 54.293 95.5477 54.9433L94.6232 55.1487C94.3578 54.1305 93.7928 53.6214 92.9282 53.6214C92.3204 53.6214 91.8367 53.8567 91.4772 54.3273C91.1262 54.7979 90.9507 55.4139 90.9507 56.1754V56.2267C90.9507 56.9882 91.1262 57.6043 91.4772 58.0749C91.8367 58.5455 92.3204 58.7807 92.9282 58.7807C93.8099 58.7807 94.3921 58.2332 94.6746 57.138L95.5991 57.3433C95.4364 58.0107 95.1497 58.5326 94.7388 58.9091C94.3364 59.277 93.8313 59.4866 93.2235 59.538L92.9924 60.0385C93.0609 60.0299 93.1465 60.0257 93.2492 60.0257C93.5916 60.0257 93.8656 60.1112 94.071 60.2824C94.2765 60.462 94.3792 60.6888 94.3792 60.9626C94.3792 61.2706 94.2508 61.5273 93.994 61.7326C93.7457 61.938 93.4076 62.0406 92.9796 62.0406C92.5344 62.0406 92.1235 61.9422 91.7469 61.7455Z" fill="#0F2167"/>
<path d="M100.73 56.8813V56.1369L99.9727 56.1626C98.9368 56.2053 98.2477 56.3722 97.9053 56.6631C97.5629 56.9455 97.3917 57.2791 97.3917 57.6642C97.3917 58.0064 97.5158 58.2802 97.7641 58.4856C98.0209 58.6824 98.3462 58.7807 98.74 58.7807C99.3306 58.7807 99.81 58.5968 100.178 58.2289C100.546 57.861 100.73 57.4118 100.73 56.8813ZM96.3644 57.6642C96.3644 57.0995 96.617 56.6118 97.122 56.2011C97.6271 55.7904 98.5687 55.5508 99.947 55.4824L100.73 55.4439V55.2257C100.73 54.1562 100.255 53.6214 99.305 53.6214C98.5516 53.6214 98.0252 54.0192 97.7255 54.815L96.8267 54.5455C96.9979 54.0406 97.2975 53.6342 97.7255 53.3262C98.1536 53.0096 98.68 52.8513 99.305 52.8513C100.931 52.8513 101.745 53.7583 101.745 55.5722V59.3583H100.756V58.2545C100.533 58.6652 100.229 58.9861 99.8443 59.2171C99.459 59.4396 99.031 59.5508 98.5602 59.5508C97.961 59.5508 97.443 59.384 97.0065 59.0503C96.5784 58.6995 96.3644 58.2374 96.3644 57.6642ZM99.1637 51.6963L98.9583 51.5551C98.7186 51.384 98.5388 51.2984 98.4189 51.2984C98.2135 51.2984 97.9781 51.5294 97.7127 51.9914L97.1092 51.6321C97.2547 51.2898 97.4473 51.0203 97.687 50.8235C97.9267 50.6182 98.1707 50.5155 98.4189 50.5155C98.71 50.5155 99.0053 50.6225 99.305 50.8364L99.5104 50.9775C99.7501 51.1487 99.9299 51.2342 100.05 51.2342C100.255 51.2342 100.491 51.0032 100.756 50.5412L101.359 50.9005C101.214 51.2428 101.021 51.5166 100.782 51.7219C100.542 51.9187 100.298 52.0171 100.05 52.0171C99.7587 52.0171 99.4633 51.9102 99.1637 51.6963Z" fill="#0F2167"/>
<path d="M103.04 56.2267V56.1754C103.04 55.1658 103.314 54.3615 103.862 53.7626C104.418 53.1551 105.163 52.8513 106.096 52.8513C107.029 52.8513 107.774 53.1551 108.33 53.7626C108.878 54.3615 109.152 55.1658 109.152 56.1754V56.2267C109.152 57.2364 108.878 58.0406 108.33 58.6396C107.774 59.2471 107.029 59.5508 106.096 59.5508C105.163 59.5508 104.418 59.2471 103.862 58.6396C103.314 58.0406 103.04 57.2364 103.04 56.2267ZM108.112 56.2267V56.1754C108.112 55.3797 107.928 54.7551 107.56 54.3016C107.192 53.8481 106.704 53.6214 106.096 53.6214C105.488 53.6214 105 53.8481 104.632 54.3016C104.264 54.7551 104.08 55.3797 104.08 56.1754V56.2267C104.08 57.0225 104.264 57.6471 104.632 58.1005C105 58.554 105.488 58.7807 106.096 58.7807C106.704 58.7807 107.192 58.554 107.56 58.1005C107.928 57.6471 108.112 57.0225 108.112 56.2267Z" fill="#0F2167"/>
</g>
<defs>
<filter id="filter0_d_81_1257" x="0" y="0" width="134" height="83" filterUnits="userSpaceOnUse" color-interpolation-filters="sRGB">
<feFlood flood-opacity="0" result="BackgroundImageFix"/>
<feColorMatrix in="SourceAlpha" type="matrix" values="0 0 0 0 0 0 0 0 0 0 0 0 0 0 0 0 0 0 127 0" result="hardAlpha"/>
<feOffset dy="4"/>
<feGaussianBlur stdDeviation="2"/>
<feComposite in2="hardAlpha" operator="out"/>
<feColorMatrix type="matrix" values="0 0 0 0 0 0 0 0 0 0 0 0 0 0 0 0 0 0 0.25 0"/>
<feBlend mode="normal" in2="BackgroundImageFix" result="effect1_dropShadow_81_1257"/>
<feBlend mode="normal" in="SourceGraphic" in2="effect1_dropShadow_81_1257" result="shape"/>
</filter>
</defs>
</svg>
