<svg width="333" height="75" viewBox="0 0 333 75" fill="none" xmlns="http://www.w3.org/2000/svg">
<path d="M0 0H2.00821L6.61795 14.0201L11.2277 0H13.0762L7.64488 16.0361H5.43129L0 0Z" fill="#FF1935"/>
<path d="M13.0298 10.4464V10.3547C13.0298 8.55259 13.5166 7.11697 14.4903 6.0479C15.4792 4.96355 16.8028 4.42138 18.4611 4.42138C20.1194 4.42138 21.443 4.96355 22.4319 6.0479C23.4055 7.11697 23.8924 8.55259 23.8924 10.3547V10.4464C23.8924 12.2485 23.4055 13.6841 22.4319 14.7532C21.443 15.8376 20.1194 16.3797 18.4611 16.3797C16.8028 16.3797 15.4792 15.8376 14.4903 14.7532C13.5166 13.6841 13.0298 12.2485 13.0298 10.4464ZM22.0439 10.4464V10.3547C22.0439 8.9344 21.7168 7.81951 21.0626 7.01007C20.4084 6.20062 19.5413 5.7959 18.4611 5.7959C17.3809 5.7959 16.5137 6.20062 15.8596 7.01007C15.2054 7.81951 14.8783 8.9344 14.8783 10.3547V10.4464C14.8783 11.8667 15.2054 12.9816 15.8596 13.791C16.5137 14.6005 17.3809 15.0052 18.4611 15.0052C19.5413 15.0052 20.4084 14.6005 21.0626 13.791C21.7168 12.9816 22.0439 11.8667 22.0439 10.4464Z" fill="#FF1935"/>
<path d="M25.8441 10.4464V10.3547C25.8441 8.56786 26.3309 7.13988 27.3046 6.07081C28.2935 4.97119 29.5942 4.42138 31.2069 4.42138C32.424 4.42138 33.4433 4.75738 34.2648 5.42936C35.0864 6.08608 35.6189 6.99479 35.8623 8.1555L34.2192 8.52204C33.7476 6.70462 32.7435 5.7959 31.2069 5.7959C30.1267 5.7959 29.2671 6.2159 28.6282 7.05588C28.0044 7.89587 27.6925 8.99549 27.6925 10.3547V10.4464C27.6925 11.8056 28.0044 12.9052 28.6282 13.7452C29.2671 14.5852 30.1267 15.0052 31.2069 15.0052C32.7739 15.0052 33.8084 14.0278 34.3105 12.0729L35.9536 12.4394C35.2994 15.0663 33.7172 16.3797 31.2069 16.3797C29.6399 16.3797 28.3543 15.8528 27.3502 14.799C26.3461 13.73 25.8441 12.2791 25.8441 10.4464Z" fill="#FF1935"/>
<path d="M41.9245 0.206178H43.6132L46.1235 2.97813H44.412L42.7689 1.39743L41.1258 2.97813H39.4143L41.9245 0.206178ZM39.5055 9.32385H46.0779C45.8953 6.97188 44.8455 5.7959 42.9286 5.7959C42.031 5.7959 41.2703 6.11663 40.6466 6.75807C40.038 7.39951 39.6577 8.25477 39.5055 9.32385ZM37.5886 10.4464V10.3547C37.5886 8.64422 38.0602 7.22388 39.0035 6.09372C39.9315 4.97883 41.2399 4.42138 42.9286 4.42138C44.5565 4.42138 45.7964 4.93301 46.6484 5.95626C47.5155 6.97952 47.9491 8.43041 47.9491 10.3089V10.6296H39.4371C39.4675 12.0042 39.8098 13.0809 40.464 13.8598C41.1182 14.6234 41.993 15.0052 43.0884 15.0052C44.3815 15.0052 45.4465 14.211 46.2832 12.6227L47.835 13.2412C47.3482 14.3409 46.6636 15.1427 45.7812 15.6467C44.8836 16.1354 43.9784 16.3797 43.0655 16.3797C41.3768 16.3797 40.038 15.8376 39.0491 14.7532C38.0755 13.6841 37.5886 12.2485 37.5886 10.4464Z" fill="#FF1935"/>
<path d="M55.2941 4.76501H57.097V7.1017C57.5077 6.24644 58.0554 5.58973 58.74 5.13155C59.4399 4.6581 60.2082 4.42138 61.0449 4.42138C62.3685 4.42138 63.3422 4.8261 63.9659 5.63554C64.5897 6.44498 64.9016 7.39188 64.9016 8.47622V16.0361H63.0988V8.88858C63.0988 7.86532 62.901 7.10934 62.5054 6.62062C62.1251 6.11663 61.5089 5.86463 60.657 5.86463C59.5616 5.86463 58.6944 6.26935 58.0554 7.07879C57.4164 7.88823 57.097 8.95731 57.097 10.286V16.0361H55.2941V4.76501Z" fill="#FF1935"/>
<path d="M74.6458 11.6147V10.286L73.2994 10.3318C71.4585 10.4082 70.2338 10.706 69.6253 11.2253C69.0167 11.7293 68.7124 12.3249 68.7124 13.0121C68.7124 13.623 68.933 14.1118 69.3742 14.4783C69.8306 14.8296 70.4088 15.0052 71.1086 15.0052C72.1583 15.0052 73.0103 14.6768 73.6645 14.0201C74.3187 13.3634 74.6458 12.5616 74.6458 11.6147ZM66.8868 13.0121C66.8868 12.0042 67.3356 11.1336 68.2332 10.4006C69.1308 9.66748 70.8043 9.23985 73.2537 9.11767L74.6458 9.04894V8.65949C74.6458 6.75043 73.8014 5.7959 72.1127 5.7959C70.7739 5.7959 69.8382 6.50607 69.3058 7.92641L67.7083 7.44533C68.0126 6.54426 68.5451 5.81881 69.3058 5.269C70.0664 4.70392 71.0021 4.42138 72.1127 4.42138C75.0033 4.42138 76.4486 6.04026 76.4486 9.27803V16.0361H74.6914V14.0659C74.2959 14.799 73.7558 15.3717 73.0712 15.7841C72.3865 16.1812 71.6259 16.3797 70.7891 16.3797C69.7241 16.3797 68.8037 16.0819 68.0278 15.4863C67.2671 14.8601 66.8868 14.0354 66.8868 13.0121ZM71.8617 2.3596L71.4965 2.1076C71.0706 1.80215 70.7511 1.64943 70.5381 1.64943C70.1729 1.64943 69.7546 2.06178 69.2829 2.8865L68.2104 2.24505C68.469 1.63416 68.8113 1.15307 69.2373 0.801805C69.6633 0.435266 70.0969 0.251997 70.5381 0.251997C71.0553 0.251997 71.5802 0.442902 72.1127 0.824714L72.4778 1.07671C72.9038 1.38216 73.2233 1.53488 73.4363 1.53488C73.8014 1.53488 74.2198 1.12253 74.6914 0.297814L75.764 0.939257C75.5053 1.55016 75.163 2.03888 74.7371 2.40542C74.3111 2.75668 73.8775 2.93232 73.4363 2.93232C72.919 2.93232 72.3941 2.74141 71.8617 2.3596Z" fill="#FF1935"/>
<path d="M78.7503 10.4464V10.3547C78.7503 8.55259 79.2371 7.11697 80.2108 6.0479C81.1997 4.96355 82.5232 4.42138 84.1815 4.42138C85.8398 4.42138 87.1634 4.96355 88.1523 6.0479C89.126 7.11697 89.6128 8.55259 89.6128 10.3547V10.4464C89.6128 12.2485 89.126 13.6841 88.1523 14.7532C87.1634 15.8376 85.8398 16.3797 84.1815 16.3797C82.5232 16.3797 81.1997 15.8376 80.2108 14.7532C79.2371 13.6841 78.7503 12.2485 78.7503 10.4464ZM87.7644 10.4464V10.3547C87.7644 8.9344 87.4373 7.81951 86.7831 7.01007C86.1289 6.20062 85.2617 5.7959 84.1815 5.7959C83.1014 5.7959 82.2342 6.20062 81.58 7.01007C80.9258 7.81951 80.5987 8.9344 80.5987 10.3547V10.4464C80.5987 11.8667 80.9258 12.9816 81.58 13.791C82.2342 14.6005 83.1014 15.0052 84.1815 15.0052C85.2617 15.0052 86.1289 14.6005 86.7831 13.791C87.4373 12.9816 87.7644 11.8667 87.7644 10.4464Z" fill="#FF1935"/>
<path d="M105.779 10.4464V10.3547C105.779 8.9344 105.452 7.81951 104.797 7.01007C104.143 6.20062 103.276 5.7959 102.196 5.7959C101.237 5.7959 100.408 6.23881 99.7084 7.12461C99.0086 7.97987 98.6587 9.05658 98.6587 10.3547V10.4464C98.6587 11.7293 99.0086 12.8136 99.7084 13.6994C100.408 14.5699 101.237 15.0052 102.196 15.0052C103.276 15.0052 104.143 14.6005 104.797 13.791C105.452 12.9816 105.779 11.8667 105.779 10.4464ZM96.9015 4.76501H98.7043V7.03298C99.0846 6.23881 99.6323 5.605 100.347 5.13155C101.078 4.6581 101.884 4.42138 102.766 4.42138C104.227 4.42138 105.398 5.00174 106.281 6.16244C107.178 7.33842 107.627 8.73586 107.627 10.3547V10.4464C107.627 12.0653 107.178 13.4627 106.281 14.6387C105.398 15.7994 104.227 16.3797 102.766 16.3797C101.884 16.3797 101.078 16.143 100.347 15.6696C99.6323 15.1961 99.0846 14.5623 98.7043 13.7681V20.3888H96.9015V4.76501Z" fill="#FF1935"/>
<path d="M110.05 4.76501H111.853V7.46824C112.583 5.57445 113.899 4.62756 115.801 4.62756C115.953 4.62756 116.09 4.64283 116.212 4.67338V6.34571C115.968 6.31517 115.755 6.2999 115.573 6.2999C114.432 6.2999 113.526 6.66644 112.857 7.39951C112.188 8.11732 111.853 9.17112 111.853 10.5609V16.0361H110.05V4.76501Z" fill="#FF1935"/>
<path d="M119.444 9.32385H126.017C125.834 6.97188 124.784 5.7959 122.867 5.7959C121.97 5.7959 121.209 6.11663 120.585 6.75807C119.977 7.39951 119.596 8.25477 119.444 9.32385ZM117.527 10.4464V10.3547C117.527 8.64422 117.999 7.22388 118.942 6.09372C119.87 4.97883 121.179 4.42138 122.867 4.42138C124.495 4.42138 125.735 4.93301 126.587 5.95626C127.454 6.97952 127.888 8.43041 127.888 10.3089V10.6296H119.376C119.406 12.0042 119.749 13.0809 120.403 13.8598C121.057 14.6234 121.932 15.0052 123.027 15.0052C124.32 15.0052 125.385 14.211 126.222 12.6227L127.774 13.2412C127.287 14.3409 126.602 15.1427 125.72 15.6467C124.822 16.1354 123.917 16.3797 123.004 16.3797C121.316 16.3797 119.977 15.8376 118.988 14.7532C118.014 13.6841 117.527 12.2485 117.527 10.4464Z" fill="#FF1935"/>
<path d="M129.896 10.4464V10.3547C129.896 8.56786 130.383 7.13988 131.356 6.07081C132.345 4.97119 133.646 4.42138 135.259 4.42138C136.476 4.42138 137.495 4.75738 138.317 5.42936C139.138 6.08608 139.671 6.99479 139.914 8.1555L138.271 8.52204C137.799 6.70462 136.795 5.7959 135.259 5.7959C134.179 5.7959 133.319 6.2159 132.68 7.05588C132.056 7.89587 131.744 8.99549 131.744 10.3547V10.4464C131.744 11.8056 132.056 12.9052 132.68 13.7452C133.319 14.5852 134.179 15.0052 135.259 15.0052C136.826 15.0052 137.86 14.0278 138.362 12.0729L140.005 12.4394C139.351 15.0663 137.769 16.3797 135.259 16.3797C133.692 16.3797 132.406 15.8528 131.402 14.799C130.398 13.73 129.896 12.2791 129.896 10.4464Z" fill="#FF1935"/>
<path d="M142.322 4.76501H144.125V16.0361H142.322V4.76501ZM142.322 0.389449H144.125V2.77195H142.322V0.389449Z" fill="#FF1935"/>
<path d="M146.244 12.806L147.841 12.3936C148.252 14.1347 149.355 15.0052 151.15 15.0052C152.124 15.0052 152.862 14.8372 153.364 14.5012C153.881 14.1652 154.14 13.73 154.14 13.1954C154.14 12.7525 153.965 12.386 153.615 12.0958C153.265 11.7904 152.672 11.546 151.835 11.3627L150.352 11.042C148.054 10.5533 146.906 9.43839 146.906 7.69733C146.906 6.81152 147.294 6.0479 148.07 5.40646C148.83 4.74974 149.88 4.42138 151.219 4.42138C152.375 4.42138 153.341 4.70392 154.117 5.269C154.893 5.81881 155.425 6.59007 155.714 7.58278L154.14 7.99514C153.957 7.32315 153.6 6.78862 153.067 6.39153C152.535 5.99445 151.919 5.7959 151.219 5.7959C150.443 5.7959 149.819 5.95626 149.348 6.27699C148.891 6.59771 148.663 7.01007 148.663 7.51406C148.663 7.9875 148.807 8.36932 149.096 8.65949C149.401 8.94967 149.926 9.17876 150.671 9.34675L152.154 9.66748C153.463 9.95765 154.421 10.3776 155.03 10.9275C155.638 11.462 155.943 12.1645 155.943 13.0351C155.943 13.9667 155.509 14.7608 154.642 15.4176C153.805 16.059 152.641 16.3797 151.15 16.3797C149.857 16.3797 148.777 16.0666 147.91 15.4405C147.043 14.8143 146.487 13.9361 146.244 12.806Z" fill="#FF1935"/>
<path d="M165.237 11.6147V10.286L163.891 10.3318C162.05 10.4082 160.825 10.706 160.217 11.2253C159.608 11.7293 159.304 12.3249 159.304 13.0121C159.304 13.623 159.524 14.1118 159.965 14.4783C160.422 14.8296 161 15.0052 161.7 15.0052C162.75 15.0052 163.602 14.6768 164.256 14.0201C164.91 13.3634 165.237 12.5616 165.237 11.6147ZM157.478 13.0121C157.478 12.0042 157.927 11.1336 158.824 10.4006C159.722 9.66748 161.396 9.23985 163.845 9.11767L165.237 9.04894V8.65949C165.237 6.75043 164.393 5.7959 162.704 5.7959C161.365 5.7959 160.43 6.50607 159.897 7.92641L158.3 7.44533C158.604 6.54426 159.136 5.81881 159.897 5.269C160.658 4.70392 161.593 4.42138 162.704 4.42138C165.595 4.42138 167.04 6.04026 167.04 9.27803V16.0361H165.283V14.0659C164.887 14.799 164.347 15.3717 163.662 15.7841C162.978 16.1812 162.217 16.3797 161.38 16.3797C160.315 16.3797 159.395 16.0819 158.619 15.4863C157.858 14.8601 157.478 14.0354 157.478 13.0121Z" fill="#FF1935"/>
<path d="M174.222 10.4464V10.3547C174.222 8.56786 174.709 7.13988 175.683 6.07081C176.671 4.97119 177.972 4.42138 179.585 4.42138C180.802 4.42138 181.821 4.75738 182.643 5.42936C183.464 6.08608 183.997 6.99479 184.24 8.1555L182.597 8.52204C182.126 6.70462 181.121 5.7959 179.585 5.7959C178.505 5.7959 177.645 6.2159 177.006 7.05588C176.382 7.89587 176.071 8.99549 176.071 10.3547V10.4464C176.071 11.8056 176.382 12.9052 177.006 13.7452C177.645 14.5852 178.505 15.0052 179.585 15.0052C181.152 15.0052 182.186 14.0278 182.688 12.0729L184.332 12.4394C183.677 15.0663 182.095 16.3797 179.585 16.3797C178.018 16.3797 176.732 15.8528 175.728 14.799C174.724 13.73 174.222 12.2791 174.222 10.4464Z" fill="#FF1935"/>
<path d="M185.967 10.4464V10.3547C185.967 8.55259 186.453 7.11697 187.427 6.0479C188.416 4.96355 189.74 4.42138 191.398 4.42138C193.056 4.42138 194.38 4.96355 195.369 6.0479C196.342 7.11697 196.829 8.55259 196.829 10.3547V10.4464C196.829 12.2485 196.342 13.6841 195.369 14.7532C194.38 15.8376 193.056 16.3797 191.398 16.3797C189.74 16.3797 188.416 15.8376 187.427 14.7532C186.453 13.6841 185.967 12.2485 185.967 10.4464ZM194.981 10.4464V10.3547C194.981 8.9344 194.654 7.81951 193.999 7.01007C193.345 6.20062 192.478 5.7959 191.398 5.7959C190.318 5.7959 189.451 6.20062 188.796 7.01007C188.142 7.81951 187.815 8.9344 187.815 10.3547V10.4464C187.815 11.8667 188.142 12.9816 188.796 13.791C189.451 14.6005 190.318 15.0052 191.398 15.0052C192.478 15.0052 193.345 14.6005 193.999 13.791C194.654 12.9816 194.981 11.8667 194.981 10.4464Z" fill="#FF1935"/>
<path d="M199.237 4.76501H201.04V7.1017C201.451 6.24644 201.999 5.58973 202.683 5.13155C203.383 4.6581 204.151 4.42138 204.988 4.42138C206.312 4.42138 207.285 4.8261 207.909 5.63554C208.533 6.44498 208.845 7.39188 208.845 8.47622V16.0361H207.042V8.88858C207.042 7.86532 206.844 7.10934 206.449 6.62062C206.068 6.11663 205.452 5.86463 204.6 5.86463C203.505 5.86463 202.638 6.26935 201.999 7.07879C201.36 7.88823 201.04 8.95731 201.04 10.286V16.0361H199.237V4.76501Z" fill="#FF1935"/>
<path d="M210.379 4.76501H212.25L215.536 14.4096L218.822 4.76501H220.58L216.632 16.0361H214.327L210.379 4.76501Z" fill="#FF1935"/>
<path d="M222.573 4.76501H224.376V16.0361H222.573V4.76501ZM222.573 0.389449H224.376V2.77195H222.573V0.389449Z" fill="#FF1935"/>
<path d="M226.358 4.76501H228.229L231.515 14.4096L234.801 4.76501H236.558L232.611 16.0361H230.306L226.358 4.76501Z" fill="#FF1935"/>
<path d="M239.453 9.32385H246.025C245.842 6.97188 244.793 5.7959 242.876 5.7959C241.978 5.7959 241.217 6.11663 240.594 6.75807C239.985 7.39951 239.605 8.25477 239.453 9.32385ZM237.536 10.4464V10.3547C237.536 8.64422 238.007 7.22388 238.951 6.09372C239.879 4.97883 241.187 4.42138 242.876 4.42138C244.504 4.42138 245.743 4.93301 246.595 5.95626C247.463 6.97952 247.896 8.43041 247.896 10.3089V10.6296H239.384C239.415 12.0042 239.757 13.0809 240.411 13.8598C241.065 14.6234 241.94 15.0052 243.035 15.0052C244.329 15.0052 245.394 14.211 246.23 12.6227L247.782 13.2412C247.295 14.3409 246.611 15.1427 245.728 15.6467C244.831 16.1354 243.925 16.3797 243.013 16.3797C241.324 16.3797 239.985 15.8376 238.996 14.7532C238.023 13.6841 237.536 12.2485 237.536 10.4464Z" fill="#FF1935"/>
<path d="M250.361 4.76501H252.163V7.46824C252.894 5.57445 254.21 4.62756 256.111 4.62756C256.264 4.62756 256.4 4.64283 256.522 4.67338V6.34571C256.279 6.31517 256.066 6.2999 255.883 6.2999C254.742 6.2999 253.837 6.66644 253.168 7.39951C252.498 8.11732 252.163 9.17112 252.163 10.5609V16.0361H250.361V4.76501Z" fill="#FF1935"/>
<path d="M0.182564 36.127V35.8521C0.182564 34.0958 0.745471 32.6525 1.87128 31.5224C2.9971 30.3922 4.45 29.8271 6.23 29.8271C7.81223 29.8271 9.09018 30.2166 10.0639 30.9955C11.0375 31.7591 11.6157 32.8358 11.7982 34.2256L8.26103 34.638C8.12411 33.8285 7.90351 33.2405 7.59924 32.874C7.29496 32.5075 6.88419 32.3242 6.36693 32.3242C5.02812 32.3242 4.35872 33.4696 4.35872 35.7605V36.1958C4.35872 38.5019 5.02812 39.655 6.36693 39.655C6.91462 39.655 7.3406 39.4717 7.64488 39.1052C7.94915 38.7234 8.17736 38.0819 8.32949 37.1808L11.9123 37.5932C11.7298 39.0594 11.144 40.1895 10.1551 40.9837C9.18146 41.7626 7.87308 42.152 6.23 42.152C4.52607 42.152 3.08838 41.6099 1.91692 40.5255C0.760684 39.4259 0.182564 37.9597 0.182564 36.127Z" fill="#FF1935"/>
<path d="M12.8854 36.127V35.8521C12.8854 34.1111 13.4407 32.6755 14.5513 31.5453C15.6771 30.3999 17.1604 29.8271 19.0013 29.8271C20.8422 29.8271 22.3255 30.3999 23.4513 31.5453C24.5619 32.6755 25.1172 34.1111 25.1172 35.8521V36.127C25.1172 37.8681 24.5619 39.3037 23.4513 40.4339C22.3255 41.5793 20.8422 42.152 19.0013 42.152C17.1604 42.152 15.6771 41.5793 14.5513 40.4339C13.4407 39.3037 12.8854 37.8681 12.8854 36.127ZM20.941 36.1958V35.7605C20.941 33.3933 20.2945 32.2096 19.0013 32.2096C17.7081 32.2096 17.0616 33.3933 17.0616 35.7605V36.1958C17.0616 38.563 17.7081 39.7466 19.0013 39.7466C20.2945 39.7466 20.941 38.563 20.941 36.1958Z" fill="#FF1935"/>
<path d="M26.6241 30.1708H30.6405V32.1638C31.3707 30.606 32.527 29.8271 34.1092 29.8271C34.9764 29.8271 35.699 30.0486 36.2771 30.4915C36.8553 30.9191 37.2508 31.53 37.4638 32.3242C38.2093 30.6595 39.3807 29.8271 40.9782 29.8271C42.1801 29.8271 43.0929 30.2013 43.7166 30.9497C44.3556 31.6827 44.6751 32.6831 44.6751 33.9507V41.8084H40.6587V34.5922C40.6587 33.9965 40.5446 33.5613 40.3164 33.2864C40.1034 32.9962 39.7535 32.8511 39.2666 32.8511C38.7798 32.8511 38.3919 33.042 38.1028 33.4238C37.8137 33.8056 37.6692 34.3325 37.6692 35.0045V41.8084H33.6528V34.5922C33.6528 33.4314 33.1888 32.8511 32.2607 32.8511C31.7587 32.8511 31.3631 33.042 31.0741 33.4238C30.785 33.8056 30.6405 34.3325 30.6405 35.0045V41.8084H26.6241V30.1708Z" fill="#FF1935"/>
<path d="M50.9939 36.127V35.8521C50.9939 34.1111 51.5492 32.6755 52.6598 31.5453C53.7856 30.3999 55.2689 29.8271 57.1098 29.8271C58.9507 29.8271 60.434 30.3999 61.5598 31.5453C62.6704 32.6755 63.2257 34.1111 63.2257 35.8521V36.127C63.2257 37.8681 62.6704 39.3037 61.5598 40.4339C60.434 41.5793 58.9507 42.152 57.1098 42.152C55.2689 42.152 53.7856 41.5793 52.6598 40.4339C51.5492 39.3037 50.9939 37.8681 50.9939 36.127ZM59.0495 36.1958V35.7605C59.0495 33.3933 58.403 32.2096 57.1098 32.2096C55.8166 32.2096 55.1701 33.3933 55.1701 35.7605V36.1958C55.1701 38.563 55.8166 39.7466 57.1098 39.7466C58.403 39.7466 59.0495 38.563 59.0495 36.1958Z" fill="#FF1935"/>
<path d="M63.7561 39.6092L65.6502 37.7077C66.776 39.067 68.0007 39.7466 69.3243 39.7466C69.9024 39.7466 70.3512 39.655 70.6707 39.4717C70.9902 39.2732 71.1499 39.0212 71.1499 38.7157C71.1499 38.4255 71.0282 38.2041 70.7848 38.0514C70.5566 37.8834 70.1306 37.7383 69.5069 37.6161L67.841 37.2954C66.7152 37.0816 65.8556 36.6616 65.2623 36.0354C64.6841 35.394 64.3951 34.6151 64.3951 33.6987C64.3951 32.5533 64.8591 31.6217 65.7871 30.9039C66.7304 30.186 68.054 29.8271 69.7579 29.8271C70.7772 29.8271 71.7357 30.0257 72.6333 30.4228C73.5461 30.8046 74.2611 31.3086 74.7784 31.9347L72.9071 33.7445C71.9791 32.7213 70.937 32.2096 69.7807 32.2096C69.2635 32.2096 68.8679 32.2936 68.5941 32.4616C68.3202 32.6296 68.1833 32.8511 68.1833 33.126C68.1833 33.3856 68.2822 33.5994 68.4799 33.7674C68.6777 33.9202 69.02 34.0423 69.5069 34.134L71.1728 34.4547C72.5876 34.7143 73.5993 35.1649 74.2079 35.8063C74.8317 36.4478 75.1435 37.2877 75.1435 38.3263C75.1435 39.3801 74.6263 40.2888 73.5917 41.0524C72.5572 41.7855 71.226 42.152 69.5982 42.152C68.3506 42.152 67.2096 41.9306 66.1751 41.4877C65.1558 41.0448 64.3494 40.4186 63.7561 39.6092Z" fill="#FF1935"/>
<path d="M81.6946 30.1708H85.7111V41.8084H81.6946V30.1708ZM81.6946 25.8868H85.7111V28.9795H81.6946V25.8868Z" fill="#FF1935"/>
<path d="M87.7982 30.1708H91.8147V32.1867C92.5145 30.6137 93.6859 29.8271 95.329 29.8271C96.5613 29.8271 97.4894 30.2013 98.1131 30.9497C98.7369 31.698 99.0488 32.6984 99.0488 33.9507V41.8084H95.0323V34.5922C95.0323 33.4314 94.5531 32.8511 93.5947 32.8511C93.0317 32.8511 92.5905 33.042 92.2711 33.4238C91.9668 33.8056 91.8147 34.3325 91.8147 35.0045V41.8084H87.7982V30.1708Z" fill="#FF1935"/>
<path d="M100.446 36.127V35.8521C100.446 34.0958 101.009 32.6525 102.135 31.5224C103.26 30.3922 104.713 29.8271 106.493 29.8271C108.075 29.8271 109.353 30.2166 110.327 30.9955C111.301 31.7591 111.879 32.8358 112.061 34.2256L108.524 34.638C108.387 33.8285 108.167 33.2405 107.862 32.874C107.558 32.5075 107.147 32.3242 106.63 32.3242C105.291 32.3242 104.622 33.4696 104.622 35.7605V36.1958C104.622 38.5019 105.291 39.655 106.63 39.655C107.178 39.655 107.604 39.4717 107.908 39.1052C108.212 38.7234 108.441 38.0819 108.593 37.1808L112.176 37.5932C111.993 39.0594 111.407 40.1895 110.418 40.9837C109.445 41.7626 108.136 42.152 106.493 42.152C104.789 42.152 103.352 41.6099 102.18 40.5255C101.024 39.4259 100.446 37.9597 100.446 36.127Z" fill="#FF1935"/>
<path d="M117.644 25.841H120.862L123.418 29.0482H120.565L119.265 27.6279L117.941 29.0482H115.088L117.644 25.841ZM113.149 36.127V35.8521C113.149 34.1111 113.704 32.6755 114.815 31.5453C115.94 30.3999 117.424 29.8271 119.265 29.8271C121.105 29.8271 122.589 30.3999 123.715 31.5453C124.825 32.6755 125.38 34.1111 125.38 35.8521V36.127C125.38 37.8681 124.825 39.3037 123.715 40.4339C122.589 41.5793 121.105 42.152 119.265 42.152C117.424 42.152 115.94 41.5793 114.815 40.4339C113.704 39.3037 113.149 37.8681 113.149 36.127ZM121.204 36.1958V35.7605C121.204 33.3933 120.558 32.2096 119.265 32.2096C117.971 32.2096 117.325 33.3933 117.325 35.7605V36.1958C117.325 38.563 117.971 39.7466 119.265 39.7466C120.558 39.7466 121.204 38.563 121.204 36.1958Z" fill="#FF1935"/>
<path d="M126.887 30.1708H130.904V32.1638C131.634 30.606 132.79 29.8271 134.372 29.8271C135.24 29.8271 135.962 30.0486 136.54 30.4915C137.119 30.9191 137.514 31.53 137.727 32.3242C138.473 30.6595 139.644 29.8271 141.241 29.8271C142.443 29.8271 143.356 30.2013 143.98 30.9497C144.619 31.6827 144.938 32.6831 144.938 33.9507V41.8084H140.922V34.5922C140.922 33.9965 140.808 33.5613 140.58 33.2864C140.367 32.9962 140.017 32.8511 139.53 32.8511C139.043 32.8511 138.655 33.042 138.366 33.4238C138.077 33.8056 137.932 34.3325 137.932 35.0045V41.8084H133.916V34.5922C133.916 33.4314 133.452 32.8511 132.524 32.8511C132.022 32.8511 131.626 33.042 131.337 33.4238C131.048 33.8056 130.904 34.3325 130.904 35.0045V41.8084H126.887V30.1708Z" fill="#FF1935"/>
<path d="M146.354 36.127V35.8521C146.354 34.1111 146.91 32.6755 148.02 31.5453C149.146 30.3999 150.629 29.8271 152.47 29.8271C154.311 29.8271 155.794 30.3999 156.92 31.5453C158.031 32.6755 158.586 34.1111 158.586 35.8521V36.127C158.586 37.8681 158.031 39.3037 156.92 40.4339C155.794 41.5793 154.311 42.152 152.47 42.152C150.629 42.152 149.146 41.5793 148.02 40.4339C146.91 39.3037 146.354 37.8681 146.354 36.127ZM154.41 36.1958V35.7605C154.41 33.3933 153.763 32.2096 152.47 32.2096C151.177 32.2096 150.53 33.3933 150.53 35.7605V36.1958C150.53 38.563 151.177 39.7466 152.47 39.7466C153.763 39.7466 154.41 38.563 154.41 36.1958Z" fill="#FF1935"/>
<path d="M167.692 36.1958V35.7605C167.692 34.5845 167.517 33.6987 167.167 33.1031C166.817 32.5075 166.346 32.2096 165.752 32.2096C164.459 32.2096 163.813 33.3933 163.813 35.7605V36.1958C163.813 38.563 164.459 39.7466 165.752 39.7466C166.346 39.7466 166.817 39.4564 167.167 38.8761C167.517 38.2805 167.692 37.387 167.692 36.1958ZM159.637 36.1958V35.7605C159.637 34.0805 160.063 32.6755 160.915 31.5453C161.751 30.3999 162.869 29.8271 164.269 29.8271C165.03 29.8271 165.699 30.018 166.277 30.3999C166.871 30.7664 167.312 31.278 167.601 31.9347V25.7723H171.617V41.8084H167.601V40.0444C167.312 40.7011 166.871 41.2204 166.277 41.6022C165.699 41.9688 165.03 42.152 164.269 42.152C162.885 42.152 161.766 41.5869 160.915 40.4568C160.063 39.2961 159.637 37.8757 159.637 36.1958Z" fill="#FF1935"/>
<path d="M173.119 36.127V35.8521C173.119 34.1111 173.675 32.6755 174.785 31.5453C175.911 30.3999 177.394 29.8271 179.235 29.8271C181.076 29.8271 182.559 30.3999 183.685 31.5453C184.796 32.6755 185.351 34.1111 185.351 35.8521V36.127C185.351 37.8681 184.796 39.3037 183.685 40.4339C182.559 41.5793 181.076 42.152 179.235 42.152C177.394 42.152 175.911 41.5793 174.785 40.4339C173.675 39.3037 173.119 37.8681 173.119 36.127ZM181.175 36.1958V35.7605C181.175 33.3933 180.528 32.2096 179.235 32.2096C177.942 32.2096 177.296 33.3933 177.296 35.7605V36.1958C177.296 38.563 177.942 39.7466 179.235 39.7466C180.528 39.7466 181.175 38.563 181.175 36.1958Z" fill="#FF1935"/>
<path d="M185.882 39.6092L187.776 37.7077C188.901 39.067 190.126 39.7466 191.45 39.7466C192.028 39.7466 192.477 39.655 192.796 39.4717C193.116 39.2732 193.275 39.0212 193.275 38.7157C193.275 38.4255 193.154 38.2041 192.91 38.0514C192.682 37.8834 192.256 37.7383 191.632 37.6161L189.966 37.2954C188.841 37.0816 187.981 36.6616 187.388 36.0354C186.81 35.394 186.521 34.6151 186.521 33.6987C186.521 32.5533 186.985 31.6217 187.913 30.9039C188.856 30.186 190.179 29.8271 191.883 29.8271C192.903 29.8271 193.861 30.0257 194.759 30.4228C195.672 30.8046 196.387 31.3086 196.904 31.9347L195.033 33.7445C194.105 32.7213 193.062 32.2096 191.906 32.2096C191.389 32.2096 190.993 32.2936 190.72 32.4616C190.446 32.6296 190.309 32.8511 190.309 33.126C190.309 33.3856 190.408 33.5994 190.605 33.7674C190.803 33.9202 191.146 34.0423 191.632 34.134L193.298 34.4547C194.713 34.7143 195.725 35.1649 196.333 35.8063C196.957 36.4478 197.269 37.2877 197.269 38.3263C197.269 39.3801 196.752 40.2888 195.717 41.0524C194.683 41.7855 193.352 42.152 191.724 42.152C190.476 42.152 189.335 41.9306 188.301 41.4877C187.281 41.0448 186.475 40.4186 185.882 39.6092Z" fill="#FF1935"/>
<path d="M211.305 36.1958V35.7605C211.305 34.5845 211.13 33.6987 210.78 33.1031C210.43 32.5075 209.959 32.2096 209.366 32.2096C208.072 32.2096 207.426 33.3933 207.426 35.7605V36.1958C207.426 38.563 208.072 39.7466 209.366 39.7466C209.959 39.7466 210.43 39.4564 210.78 38.8761C211.13 38.2805 211.305 37.387 211.305 36.1958ZM203.25 36.1958V35.7605C203.25 34.0805 203.676 32.6755 204.528 31.5453C205.364 30.3999 206.483 29.8271 207.882 29.8271C208.643 29.8271 209.312 30.018 209.89 30.3999C210.484 30.7664 210.925 31.278 211.214 31.9347V25.7723H215.23V41.8084H211.214V40.0444C210.925 40.7011 210.484 41.2204 209.89 41.6022C209.312 41.9688 208.643 42.152 207.882 42.152C206.498 42.152 205.38 41.5869 204.528 40.4568C203.676 39.2961 203.25 37.8757 203.25 36.1958Z" fill="#FF1935"/>
<path d="M223.83 37.5245V36.4936H223.761C222.468 36.5852 221.624 36.799 221.228 37.135C220.833 37.4557 220.635 37.8528 220.635 38.3263C220.635 38.7386 220.764 39.067 221.023 39.3113C221.281 39.5404 221.608 39.655 222.004 39.655C222.567 39.655 223.008 39.4717 223.328 39.1052C223.662 38.7234 223.83 38.1965 223.83 37.5245ZM216.596 38.5783C216.596 37.4328 217.037 36.5088 217.919 35.8063C218.817 35.0885 220.658 34.6838 223.442 34.5922L223.83 34.5692V34.134C223.83 33.0496 223.343 32.5075 222.369 32.5075C221.578 32.5075 221.046 32.9733 220.772 33.9049L217.212 33.4696C217.44 32.37 217.988 31.4918 218.855 30.8351C219.737 30.1631 220.901 29.8271 222.346 29.8271C226.013 29.8271 227.846 31.5224 227.846 34.9129V41.8084H223.921V40.0902C223.267 41.3884 222.095 42.0375 220.407 42.0375C219.296 42.0375 218.383 41.7244 217.668 41.0982C216.953 40.4568 216.596 39.6168 216.596 38.5783Z" fill="#FF1935"/>
<path d="M239.204 33.5384H241.349C243.053 33.5384 243.905 32.7289 243.905 31.11C243.905 29.5064 243.053 28.7046 241.349 28.7046H239.204V33.5384ZM234.822 25.7723H242.125C244.133 25.7723 245.692 26.2457 246.803 27.1926C247.914 28.1395 248.469 29.4453 248.469 31.11C248.469 32.8053 247.914 34.1263 246.803 35.0732C245.692 36.0049 244.133 36.4707 242.125 36.4707H239.204V41.8084H234.822V25.7723Z" fill="#FF1935"/>
<path d="M248.66 39.6092L250.554 37.7077C251.68 39.067 252.905 39.7466 254.229 39.7466C254.807 39.7466 255.255 39.655 255.575 39.4717C255.894 39.2732 256.054 39.0212 256.054 38.7157C256.054 38.4255 255.932 38.2041 255.689 38.0514C255.461 37.8834 255.035 37.7383 254.411 37.6161L252.745 37.2954C251.619 37.0816 250.76 36.6616 250.166 36.0354C249.588 35.394 249.299 34.6151 249.299 33.6987C249.299 32.5533 249.763 31.6217 250.691 30.9039C251.635 30.186 252.958 29.8271 254.662 29.8271C255.681 29.8271 256.64 30.0257 257.538 30.4228C258.45 30.8046 259.165 31.3086 259.683 31.9347L257.811 33.7445C256.883 32.7213 255.841 32.2096 254.685 32.2096C254.168 32.2096 253.772 32.2936 253.498 32.4616C253.224 32.6296 253.087 32.8511 253.087 33.126C253.087 33.3856 253.186 33.5994 253.384 33.7674C253.582 33.9202 253.924 34.0423 254.411 34.134L256.077 34.4547C257.492 34.7143 258.504 35.1649 259.112 35.8063C259.736 36.4478 260.048 37.2877 260.048 38.3263C260.048 39.3801 259.53 40.2888 258.496 41.0524C257.461 41.7855 256.13 42.152 254.502 42.152C253.255 42.152 252.114 41.9306 251.079 41.4877C250.06 41.0448 249.254 40.4186 248.66 39.6092Z" fill="#FF1935"/>
<path d="M261.014 36.127V35.8521C261.014 34.1111 261.569 32.6755 262.68 31.5453C263.806 30.3999 265.289 29.8271 267.13 29.8271C268.971 29.8271 270.454 30.3999 271.58 31.5453C272.691 32.6755 273.246 34.1111 273.246 35.8521V36.127C273.246 37.8681 272.691 39.3037 271.58 40.4339C270.454 41.5793 268.971 42.152 267.13 42.152C265.289 42.152 263.806 41.5793 262.68 40.4339C261.569 39.3037 261.014 37.8681 261.014 36.127ZM269.07 36.1958V35.7605C269.07 33.3933 268.423 32.2096 267.13 32.2096C265.837 32.2096 265.19 33.3933 265.19 35.7605V36.1958C265.19 38.563 265.837 39.7466 267.13 39.7466C268.423 39.7466 269.07 38.563 269.07 36.1958Z" fill="#FF1935"/>
<path d="M274.753 30.1708H278.769V32.9885C279.378 30.9879 280.488 29.9875 282.101 29.9875C282.147 29.9875 282.352 30.0104 282.717 30.0562V33.9049C282.641 33.9049 282.436 33.8896 282.101 33.8591C281.766 33.8133 281.546 33.7903 281.439 33.7903C280.526 33.7903 279.849 34.0042 279.408 34.4318C278.982 34.8594 278.769 35.5543 278.769 36.5165V41.8084H274.753V30.1708Z" fill="#FF1935"/>
<path d="M286.053 25.8181H289.91L287.559 29.0712H284.798L286.053 25.8181ZM284.205 30.1708H288.221V41.8084H284.205V30.1708Z" fill="#FF1935"/>
<path d="M296.949 37.5245V36.4936H296.88C295.587 36.5852 294.743 36.799 294.347 37.135C293.952 37.4557 293.754 37.8528 293.754 38.3263C293.754 38.7386 293.883 39.067 294.142 39.3113C294.401 39.5404 294.728 39.655 295.123 39.655C295.686 39.655 296.127 39.4717 296.447 39.1052C296.782 38.7234 296.949 38.1965 296.949 37.5245ZM289.715 38.5783C289.715 37.4328 290.156 36.5088 291.038 35.8063C291.936 35.0885 293.777 34.6838 296.561 34.5922L296.949 34.5692V34.134C296.949 33.0496 296.462 32.5075 295.488 32.5075C294.697 32.5075 294.165 32.9733 293.891 33.9049L290.331 33.4696C290.559 32.37 291.107 31.4918 291.974 30.8351C292.856 30.1631 294.02 29.8271 295.466 29.8271C299.132 29.8271 300.965 31.5224 300.965 34.9129V41.8084H297.04V40.0902C296.386 41.3884 295.215 42.0375 293.526 42.0375C292.415 42.0375 291.502 41.7244 290.787 41.0982C290.072 40.4568 289.715 39.6168 289.715 38.5783Z" fill="#FF1935"/>
<path d="M302.035 39.6092L303.929 37.7077C305.054 39.067 306.279 39.7466 307.603 39.7466C308.181 39.7466 308.63 39.655 308.949 39.4717C309.269 39.2732 309.428 39.0212 309.428 38.7157C309.428 38.4255 309.307 38.2041 309.063 38.0514C308.835 37.8834 308.409 37.7383 307.785 37.6161L306.119 37.2954C304.994 37.0816 304.134 36.6616 303.541 36.0354C302.963 35.394 302.673 34.6151 302.673 33.6987C302.673 32.5533 303.138 31.6217 304.066 30.9039C305.009 30.186 306.332 29.8271 308.036 29.8271C309.056 29.8271 310.014 30.0257 310.912 30.4228C311.825 30.8046 312.54 31.3086 313.057 31.9347L311.186 33.7445C310.258 32.7213 309.215 32.2096 308.059 32.2096C307.542 32.2096 307.146 32.2936 306.872 32.4616C306.599 32.6296 306.462 32.8511 306.462 33.126C306.462 33.3856 306.561 33.5994 306.758 33.7674C306.956 33.9202 307.298 34.0423 307.785 34.134L309.451 34.4547C310.866 34.7143 311.878 35.1649 312.486 35.8063C313.11 36.4478 313.422 37.2877 313.422 38.3263C313.422 39.3801 312.905 40.2888 311.87 41.0524C310.836 41.7855 309.504 42.152 307.877 42.152C306.629 42.152 305.488 41.9306 304.453 41.4877C303.434 41.0448 302.628 40.4186 302.035 39.6092Z" fill="#FF1935"/>
<path d="M318.473 34.7296H322.102C322.041 33.7827 321.873 33.1184 321.6 32.7365C321.326 32.3547 320.907 32.1638 320.344 32.1638C319.264 32.1638 318.64 33.0191 318.473 34.7296ZM314.388 36.127V35.8521C314.388 34.0958 314.951 32.6525 316.077 31.5224C317.203 30.3922 318.61 29.8271 320.299 29.8271C322.14 29.8271 323.57 30.377 324.589 31.4766C325.608 32.5609 326.118 34.0653 326.118 35.9896V36.7227H318.45C318.557 38.7386 319.325 39.7466 320.755 39.7466C321.668 39.7466 322.505 39.1281 323.265 37.891L326.05 38.9906C325.624 39.9528 324.924 40.7241 323.95 41.3044C322.992 41.8695 321.881 42.152 320.618 42.152C318.793 42.152 317.294 41.6099 316.123 40.5255C314.966 39.4259 314.388 37.9597 314.388 36.127Z" fill="#FF1935"/>
<path d="M328.641 37.7994H332.84V41.8084H328.641V37.7994ZM328.504 25.7723H333V29.4377L332.247 36.4936H329.235L328.504 29.4377V25.7723Z" fill="#FF1935"/>
<path d="M0.536963 60.0638V52.7746H2.99041C3.55768 52.7746 4.02332 52.8719 4.38732 53.0665C4.75132 53.2587 5.02077 53.5233 5.19568 53.8602C5.37059 54.1971 5.45805 54.5803 5.45805 55.0098C5.45805 55.4393 5.37059 55.8201 5.19568 56.1523C5.02077 56.4845 4.7525 56.7455 4.39086 56.9353C4.02923 57.1227 3.56714 57.2165 3.00459 57.2165H1.01914V56.4192H2.97623C3.36387 56.4192 3.67587 56.3623 3.91223 56.2484C4.15096 56.1345 4.3235 55.9731 4.42986 55.7643C4.53859 55.5531 4.59296 55.3016 4.59296 55.0098C4.59296 54.7179 4.53859 54.4629 4.42986 54.2446C4.32114 54.0263 4.14741 53.8578 3.90868 53.7392C3.66996 53.6182 3.35441 53.5577 2.96205 53.5577H1.41623V60.0638H0.536963ZM3.95478 56.7894L5.74168 60.0638H4.72059L2.96205 56.7894H3.95478Z" fill="#0F2167"/>
<path d="M9.03452 60.1777C8.50979 60.1777 8.05715 60.0614 7.67661 59.8289C7.29843 59.594 7.00652 59.2665 6.80088 58.8465C6.59761 58.4242 6.49598 57.933 6.49598 57.3731C6.49598 56.8131 6.59761 56.3196 6.80088 55.8925C7.00652 55.463 7.29252 55.1284 7.65888 54.8888C8.02761 54.6468 8.45779 54.5257 8.94942 54.5257C9.23306 54.5257 9.51315 54.5732 9.7897 54.6681C10.0662 54.763 10.318 54.9172 10.5449 55.1308C10.7718 55.342 10.9526 55.622 11.0873 55.9708C11.2221 56.3196 11.2894 56.749 11.2894 57.2592V57.6151H7.09161V56.889H10.4385C10.4385 56.5806 10.3771 56.3053 10.2541 56.0633C10.1336 55.8213 9.96106 55.6303 9.73651 55.4903C9.51433 55.3503 9.25197 55.2803 8.94942 55.2803C8.61615 55.2803 8.32779 55.3633 8.08434 55.5294C7.84324 55.6931 7.6577 55.9067 7.5277 56.1701C7.3977 56.4334 7.3327 56.7158 7.3327 57.0171V57.5012C7.3327 57.9141 7.40361 58.264 7.54543 58.5511C7.68961 58.8359 7.88934 59.053 8.14461 59.2025C8.39988 59.3496 8.69652 59.4231 9.03452 59.4231C9.25433 59.4231 9.45288 59.3923 9.63015 59.3306C9.80979 59.2665 9.9646 59.1716 10.0946 59.0459C10.2246 58.9177 10.3251 58.7588 10.396 58.5689L11.2043 58.7967C11.1192 59.072 10.9762 59.314 10.7753 59.5228C10.5744 59.7292 10.3262 59.8906 10.0308 60.0068C9.73533 60.1207 9.40324 60.1777 9.03452 60.1777Z" fill="#0F2167"/>
<path d="M14.7746 60.1777C14.2641 60.1777 13.8244 60.0567 13.4557 59.8146C13.087 59.5726 12.8033 59.2392 12.6048 58.8145C12.4062 58.3898 12.307 57.9046 12.307 57.3588C12.307 56.8036 12.4086 56.3136 12.6119 55.8889C12.8175 55.4618 13.1035 55.1284 13.4699 54.8888C13.8386 54.6468 14.2688 54.5257 14.7604 54.5257C15.1433 54.5257 15.4884 54.5969 15.7957 54.7393C16.103 54.8817 16.3547 55.081 16.5509 55.3372C16.747 55.5935 16.8688 55.8925 16.916 56.2341H16.0793C16.0155 55.985 15.8737 55.7643 15.6539 55.5721C15.4364 55.3776 15.1433 55.2803 14.7746 55.2803C14.4484 55.2803 14.1624 55.3657 13.9166 55.5365C13.6731 55.705 13.4829 55.9435 13.3458 56.2519C13.2111 56.558 13.1437 56.9175 13.1437 57.3303C13.1437 57.7527 13.2099 58.1205 13.3422 58.4337C13.477 58.7469 13.6661 58.9901 13.9095 59.1633C14.1553 59.3365 14.4437 59.4231 14.7746 59.4231C14.992 59.4231 15.1894 59.3852 15.3667 59.3092C15.544 59.2333 15.694 59.1242 15.817 58.9818C15.9399 58.8394 16.0273 58.6686 16.0793 58.4693H16.916C16.8688 58.792 16.7518 59.0826 16.565 59.3413C16.3807 59.5975 16.136 59.8016 15.8311 59.9534C15.5286 60.1029 15.1764 60.1777 14.7746 60.1777Z" fill="#0F2167"/>
<path d="M20.4225 60.1777C19.8978 60.1777 19.4451 60.0614 19.0646 59.8289C18.6864 59.594 18.3945 59.2665 18.1889 58.8465C17.9856 58.4242 17.884 57.933 17.884 57.3731C17.884 56.8131 17.9856 56.3196 18.1889 55.8925C18.3945 55.463 18.6805 55.1284 19.0469 54.8888C19.4156 54.6468 19.8458 54.5257 20.3374 54.5257C20.621 54.5257 20.9011 54.5732 21.1777 54.6681C21.4542 54.763 21.7059 54.9172 21.9329 55.1308C22.1598 55.342 22.3406 55.622 22.4753 55.9708C22.61 56.3196 22.6774 56.749 22.6774 57.2592V57.6151H18.4796V56.889H21.8265C21.8265 56.5806 21.765 56.3053 21.6421 56.0633C21.5216 55.8213 21.349 55.6303 21.1245 55.4903C20.9023 55.3503 20.6399 55.2803 20.3374 55.2803C20.0041 55.2803 19.7158 55.3633 19.4723 55.5294C19.2312 55.6931 19.0457 55.9067 18.9157 56.1701C18.7857 56.4334 18.7207 56.7158 18.7207 57.0171V57.5012C18.7207 57.9141 18.7916 58.264 18.9334 58.5511C19.0776 58.8359 19.2773 59.053 19.5326 59.2025C19.7879 59.3496 20.0845 59.4231 20.4225 59.4231C20.6423 59.4231 20.8409 59.3923 21.0181 59.3306C21.1978 59.2665 21.3526 59.1716 21.4826 59.0459C21.6126 58.9177 21.713 58.7588 21.7839 58.5689L22.5923 58.7967C22.5072 59.072 22.3642 59.314 22.1633 59.5228C21.9624 59.7292 21.7142 59.8906 21.4188 60.0068C21.1233 60.1207 20.7912 60.1777 20.4225 60.1777Z" fill="#0F2167"/>
<path d="M24.0637 60.0638V52.7746H24.9004V55.4654H24.9713C25.0328 55.3704 25.1178 55.2494 25.2266 55.1023C25.3377 54.9528 25.496 54.82 25.7017 54.7037C25.9097 54.5851 26.1909 54.5257 26.5455 54.5257C27.004 54.5257 27.4082 54.6408 27.758 54.871C28.1078 55.1011 28.3808 55.4274 28.577 55.8497C28.7732 56.2721 28.8713 56.7704 28.8713 57.3446C28.8713 57.9235 28.7732 58.4254 28.577 58.8501C28.3808 59.2725 28.109 59.5999 27.7616 59.8324C27.4141 60.0626 27.0135 60.1777 26.5597 60.1777C26.2098 60.1777 25.9298 60.1195 25.7194 60.0033C25.509 59.8846 25.3471 59.7506 25.2337 59.6011C25.1202 59.4492 25.0328 59.3235 24.9713 59.2238H24.872V60.0638H24.0637ZM24.8862 57.3303C24.8862 57.7432 24.9465 58.1074 25.067 58.423C25.1876 58.7362 25.3637 58.9818 25.5953 59.1598C25.8269 59.3353 26.1106 59.4231 26.4462 59.4231C26.796 59.4231 27.0879 59.3306 27.3219 59.1455C27.5583 58.9581 27.7356 58.7066 27.8538 58.391C27.9743 58.073 28.0346 57.7195 28.0346 57.3303C28.0346 56.946 27.9755 56.5995 27.8573 56.2911C27.7415 55.9802 27.5654 55.7347 27.329 55.5543C27.095 55.3716 26.8008 55.2803 26.4462 55.2803C26.1058 55.2803 25.8198 55.3669 25.5882 55.5401C25.3566 55.7109 25.1817 55.9506 25.0635 56.259C24.9453 56.5651 24.8862 56.9222 24.8862 57.3303Z" fill="#0F2167"/>
<path d="M31.7537 60.1919C31.4087 60.1919 31.0955 60.1267 30.8142 59.9962C30.5329 59.8633 30.3096 59.6723 30.1441 59.4231C29.9787 59.1716 29.8959 58.8679 29.8959 58.512C29.8959 58.1988 29.9574 57.9449 30.0803 57.7503C30.2032 57.5534 30.3675 57.3992 30.5731 57.2876C30.7787 57.1761 31.0057 57.0931 31.2538 57.0385C31.5044 56.9816 31.7561 56.9365 32.009 56.9033C32.3399 56.8605 32.6082 56.8285 32.8138 56.8072C33.0218 56.7834 33.1731 56.7443 33.2677 56.6897C33.3646 56.6351 33.413 56.5402 33.413 56.405V56.3765C33.413 56.0253 33.3173 55.7525 33.1258 55.5579C32.9367 55.3633 32.6496 55.266 32.2643 55.266C31.8648 55.266 31.5517 55.3538 31.3247 55.5294C31.0978 55.705 30.9383 55.8925 30.8461 56.0918L30.0519 55.807C30.1937 55.4748 30.3828 55.2162 30.6192 55.0311C30.8579 54.8437 31.1179 54.7132 31.3992 54.6396C31.6828 54.5637 31.9617 54.5257 32.2359 54.5257C32.4108 54.5257 32.6117 54.5471 32.8387 54.5898C33.0679 54.6301 33.2889 54.7144 33.5017 54.8425C33.7167 54.9706 33.8952 55.164 34.037 55.4226C34.1788 55.6813 34.2497 56.0277 34.2497 56.4619V60.0638H33.413V59.3235H33.3705C33.3137 59.4421 33.2192 59.5691 33.0868 59.7043C32.9545 59.8396 32.7784 59.9546 32.5586 60.0495C32.3387 60.1444 32.0705 60.1919 31.7537 60.1919ZM31.8814 59.4374C32.2123 59.4374 32.4912 59.3721 32.7181 59.2416C32.9474 59.1111 33.1199 58.9426 33.2357 58.7362C33.3539 58.5298 33.413 58.3127 33.413 58.0849V57.3161C33.3776 57.3588 33.2996 57.398 33.179 57.4336C33.0608 57.4668 32.9237 57.4964 32.7677 57.5225C32.6141 57.5463 32.464 57.5676 32.3175 57.5866C32.1733 57.6032 32.0563 57.6175 31.9665 57.6293C31.749 57.6578 31.5457 57.7041 31.3567 57.7681C31.1699 57.8298 31.0187 57.9235 30.9028 58.0493C30.7894 58.1727 30.7327 58.3411 30.7327 58.5547C30.7327 58.8465 30.8402 59.0672 31.0553 59.2167C31.2727 59.3638 31.5481 59.4374 31.8814 59.4374Z" fill="#0F2167"/>
<path d="M40.7973 60.1777C40.3057 60.1777 39.8743 60.0602 39.5032 59.8253C39.1345 59.5904 38.8461 59.2618 38.6381 58.8394C38.4325 58.4171 38.3297 57.9235 38.3297 57.3588C38.3297 56.7894 38.4325 56.2923 38.6381 55.8675C38.8461 55.4428 39.1345 55.113 39.5032 54.8781C39.8743 54.6432 40.3057 54.5257 40.7973 54.5257C41.2889 54.5257 41.7191 54.6432 42.0878 54.8781C42.4589 55.113 42.7473 55.4428 42.9529 55.8675C43.1609 56.2923 43.2649 56.7894 43.2649 57.3588C43.2649 57.9235 43.1609 58.4171 42.9529 58.8394C42.7473 59.2618 42.4589 59.5904 42.0878 59.8253C41.7191 60.0602 41.2889 60.1777 40.7973 60.1777ZM40.7973 59.4231C41.1707 59.4231 41.478 59.327 41.7191 59.1348C41.9602 58.9426 42.1387 58.6899 42.2545 58.3767C42.3703 58.0635 42.4282 57.7242 42.4282 57.3588C42.4282 56.9934 42.3703 56.6529 42.2545 56.3373C42.1387 56.0218 41.9602 55.7667 41.7191 55.5721C41.478 55.3776 41.1707 55.2803 40.7973 55.2803C40.4238 55.2803 40.1166 55.3776 39.8755 55.5721C39.6344 55.7667 39.4559 56.0218 39.3401 56.3373C39.2243 56.6529 39.1664 56.9934 39.1664 57.3588C39.1664 57.7242 39.2243 58.0635 39.3401 58.3767C39.4559 58.6899 39.6344 58.9426 39.8755 59.1348C40.1166 59.327 40.4238 59.4231 40.7973 59.4231Z" fill="#0F2167"/>
<path d="M44.5422 60.0638V54.5969H45.3505V55.4226H45.4073C45.5065 55.1522 45.6862 54.9327 45.9462 54.7642C46.2062 54.5957 46.4993 54.5115 46.8254 54.5115C46.8869 54.5115 46.9637 54.5127 47.0559 54.5151C47.1481 54.5174 47.2178 54.521 47.2651 54.5257V55.3799C47.2367 55.3728 47.1717 55.3621 47.0701 55.3479C46.9708 55.3313 46.8656 55.323 46.7545 55.323C46.4898 55.323 46.2534 55.3787 46.0454 55.4903C45.8398 55.5994 45.6767 55.7513 45.5562 55.9458C45.438 56.138 45.3789 56.3575 45.3789 56.6043V60.0638H44.5422Z" fill="#0F2167"/>
<path d="M48.2569 60.0638V54.5969H49.0936V60.0638H48.2569ZM48.6824 53.6858C48.5193 53.6858 48.3786 53.63 48.2605 53.5185C48.1446 53.407 48.0867 53.2729 48.0867 53.1163C48.0867 52.9597 48.1446 52.8257 48.2605 52.7141C48.3786 52.6026 48.5193 52.5469 48.6824 52.5469C48.8455 52.5469 48.9849 52.6026 49.1007 52.7141C49.2189 52.8257 49.278 52.9597 49.278 53.1163C49.278 53.2729 49.2189 53.407 49.1007 53.5185C48.9849 53.63 48.8455 53.6858 48.6824 53.6858Z" fill="#0F2167"/>
<path d="M52.9094 60.1777C52.3847 60.1777 51.9321 60.0614 51.5515 59.8289C51.1733 59.594 50.8814 59.2665 50.6758 58.8465C50.4725 58.4242 50.3709 57.933 50.3709 57.3731C50.3709 56.8131 50.4725 56.3196 50.6758 55.8925C50.8814 55.463 51.1674 55.1284 51.5338 54.8888C51.9025 54.6468 52.3327 54.5257 52.8243 54.5257C53.108 54.5257 53.3881 54.5732 53.6646 54.6681C53.9412 54.763 54.1929 54.9172 54.4198 55.1308C54.6467 55.342 54.8275 55.622 54.9622 55.9708C55.097 56.3196 55.1643 56.749 55.1643 57.2592V57.6151H50.9665V56.889H54.3134C54.3134 56.5806 54.252 56.3053 54.1291 56.0633C54.0085 55.8213 53.836 55.6303 53.6114 55.4903C53.3893 55.3503 53.1269 55.2803 52.8243 55.2803C52.4911 55.2803 52.2027 55.3633 51.9593 55.5294C51.7182 55.6931 51.5326 55.9067 51.4026 56.1701C51.2726 56.4334 51.2076 56.7158 51.2076 57.0171V57.5012C51.2076 57.9141 51.2785 58.264 51.4203 58.5511C51.5645 58.8359 51.7643 59.053 52.0195 59.2025C52.2748 59.3496 52.5714 59.4231 52.9094 59.4231C53.1292 59.4231 53.3278 59.3923 53.5051 59.3306C53.6847 59.2665 53.8395 59.1716 53.9695 59.0459C54.0995 58.9177 54.2 58.7588 54.2709 58.5689L55.0792 58.7967C54.9942 59.072 54.8512 59.314 54.6502 59.5228C54.4493 59.7292 54.2012 59.8906 53.9057 60.0068C53.6103 60.1207 53.2782 60.1777 52.9094 60.1777Z" fill="#0F2167"/>
<path d="M57.2739 56.7751V60.0638H56.4372V54.5969H57.2455V55.4511H57.3164C57.4441 55.1735 57.6379 54.9505 57.8979 54.782C58.1579 54.6112 58.4935 54.5257 58.9048 54.5257C59.2735 54.5257 59.5961 54.6017 59.8727 54.7535C60.1492 54.903 60.3643 55.1308 60.518 55.4369C60.6716 55.7406 60.7484 56.125 60.7484 56.59V60.0638H59.9117V56.647C59.9117 56.2175 59.8006 55.883 59.5784 55.6433C59.3562 55.4013 59.0513 55.2803 58.6637 55.2803C58.3966 55.2803 58.1579 55.3384 57.9475 55.4547C57.7395 55.5709 57.5752 55.7406 57.4547 55.9636C57.3342 56.1867 57.2739 56.4572 57.2739 56.7751Z" fill="#0F2167"/>
<path d="M64.6458 54.5969V55.3088H61.8236V54.5969H64.6458ZM62.6461 53.2872H63.4828V58.4978C63.4828 58.735 63.5171 58.913 63.5857 59.0316C63.6566 59.1479 63.7464 59.2262 63.8551 59.2665C63.9662 59.3045 64.0832 59.3235 64.2061 59.3235C64.2983 59.3235 64.3739 59.3187 64.433 59.3092C64.4921 59.2974 64.5394 59.2879 64.5748 59.2808L64.745 60.0353C64.6883 60.0567 64.6091 60.078 64.5075 60.0994C64.4058 60.1231 64.277 60.135 64.121 60.135C63.8847 60.135 63.653 60.0839 63.4261 59.9819C63.2016 59.8799 63.0148 59.7245 62.8659 59.5157C62.7194 59.3069 62.6461 59.0435 62.6461 58.7255V53.2872Z" fill="#0F2167"/>
<path d="M67.5069 60.1919C67.1618 60.1919 66.8487 60.1267 66.5674 59.9962C66.2861 59.8633 66.0628 59.6723 65.8973 59.4231C65.7318 59.1716 65.6491 58.8679 65.6491 58.512C65.6491 58.1988 65.7106 57.9449 65.8335 57.7503C65.9564 57.5534 66.1207 57.3992 66.3263 57.2876C66.5319 57.1761 66.7588 57.0931 67.007 57.0385C67.2576 56.9816 67.5093 56.9365 67.7622 56.9033C68.0931 56.8605 68.3614 56.8285 68.567 56.8072C68.775 56.7834 68.9263 56.7443 69.0208 56.6897C69.1177 56.6351 69.1662 56.5402 69.1662 56.405V56.3765C69.1662 56.0253 69.0705 55.7525 68.879 55.5579C68.6899 55.3633 68.4027 55.266 68.0175 55.266C67.618 55.266 67.3048 55.3538 67.0779 55.5294C66.851 55.705 66.6915 55.8925 66.5993 56.0918L65.8051 55.807C65.9469 55.4748 66.136 55.2162 66.3724 55.0311C66.6111 54.8437 66.8711 54.7132 67.1524 54.6396C67.436 54.5637 67.7149 54.5257 67.9891 54.5257C68.164 54.5257 68.3649 54.5471 68.5918 54.5898C68.8211 54.6301 69.0421 54.7144 69.2548 54.8425C69.4699 54.9706 69.6484 55.164 69.7902 55.4226C69.932 55.6813 70.0029 56.0277 70.0029 56.4619V60.0638H69.1662V59.3235H69.1236C69.0669 59.4421 68.9724 59.5691 68.84 59.7043C68.7076 59.8396 68.5316 59.9546 68.3117 60.0495C68.0919 60.1444 67.8237 60.1919 67.5069 60.1919ZM67.6346 59.4374C67.9655 59.4374 68.2444 59.3721 68.4713 59.2416C68.7006 59.1111 68.8731 58.9426 68.9889 58.7362C69.1071 58.5298 69.1662 58.3127 69.1662 58.0849V57.3161C69.1307 57.3588 69.0527 57.398 68.9322 57.4336C68.814 57.4668 68.6769 57.4964 68.5209 57.5225C68.3673 57.5463 68.2172 57.5676 68.0707 57.5866C67.9265 57.6032 67.8095 57.6175 67.7197 57.6293C67.5022 57.6578 67.2989 57.7041 67.1098 57.7681C66.9231 57.8298 66.7718 57.9235 66.656 58.0493C66.5426 58.1727 66.4858 58.3411 66.4858 58.5547C66.4858 58.8465 66.5934 59.0672 66.8085 59.2167C67.0259 59.3638 67.3013 59.4374 67.6346 59.4374Z" fill="#0F2167"/>
<path d="M73.7425 60.1777C73.2319 60.1777 72.7923 60.0567 72.4236 59.8146C72.0548 59.5726 71.7712 59.2392 71.5727 58.8145C71.3741 58.3898 71.2748 57.9046 71.2748 57.3588C71.2748 56.8036 71.3765 56.3136 71.5798 55.8889C71.7854 55.4618 72.0714 55.1284 72.4378 54.8888C72.8065 54.6468 73.2367 54.5257 73.7283 54.5257C74.1112 54.5257 74.4563 54.5969 74.7636 54.7393C75.0708 54.8817 75.3226 55.081 75.5188 55.3372C75.7149 55.5935 75.8367 55.8925 75.8839 56.2341H75.0472C74.9834 55.985 74.8416 55.7643 74.6218 55.5721C74.4043 55.3776 74.1112 55.2803 73.7425 55.2803C73.4163 55.2803 73.1303 55.3657 72.8845 55.5365C72.641 55.705 72.4508 55.9435 72.3137 56.2519C72.1789 56.558 72.1116 56.9175 72.1116 57.3303C72.1116 57.7527 72.1778 58.1205 72.3101 58.4337C72.4448 58.7469 72.6339 58.9901 72.8774 59.1633C73.1232 59.3365 73.4116 59.4231 73.7425 59.4231C73.9599 59.4231 74.1573 59.3852 74.3346 59.3092C74.5118 59.2333 74.6619 59.1242 74.7848 58.9818C74.9078 58.8394 74.9952 58.6686 75.0472 58.4693H75.8839C75.8367 58.792 75.7197 59.0826 75.5329 59.3413C75.3486 59.5975 75.1039 59.8016 74.799 59.9534C74.4965 60.1029 74.1443 60.1777 73.7425 60.1777ZM73.3454 60.0353H74.0403L73.9836 60.32C74.1679 60.3485 74.3369 60.4256 74.4906 60.5514C74.6442 60.6795 74.721 60.8824 74.721 61.16C74.721 61.4661 74.5946 61.7152 74.3417 61.9074C74.0911 62.102 73.7212 62.1993 73.2319 62.1993L73.2036 61.644C73.4234 61.644 73.6054 61.6084 73.7496 61.5373C73.8961 61.4685 73.9694 61.3522 73.9694 61.1885C73.9694 61.0247 73.9091 60.9132 73.7886 60.8539C73.668 60.7946 73.473 60.7543 73.2036 60.7329L73.3454 60.0353Z" fill="#0F2167"/>
<path d="M79.3195 60.1777C78.8278 60.1777 78.3965 60.0602 78.0254 59.8253C77.6567 59.5904 77.3683 59.2618 77.1603 58.8394C76.9547 58.4171 76.8518 57.9235 76.8518 57.3588C76.8518 56.7894 76.9547 56.2923 77.1603 55.8675C77.3683 55.4428 77.6567 55.113 78.0254 54.8781C78.3965 54.6432 78.8278 54.5257 79.3195 54.5257C79.8111 54.5257 80.2413 54.6432 80.61 54.8781C80.9811 55.113 81.2695 55.4428 81.4751 55.8675C81.6831 56.2923 81.7871 56.7894 81.7871 57.3588C81.7871 57.9235 81.6831 58.4171 81.4751 58.8394C81.2695 59.2618 80.9811 59.5904 80.61 59.8253C80.2413 60.0602 79.8111 60.1777 79.3195 60.1777ZM79.3195 59.4231C79.6929 59.4231 80.0002 59.327 80.2413 59.1348C80.4824 58.9426 80.6608 58.6899 80.7767 58.3767C80.8925 58.0635 80.9504 57.7242 80.9504 57.3588C80.9504 56.9934 80.8925 56.6529 80.7767 56.3373C80.6608 56.0218 80.4824 55.7667 80.2413 55.5721C80.0002 55.3776 79.6929 55.2803 79.3195 55.2803C78.946 55.2803 78.6387 55.3776 78.3977 55.5721C78.1566 55.7667 77.9781 56.0218 77.8623 56.3373C77.7465 56.6529 77.6886 56.9934 77.6886 57.3588C77.6886 57.7242 77.7465 58.0635 77.8623 58.3767C77.9781 58.6899 78.1566 58.9426 78.3977 59.1348C78.6387 59.327 78.946 59.4231 79.3195 59.4231ZM78.2275 53.942L77.5751 53.9136C77.5751 53.5505 77.6779 53.2539 77.8836 53.0238C78.0916 52.7912 78.348 52.675 78.6529 52.675C78.7877 52.675 78.907 52.6987 79.011 52.7462C79.115 52.7913 79.2143 52.8435 79.3088 52.9028C79.4034 52.9621 79.5003 53.0155 79.5996 53.0629C79.7012 53.108 79.8158 53.1306 79.9435 53.1306C80.0782 53.1306 80.1917 53.0784 80.2838 52.974C80.3784 52.8672 80.4257 52.7391 80.4257 52.5896L81.0638 52.6465C81.0638 53.0167 80.9598 53.3109 80.7518 53.5292C80.5462 53.7475 80.2909 53.8566 79.986 53.8566C79.8229 53.8566 79.6882 53.8341 79.5818 53.789C79.4755 53.7415 79.3809 53.6882 79.2982 53.6288C79.2155 53.5695 79.128 53.5173 79.0358 53.4722C78.9437 53.4248 78.8302 53.4011 78.6955 53.4011C78.5607 53.4011 78.4485 53.4544 78.3587 53.5612C78.2712 53.6656 78.2275 53.7926 78.2275 53.942Z" fill="#0F2167"/>
<path d="M85.3476 60.1777C84.8229 60.1777 84.3703 60.0614 83.9897 59.8289C83.6115 59.594 83.3196 59.2665 83.114 58.8465C82.9107 58.4242 82.8091 57.933 82.8091 57.3731C82.8091 56.8131 82.9107 56.3196 83.114 55.8925C83.3196 55.463 83.6056 55.1284 83.972 54.8888C84.3407 54.6468 84.7709 54.5257 85.2625 54.5257C85.5462 54.5257 85.8263 54.5732 86.1028 54.6681C86.3793 54.763 86.6311 54.9172 86.858 55.1308C87.0849 55.342 87.2657 55.622 87.4004 55.9708C87.5352 56.3196 87.6025 56.749 87.6025 57.2592V57.6151H83.4047V56.889H86.7516C86.7516 56.5806 86.6902 56.3053 86.5673 56.0633C86.4467 55.8213 86.2742 55.6303 86.0496 55.4903C85.8274 55.3503 85.5651 55.2803 85.2625 55.2803C84.9293 55.2803 84.6409 55.3633 84.3974 55.5294C84.1563 55.6931 83.9708 55.9067 83.8408 56.1701C83.7108 56.4334 83.6458 56.7158 83.6458 57.0171V57.5012C83.6458 57.9141 83.7167 58.264 83.8585 58.5511C84.0027 58.8359 84.2024 59.053 84.4577 59.2025C84.713 59.3496 85.0096 59.4231 85.3476 59.4231C85.5674 59.4231 85.766 59.3923 85.9433 59.3306C86.1229 59.2665 86.2777 59.1716 86.4077 59.0459C86.5377 58.9177 86.6382 58.7588 86.7091 58.5689L87.5174 58.7967C87.4323 59.072 87.2893 59.314 87.0884 59.5228C86.8875 59.7292 86.6394 59.8906 86.3439 60.0068C86.0484 60.1207 85.7163 60.1777 85.3476 60.1777Z" fill="#0F2167"/>
<path d="M92.7328 55.8213L91.9811 56.0348C91.9339 55.9091 91.8642 55.7869 91.772 55.6682C91.6822 55.5472 91.5592 55.4476 91.4032 55.3693C91.2472 55.291 91.0475 55.2518 90.8041 55.2518C90.4708 55.2518 90.1931 55.3289 89.9709 55.4832C89.7511 55.635 89.6412 55.8284 89.6412 56.0633C89.6412 56.2721 89.7168 56.437 89.8681 56.558C90.0193 56.679 90.2557 56.7799 90.5772 56.8605L91.3855 57.0599C91.8724 57.1785 92.2352 57.36 92.474 57.6044C92.7127 57.8464 92.8321 58.1584 92.8321 58.5405C92.8321 58.8537 92.7422 59.1337 92.5626 59.3804C92.3853 59.6272 92.1372 59.8218 91.8181 59.9641C91.499 60.1065 91.1279 60.1777 90.7048 60.1777C90.1493 60.1777 89.6896 60.0567 89.3256 59.8146C88.9616 59.5726 88.7312 59.2191 88.6343 58.754L89.4284 58.5547C89.5041 58.8489 89.6471 59.0696 89.8574 59.2167C90.0702 59.3638 90.3479 59.4374 90.6906 59.4374C91.0806 59.4374 91.3903 59.3543 91.6195 59.1882C91.8512 59.0198 91.967 58.8181 91.967 58.5832C91.967 58.3933 91.9008 58.2344 91.7684 58.1062C91.6361 57.9757 91.4328 57.8785 91.1586 57.8144L90.251 57.6008C89.7523 57.4822 89.3859 57.2983 89.1519 57.0492C88.9202 56.7977 88.8044 56.4833 88.8044 56.106C88.8044 55.7975 88.8907 55.5247 89.0632 55.2874C89.2382 55.0501 89.4757 54.8639 89.7759 54.7286C90.0784 54.5934 90.4212 54.5257 90.8041 54.5257C91.343 54.5257 91.7661 54.6444 92.0733 54.8817C92.383 55.1189 92.6028 55.4321 92.7328 55.8213Z" fill="#0F2167"/>
<path d="M99.1828 60.1777C98.6581 60.1777 98.2055 60.0614 97.8249 59.8289C97.4468 59.594 97.1548 59.2665 96.9492 58.8465C96.7459 58.4242 96.6443 57.933 96.6443 57.3731C96.6443 56.8131 96.7459 56.3196 96.9492 55.8925C97.1548 55.463 97.4408 55.1284 97.8072 54.8888C98.1759 54.6468 98.6061 54.5257 99.0978 54.5257C99.3814 54.5257 99.6615 54.5732 99.938 54.6681C100.215 54.763 100.466 54.9172 100.693 55.1308C100.92 55.342 101.101 55.622 101.236 55.9708C101.37 56.3196 101.438 56.749 101.438 57.2592V57.6151H97.2399V56.889H100.587C100.587 56.5806 100.525 56.3053 100.402 56.0633C100.282 55.8213 100.109 55.6303 99.8848 55.4903C99.6627 55.3503 99.4003 55.2803 99.0978 55.2803C98.7645 55.2803 98.4761 55.3633 98.2327 55.5294C97.9916 55.6931 97.806 55.9067 97.676 56.1701C97.546 56.4334 97.481 56.7158 97.481 57.0171V57.5012C97.481 57.9141 97.5519 58.264 97.6938 58.5511C97.8379 58.8359 98.0377 59.053 98.2929 59.2025C98.5482 59.3496 98.8448 59.4231 99.1828 59.4231C99.4027 59.4231 99.6012 59.3923 99.7785 59.3306C99.9581 59.2665 100.113 59.1716 100.243 59.0459C100.373 58.9177 100.473 58.7588 100.544 58.5689L101.353 58.7967C101.268 59.072 101.125 59.314 100.924 59.5228C100.723 59.7292 100.475 59.8906 100.179 60.0068C99.8837 60.1207 99.5516 60.1777 99.1828 60.1777Z" fill="#0F2167"/>
<path d="M105.519 62.1138V54.5969H106.327V55.4654H106.426C106.488 55.3704 106.573 55.2494 106.681 55.1023C106.793 54.9528 106.951 54.82 107.157 54.7037C107.365 54.5851 107.646 54.5257 108 54.5257C108.459 54.5257 108.863 54.6408 109.213 54.871C109.563 55.1011 109.836 55.4274 110.032 55.8497C110.228 56.2721 110.326 56.7704 110.326 57.3446C110.326 57.9235 110.228 58.4254 110.032 58.8501C109.836 59.2725 109.564 59.5999 109.216 59.8324C108.869 60.0626 108.468 60.1777 108.015 60.1777C107.665 60.1777 107.385 60.1195 107.174 60.0033C106.964 59.8846 106.802 59.7506 106.689 59.6011C106.575 59.4492 106.488 59.3235 106.426 59.2238H106.355V62.1138H105.519ZM106.341 57.3303C106.341 57.7432 106.401 58.1074 106.522 58.423C106.642 58.7362 106.819 58.9818 107.05 59.1598C107.282 59.3353 107.565 59.4231 107.901 59.4231C108.251 59.4231 108.543 59.3306 108.777 59.1455C109.013 58.9581 109.19 58.7066 109.309 58.391C109.429 58.073 109.489 57.7195 109.489 57.3303C109.489 56.946 109.43 56.5995 109.312 56.2911C109.196 55.9802 109.02 55.7347 108.784 55.5543C108.55 55.3716 108.256 55.2803 107.901 55.2803C107.561 55.2803 107.275 55.3669 107.043 55.5401C106.811 55.7109 106.637 55.9506 106.518 56.259C106.4 56.5651 106.341 56.9222 106.341 57.3303Z" fill="#0F2167"/>
<path d="M111.603 60.0638V54.5969H112.411V55.4226H112.468C112.567 55.1522 112.747 54.9327 113.007 54.7642C113.267 54.5957 113.56 54.5115 113.886 54.5115C113.947 54.5115 114.024 54.5127 114.116 54.5151C114.208 54.5174 114.278 54.521 114.325 54.5257V55.3799C114.297 55.3728 114.232 55.3621 114.13 55.3479C114.031 55.3313 113.926 55.323 113.815 55.323C113.55 55.323 113.314 55.3787 113.106 55.4903C112.9 55.5994 112.737 55.7513 112.617 55.9458C112.498 56.138 112.439 56.3575 112.439 56.6043V60.0638H111.603Z" fill="#0F2167"/>
<path d="M117.435 60.1777C116.91 60.1777 116.457 60.0614 116.077 59.8289C115.699 59.594 115.407 59.2665 115.201 58.8465C114.998 58.4242 114.896 57.933 114.896 57.3731C114.896 56.8131 114.998 56.3196 115.201 55.8925C115.407 55.463 115.693 55.1284 116.059 54.8888C116.428 54.6468 116.858 54.5257 117.35 54.5257C117.633 54.5257 117.913 54.5732 118.19 54.6681C118.467 54.763 118.718 54.9172 118.945 55.1308C119.172 55.342 119.353 55.622 119.488 55.9708C119.622 56.3196 119.69 56.749 119.69 57.2592V57.6151H115.492V56.889H118.839C118.839 56.5806 118.777 56.3053 118.654 56.0633C118.534 55.8213 118.361 55.6303 118.137 55.4903C117.915 55.3503 117.652 55.2803 117.35 55.2803C117.016 55.2803 116.728 55.3633 116.485 55.5294C116.244 55.6931 116.058 55.9067 115.928 56.1701C115.798 56.4334 115.733 56.7158 115.733 57.0171V57.5012C115.733 57.9141 115.804 58.264 115.946 58.5511C116.09 58.8359 116.29 59.053 116.545 59.2025C116.8 59.3496 117.097 59.4231 117.435 59.4231C117.655 59.4231 117.853 59.3923 118.03 59.3306C118.21 59.2665 118.365 59.1716 118.495 59.0459C118.625 58.9177 118.725 58.7588 118.796 58.5689L119.605 58.7967C119.52 59.072 119.377 59.314 119.176 59.5228C118.975 59.7292 118.727 59.8906 118.431 60.0068C118.136 60.1207 117.804 60.1777 117.435 60.1777Z" fill="#0F2167"/>
<path d="M124.82 55.8213L124.068 56.0348C124.021 55.9091 123.951 55.7869 123.859 55.6682C123.769 55.5472 123.646 55.4476 123.49 55.3693C123.334 55.291 123.135 55.2518 122.891 55.2518C122.558 55.2518 122.28 55.3289 122.058 55.4832C121.838 55.635 121.728 55.8284 121.728 56.0633C121.728 56.2721 121.804 56.437 121.955 56.558C122.107 56.679 122.343 56.7799 122.664 56.8605L123.473 57.0599C123.96 57.1785 124.322 57.36 124.561 57.6044C124.8 57.8464 124.919 58.1584 124.919 58.5405C124.919 58.8537 124.829 59.1337 124.65 59.3804C124.473 59.6272 124.224 59.8218 123.905 59.9641C123.586 60.1065 123.215 60.1777 122.792 60.1777C122.237 60.1777 121.777 60.0567 121.413 59.8146C121.049 59.5726 120.818 59.2191 120.721 58.754L121.516 58.5547C121.591 58.8489 121.734 59.0696 121.945 59.2167C122.157 59.3638 122.435 59.4374 122.778 59.4374C123.168 59.4374 123.477 59.3543 123.707 59.1882C123.938 59.0198 124.054 58.8181 124.054 58.5832C124.054 58.3933 123.988 58.2344 123.856 58.1062C123.723 57.9757 123.52 57.8785 123.246 57.8144L122.338 57.6008C121.839 57.4822 121.473 57.2983 121.239 57.0492C121.007 56.7977 120.892 56.4833 120.892 56.106C120.892 55.7975 120.978 55.5247 121.15 55.2874C121.325 55.0501 121.563 54.8639 121.863 54.7286C122.166 54.5934 122.508 54.5257 122.891 54.5257C123.43 54.5257 123.853 54.6444 124.161 54.8817C124.47 55.1189 124.69 55.4321 124.82 55.8213Z" fill="#0F2167"/>
<path d="M128.391 60.1777C127.881 60.1777 127.441 60.0567 127.072 59.8146C126.703 59.5726 126.42 59.2392 126.221 58.8145C126.023 58.3898 125.924 57.9046 125.924 57.3588C125.924 56.8036 126.025 56.3136 126.228 55.8889C126.434 55.4618 126.72 55.1284 127.086 54.8888C127.455 54.6468 127.885 54.5257 128.377 54.5257C128.76 54.5257 129.105 54.5969 129.412 54.7393C129.719 54.8817 129.971 55.081 130.167 55.3372C130.364 55.5935 130.485 55.8925 130.533 56.2341H129.696C129.632 55.985 129.49 55.7643 129.27 55.5721C129.053 55.3776 128.76 55.2803 128.391 55.2803C128.065 55.2803 127.779 55.3657 127.533 55.5365C127.29 55.705 127.099 55.9435 126.962 56.2519C126.828 56.558 126.76 56.9175 126.76 57.3303C126.76 57.7527 126.826 58.1205 126.959 58.4337C127.093 58.7469 127.283 58.9901 127.526 59.1633C127.772 59.3365 128.06 59.4231 128.391 59.4231C128.609 59.4231 128.806 59.3852 128.983 59.3092C129.16 59.2333 129.311 59.1242 129.434 58.9818C129.556 58.8394 129.644 58.6686 129.696 58.4693H130.533C130.485 58.792 130.368 59.0826 130.182 59.3413C129.997 59.5975 129.753 59.8016 129.448 59.9534C129.145 60.1029 128.793 60.1777 128.391 60.1777Z" fill="#0F2167"/>
<path d="M131.756 60.0638V54.5969H132.564V55.4226H132.621C132.72 55.1522 132.9 54.9327 133.16 54.7642C133.42 54.5957 133.713 54.5115 134.039 54.5115C134.1 54.5115 134.177 54.5127 134.269 54.5151C134.362 54.5174 134.431 54.521 134.479 54.5257V55.3799C134.45 55.3728 134.385 55.3621 134.284 55.3479C134.184 55.3313 134.079 55.323 133.968 55.323C133.703 55.323 133.467 55.3787 133.259 55.4903C133.053 55.5994 132.89 55.7513 132.77 55.9458C132.652 56.138 132.592 56.3575 132.592 56.6043V60.0638H131.756Z" fill="#0F2167"/>
<path d="M135.47 60.0638V54.5969H136.307V60.0638H135.47ZM135.896 53.6858C135.733 53.6858 135.592 53.63 135.474 53.5185C135.358 53.407 135.3 53.2729 135.3 53.1163C135.3 52.9597 135.358 52.8257 135.474 52.7141C135.592 52.6026 135.733 52.5469 135.896 52.5469C136.059 52.5469 136.199 52.6026 136.314 52.7141C136.432 52.8257 136.492 52.9597 136.492 53.1163C136.492 53.2729 136.432 53.407 136.314 53.5185C136.199 53.63 136.059 53.6858 135.896 53.6858Z" fill="#0F2167"/>
<path d="M140.052 60.1777C139.542 60.1777 139.102 60.0567 138.733 59.8146C138.364 59.5726 138.081 59.2392 137.882 58.8145C137.684 58.3898 137.584 57.9046 137.584 57.3588C137.584 56.8036 137.686 56.3136 137.889 55.8889C138.095 55.4618 138.381 55.1284 138.747 54.8888C139.116 54.6468 139.546 54.5257 140.038 54.5257C140.421 54.5257 140.766 54.5969 141.073 54.7393C141.38 54.8817 141.632 55.081 141.828 55.3372C142.025 55.5935 142.146 55.8925 142.194 56.2341H141.357C141.293 55.985 141.151 55.7643 140.931 55.5721C140.714 55.3776 140.421 55.2803 140.052 55.2803C139.726 55.2803 139.44 55.3657 139.194 55.5365C138.951 55.705 138.76 55.9435 138.623 56.2519C138.489 56.558 138.421 56.9175 138.421 57.3303C138.421 57.7527 138.487 58.1205 138.62 58.4337C138.754 58.7469 138.944 58.9901 139.187 59.1633C139.433 59.3365 139.721 59.4231 140.052 59.4231C140.27 59.4231 140.467 59.3852 140.644 59.3092C140.821 59.2333 140.972 59.1242 141.094 58.9818C141.217 58.8394 141.305 58.6686 141.357 58.4693H142.194C142.146 58.792 142.029 59.0826 141.843 59.3413C141.658 59.5975 141.414 59.8016 141.109 59.9534C140.806 60.1029 140.454 60.1777 140.052 60.1777ZM139.655 60.0353H140.35L140.293 60.32C140.478 60.3485 140.647 60.4256 140.8 60.5514C140.954 60.6795 141.031 60.8824 141.031 61.16C141.031 61.4661 140.904 61.7152 140.651 61.9074C140.401 62.102 140.031 62.1993 139.542 62.1993L139.513 61.644C139.733 61.644 139.915 61.6084 140.059 61.5373C140.206 61.4685 140.279 61.3522 140.279 61.1885C140.279 61.0247 140.219 60.9132 140.098 60.8539C139.978 60.7946 139.783 60.7543 139.513 60.7329L139.655 60.0353Z" fill="#0F2167"/>
<path d="M145.629 60.1777C145.137 60.1777 144.706 60.0602 144.335 59.8253C143.966 59.5904 143.678 59.2618 143.47 58.8394C143.264 58.4171 143.161 57.9235 143.161 57.3588C143.161 56.7894 143.264 56.2923 143.47 55.8675C143.678 55.4428 143.966 55.113 144.335 54.8781C144.706 54.6432 145.137 54.5257 145.629 54.5257C146.121 54.5257 146.551 54.6432 146.92 54.8781C147.291 55.113 147.579 55.4428 147.785 55.8675C147.993 56.2923 148.097 56.7894 148.097 57.3588C148.097 57.9235 147.993 58.4171 147.785 58.8394C147.579 59.2618 147.291 59.5904 146.92 59.8253C146.551 60.0602 146.121 60.1777 145.629 60.1777ZM145.629 59.4231C146.003 59.4231 146.31 59.327 146.551 59.1348C146.792 58.9426 146.97 58.6899 147.086 58.3767C147.202 58.0635 147.26 57.7242 147.26 57.3588C147.26 56.9934 147.202 56.6529 147.086 56.3373C146.97 56.0218 146.792 55.7667 146.551 55.5721C146.31 55.3776 146.003 55.2803 145.629 55.2803C145.256 55.2803 144.948 55.3776 144.707 55.5721C144.466 55.7667 144.288 56.0218 144.172 56.3373C144.056 56.6529 143.998 56.9934 143.998 57.3588C143.998 57.7242 144.056 58.0635 144.172 58.3767C144.288 58.6899 144.466 58.9426 144.707 59.1348C144.948 59.327 145.256 59.4231 145.629 59.4231ZM144.537 53.942L143.885 53.9136C143.885 53.5505 143.988 53.2539 144.193 53.0238C144.401 52.7912 144.658 52.675 144.963 52.675C145.097 52.675 145.217 52.6987 145.321 52.7462C145.425 52.7913 145.524 52.8435 145.618 52.9028C145.713 52.9621 145.81 53.0155 145.909 53.0629C146.011 53.108 146.125 53.1306 146.253 53.1306C146.388 53.1306 146.501 53.0784 146.593 52.974C146.688 52.8672 146.735 52.7391 146.735 52.5896L147.373 52.6465C147.373 53.0167 147.269 53.3109 147.061 53.5292C146.856 53.7475 146.601 53.8566 146.296 53.8566C146.133 53.8566 145.998 53.8341 145.891 53.789C145.785 53.7415 145.691 53.6882 145.608 53.6288C145.525 53.5695 145.438 53.5173 145.345 53.4722C145.253 53.4248 145.14 53.4011 145.005 53.4011C144.87 53.4011 144.758 53.4544 144.668 53.5612C144.581 53.6656 144.537 53.7926 144.537 53.942Z" fill="#0F2167"/>
<path d="M151.657 60.1777C151.133 60.1777 150.68 60.0614 150.299 59.8289C149.921 59.594 149.629 59.2665 149.424 58.8465C149.22 58.4242 149.119 57.933 149.119 57.3731C149.119 56.8131 149.22 56.3196 149.424 55.8925C149.629 55.463 149.915 55.1284 150.282 54.8888C150.65 54.6468 151.081 54.5257 151.572 54.5257C151.856 54.5257 152.136 54.5732 152.412 54.6681C152.689 54.763 152.941 54.9172 153.168 55.1308C153.395 55.342 153.575 55.622 153.71 55.9708C153.845 56.3196 153.912 56.749 153.912 57.2592V57.6151H149.714V56.889H153.061C153.061 56.5806 153 56.3053 152.877 56.0633C152.756 55.8213 152.584 55.6303 152.359 55.4903C152.137 55.3503 151.875 55.2803 151.572 55.2803C151.239 55.2803 150.951 55.3633 150.707 55.5294C150.466 55.6931 150.28 55.9067 150.15 56.1701C150.02 56.4334 149.955 56.7158 149.955 57.0171V57.5012C149.955 57.9141 150.026 58.264 150.168 58.5511C150.312 58.8359 150.512 59.053 150.767 59.2025C151.023 59.3496 151.319 59.4231 151.657 59.4231C151.877 59.4231 152.076 59.3923 152.253 59.3306C152.433 59.2665 152.587 59.1716 152.717 59.0459C152.847 58.9177 152.948 58.7588 153.019 58.5689L153.827 58.7967C153.742 59.072 153.599 59.314 153.398 59.5228C153.197 59.7292 152.949 59.8906 152.654 60.0068C152.358 60.1207 152.026 60.1777 151.657 60.1777Z" fill="#0F2167"/>
<path d="M159.042 55.8213L158.291 56.0348C158.243 55.9091 158.174 55.7869 158.082 55.6682C157.992 55.5472 157.869 55.4476 157.713 55.3693C157.557 55.291 157.357 55.2518 157.114 55.2518C156.78 55.2518 156.503 55.3289 156.281 55.4832C156.061 55.635 155.951 55.8284 155.951 56.0633C155.951 56.2721 156.026 56.437 156.178 56.558C156.329 56.679 156.565 56.7799 156.887 56.8605L157.695 57.0599C158.182 57.1785 158.545 57.36 158.784 57.6044C159.022 57.8464 159.142 58.1584 159.142 58.5405C159.142 58.8537 159.052 59.1337 158.872 59.3804C158.695 59.6272 158.447 59.8218 158.128 59.9641C157.809 60.1065 157.438 60.1777 157.014 60.1777C156.459 60.1777 155.999 60.0567 155.635 59.8146C155.271 59.5726 155.041 59.2191 154.944 58.754L155.738 58.5547C155.814 58.8489 155.957 59.0696 156.167 59.2167C156.38 59.3638 156.658 59.4374 157 59.4374C157.39 59.4374 157.7 59.3543 157.929 59.1882C158.161 59.0198 158.277 58.8181 158.277 58.5832C158.277 58.3933 158.21 58.2344 158.078 58.1062C157.946 57.9757 157.742 57.8785 157.468 57.8144L156.561 57.6008C156.062 57.4822 155.696 57.2983 155.462 57.0492C155.23 56.7977 155.114 56.4833 155.114 56.106C155.114 55.7975 155.2 55.5247 155.373 55.2874C155.548 55.0501 155.785 54.8639 156.086 54.7286C156.388 54.5934 156.731 54.5257 157.114 54.5257C157.653 54.5257 158.076 54.6444 158.383 54.8817C158.693 55.1189 158.912 55.4321 159.042 55.8213Z" fill="#0F2167"/>
<path d="M165.266 60.1777C164.812 60.1777 164.411 60.0626 164.064 59.8324C163.716 59.5999 163.444 59.2725 163.248 58.8501C163.052 58.4254 162.954 57.9235 162.954 57.3446C162.954 56.7704 163.052 56.2721 163.248 55.8497C163.444 55.4274 163.717 55.1011 164.067 54.871C164.417 54.6408 164.821 54.5257 165.28 54.5257C165.634 54.5257 165.914 54.5851 166.12 54.7037C166.328 54.82 166.486 54.9528 166.595 55.1023C166.706 55.2494 166.792 55.3704 166.854 55.4654H166.925V52.7746H167.762V60.0638H166.953V59.2238H166.854C166.792 59.3235 166.705 59.4492 166.592 59.6011C166.478 59.7506 166.316 59.8846 166.106 60.0033C165.895 60.1195 165.615 60.1777 165.266 60.1777ZM165.379 59.4231C165.715 59.4231 165.998 59.3353 166.23 59.1598C166.462 58.9818 166.638 58.7362 166.758 58.423C166.879 58.1074 166.939 57.7432 166.939 57.3303C166.939 56.9222 166.88 56.5651 166.762 56.259C166.644 55.9506 166.469 55.7109 166.237 55.5401C166.005 55.3669 165.719 55.2803 165.379 55.2803C165.024 55.2803 164.729 55.3716 164.493 55.5543C164.259 55.7347 164.083 55.9802 163.964 56.2911C163.849 56.5995 163.791 56.946 163.791 57.3303C163.791 57.7195 163.85 58.073 163.968 58.391C164.088 58.7066 164.266 58.9581 164.5 59.1455C164.736 59.3306 165.029 59.4231 165.379 59.4231Z" fill="#0F2167"/>
<path d="M171.693 60.1777C171.169 60.1777 170.716 60.0614 170.336 59.8289C169.957 59.594 169.665 59.2665 169.46 58.8465C169.257 58.4242 169.155 57.933 169.155 57.3731C169.155 56.8131 169.257 56.3196 169.46 55.8925C169.665 55.463 169.951 55.1284 170.318 54.8888C170.687 54.6468 171.117 54.5257 171.608 54.5257C171.892 54.5257 172.172 54.5732 172.449 54.6681C172.725 54.763 172.977 54.9172 173.204 55.1308C173.431 55.342 173.612 55.622 173.746 55.9708C173.881 56.3196 173.948 56.749 173.948 57.2592V57.6151H169.751V56.889H173.097C173.097 56.5806 173.036 56.3053 172.913 56.0633C172.793 55.8213 172.62 55.6303 172.395 55.4903C172.173 55.3503 171.911 55.2803 171.608 55.2803C171.275 55.2803 170.987 55.3633 170.743 55.5294C170.502 55.6931 170.317 55.9067 170.187 56.1701C170.057 56.4334 169.992 56.7158 169.992 57.0171V57.5012C169.992 57.9141 170.063 58.264 170.204 58.5511C170.349 58.8359 170.548 59.053 170.804 59.2025C171.059 59.3496 171.355 59.4231 171.693 59.4231C171.913 59.4231 172.112 59.3923 172.289 59.3306C172.469 59.2665 172.624 59.1716 172.754 59.0459C172.884 58.9177 172.984 58.7588 173.055 58.5689L173.863 58.7967C173.778 59.072 173.635 59.314 173.434 59.5228C173.233 59.7292 172.985 59.8906 172.69 60.0068C172.394 60.1207 172.062 60.1777 171.693 60.1777Z" fill="#0F2167"/>
<path d="M180.398 54.5969V55.3088H177.575V54.5969H180.398ZM178.398 53.2872H179.235V58.4978C179.235 58.735 179.269 58.913 179.337 59.0316C179.408 59.1479 179.498 59.2262 179.607 59.2665C179.718 59.3045 179.835 59.3235 179.958 59.3235C180.05 59.3235 180.126 59.3187 180.185 59.3092C180.244 59.2974 180.291 59.2879 180.327 59.2808L180.497 60.0353C180.44 60.0567 180.361 60.078 180.259 60.0994C180.158 60.1231 180.029 60.135 179.873 60.135C179.636 60.135 179.405 60.0839 179.178 59.9819C178.953 59.8799 178.767 59.7245 178.618 59.5157C178.471 59.3069 178.398 59.0435 178.398 58.7255V53.2872Z" fill="#0F2167"/>
<path d="M181.656 60.0638V54.5969H182.465V55.4226H182.521C182.621 55.1522 182.8 54.9327 183.06 54.7642C183.32 54.5957 183.613 54.5115 183.939 54.5115C184.001 54.5115 184.078 54.5127 184.17 54.5151C184.262 54.5174 184.332 54.521 184.379 54.5257V55.3799C184.351 55.3728 184.286 55.3621 184.184 55.3479C184.085 55.3313 183.98 55.323 183.869 55.323C183.604 55.323 183.367 55.3787 183.159 55.4903C182.954 55.5994 182.791 55.7513 182.67 55.9458C182.552 56.138 182.493 56.3575 182.493 56.6043V60.0638H181.656Z" fill="#0F2167"/>
<path d="M186.973 60.1919C186.628 60.1919 186.315 60.1267 186.034 59.9962C185.753 59.8633 185.529 59.6723 185.364 59.4231C185.198 59.1716 185.116 58.8679 185.116 58.512C185.116 58.1988 185.177 57.9449 185.3 57.7503C185.423 57.5534 185.587 57.3992 185.793 57.2876C185.998 57.1761 186.225 57.0931 186.474 57.0385C186.724 56.9816 186.976 56.9365 187.229 56.9033C187.56 56.8605 187.828 56.8285 188.034 56.8072C188.242 56.7834 188.393 56.7443 188.487 56.6897C188.584 56.6351 188.633 56.5402 188.633 56.405V56.3765C188.633 56.0253 188.537 55.7525 188.346 55.5579C188.156 55.3633 187.869 55.266 187.484 55.266C187.085 55.266 186.771 55.3538 186.544 55.5294C186.318 55.705 186.158 55.8925 186.066 56.0918L185.272 55.807C185.413 55.4748 185.603 55.2162 185.839 55.0311C186.078 54.8437 186.338 54.7132 186.619 54.6396C186.903 54.5637 187.181 54.5257 187.456 54.5257C187.631 54.5257 187.831 54.5471 188.058 54.5898C188.288 54.6301 188.509 54.7144 188.721 54.8425C188.936 54.9706 189.115 55.164 189.257 55.4226C189.399 55.6813 189.469 56.0277 189.469 56.4619V60.0638H188.633V59.3235H188.59C188.533 59.4421 188.439 59.5691 188.307 59.7043C188.174 59.8396 187.998 59.9546 187.778 60.0495C187.558 60.1444 187.29 60.1919 186.973 60.1919ZM187.101 59.4374C187.432 59.4374 187.711 59.3721 187.938 59.2416C188.167 59.1111 188.34 58.9426 188.455 58.7362C188.574 58.5298 188.633 58.3127 188.633 58.0849V57.3161C188.597 57.3588 188.519 57.398 188.399 57.4336C188.281 57.4668 188.143 57.4964 187.987 57.5225C187.834 57.5463 187.684 57.5676 187.537 57.5866C187.393 57.6032 187.276 57.6175 187.186 57.6293C186.969 57.6578 186.765 57.7041 186.576 57.7681C186.39 57.8298 186.238 57.9235 186.123 58.0493C186.009 58.1727 185.952 58.3411 185.952 58.5547C185.952 58.8465 186.06 59.0672 186.275 59.2167C186.492 59.3638 186.768 59.4374 187.101 59.4374Z" fill="#0F2167"/>
<path d="M193.365 54.5969V55.3088H190.543V54.5969H193.365ZM191.365 53.2872H192.202V58.4978C192.202 58.735 192.236 58.913 192.305 59.0316C192.376 59.1479 192.466 59.2262 192.574 59.2665C192.685 59.3045 192.802 59.3235 192.925 59.3235C193.018 59.3235 193.093 59.3187 193.152 59.3092C193.211 59.2974 193.259 59.2879 193.294 59.2808L193.464 60.0353C193.408 60.0567 193.328 60.078 193.227 60.0994C193.125 60.1231 192.996 60.135 192.84 60.135C192.604 60.135 192.372 60.0839 192.145 59.9819C191.921 59.8799 191.734 59.7245 191.585 59.5157C191.439 59.3069 191.365 59.0435 191.365 58.7255V53.2872Z" fill="#0F2167"/>
<path d="M196.226 60.1919C195.881 60.1919 195.568 60.1267 195.287 59.9962C195.005 59.8633 194.782 59.6723 194.617 59.4231C194.451 59.1716 194.368 58.8679 194.368 58.512C194.368 58.1988 194.43 57.9449 194.553 57.7503C194.676 57.5534 194.84 57.3992 195.046 57.2876C195.251 57.1761 195.478 57.0931 195.726 57.0385C195.977 56.9816 196.229 56.9365 196.481 56.9033C196.812 56.8605 197.081 56.8285 197.286 56.8072C197.494 56.7834 197.646 56.7443 197.74 56.6897C197.837 56.6351 197.885 56.5402 197.885 56.405V56.3765C197.885 56.0253 197.79 55.7525 197.598 55.5579C197.409 55.3633 197.122 55.266 196.737 55.266C196.337 55.266 196.024 55.3538 195.797 55.5294C195.57 55.705 195.411 55.8925 195.319 56.0918L194.524 55.807C194.666 55.4748 194.855 55.2162 195.092 55.0311C195.33 54.8437 195.59 54.7132 195.872 54.6396C196.155 54.5637 196.434 54.5257 196.708 54.5257C196.883 54.5257 197.084 54.5471 197.311 54.5898C197.54 54.6301 197.761 54.7144 197.974 54.8425C198.189 54.9706 198.368 55.164 198.509 55.4226C198.651 55.6813 198.722 56.0277 198.722 56.4619V60.0638H197.885V59.3235H197.843C197.786 59.4421 197.692 59.5691 197.559 59.7043C197.427 59.8396 197.251 59.9546 197.031 60.0495C196.811 60.1444 196.543 60.1919 196.226 60.1919ZM196.354 59.4374C196.685 59.4374 196.964 59.3721 197.191 59.2416C197.42 59.1111 197.592 58.9426 197.708 58.7362C197.826 58.5298 197.885 58.3127 197.885 58.0849V57.3161C197.85 57.3588 197.772 57.398 197.651 57.4336C197.533 57.4668 197.396 57.4964 197.24 57.5225C197.087 57.5463 196.936 57.5676 196.79 57.5866C196.646 57.6032 196.529 57.6175 196.439 57.6293C196.221 57.6578 196.018 57.7041 195.829 57.7681C195.642 57.8298 195.491 57.9235 195.375 58.0493C195.262 58.1727 195.205 58.3411 195.205 58.5547C195.205 58.8465 195.313 59.0672 195.528 59.2167C195.745 59.3638 196.021 59.4374 196.354 59.4374Z" fill="#0F2167"/>
<path d="M200.249 60.0638V54.5969H201.058V55.4511H201.129C201.242 55.1593 201.425 54.9327 201.678 54.7713C201.931 54.6076 202.235 54.5257 202.589 54.5257C202.949 54.5257 203.248 54.6076 203.486 54.7713C203.727 54.9327 203.915 55.1593 204.05 55.4511H204.107C204.246 55.1688 204.455 54.9445 204.734 54.7784C205.013 54.61 205.348 54.5257 205.738 54.5257C206.225 54.5257 206.623 54.6788 206.933 54.9849C207.242 55.2886 207.397 55.762 207.397 56.405V60.0638H206.56V56.405C206.56 56.0016 206.45 55.7133 206.231 55.5401C206.011 55.3669 205.752 55.2803 205.454 55.2803C205.071 55.2803 204.775 55.3965 204.564 55.6291C204.354 55.8592 204.249 56.1511 204.249 56.5046V60.0638H203.398V56.3196C203.398 56.0087 203.297 55.7584 203.096 55.5686C202.895 55.3764 202.637 55.2803 202.32 55.2803C202.102 55.2803 201.899 55.3384 201.71 55.4547C201.523 55.5709 201.372 55.7323 201.256 55.9387C201.143 56.1428 201.086 56.3789 201.086 56.647V60.0638H200.249Z" fill="#0F2167"/>
<path d="M211.21 60.1777C210.685 60.1777 210.233 60.0614 209.852 59.8289C209.474 59.594 209.182 59.2665 208.976 58.8465C208.773 58.4242 208.672 57.933 208.672 57.3731C208.672 56.8131 208.773 56.3196 208.976 55.8925C209.182 55.463 209.468 55.1284 209.834 54.8888C210.203 54.6468 210.633 54.5257 211.125 54.5257C211.409 54.5257 211.689 54.5732 211.965 54.6681C212.242 54.763 212.494 54.9172 212.72 55.1308C212.947 55.342 213.128 55.622 213.263 55.9708C213.398 56.3196 213.465 56.749 213.465 57.2592V57.6151H209.267V56.889H212.614C212.614 56.5806 212.553 56.3053 212.43 56.0633C212.309 55.8213 212.137 55.6303 211.912 55.4903C211.69 55.3503 211.428 55.2803 211.125 55.2803C210.792 55.2803 210.503 55.3633 210.26 55.5294C210.019 55.6931 209.833 55.9067 209.703 56.1701C209.573 56.4334 209.508 56.7158 209.508 57.0171V57.5012C209.508 57.9141 209.579 58.264 209.721 58.5511C209.865 58.8359 210.065 59.053 210.32 59.2025C210.576 59.3496 210.872 59.4231 211.21 59.4231C211.43 59.4231 211.628 59.3923 211.806 59.3306C211.985 59.2665 212.14 59.1716 212.27 59.0459C212.4 58.9177 212.501 58.7588 212.572 58.5689L213.38 58.7967C213.295 59.072 213.152 59.314 212.951 59.5228C212.75 59.7292 212.502 59.8906 212.206 60.0068C211.911 60.1207 211.579 60.1777 211.21 60.1777Z" fill="#0F2167"/>
<path d="M215.575 56.7751V60.0638H214.738V54.5969H215.546V55.4511H215.617C215.745 55.1735 215.939 54.9505 216.199 54.782C216.459 54.6112 216.794 54.5257 217.205 54.5257C217.574 54.5257 217.897 54.6017 218.173 54.7535C218.45 54.903 218.665 55.1308 218.819 55.4369C218.972 55.7406 219.049 56.125 219.049 56.59V60.0638H218.212V56.647C218.212 56.2175 218.101 55.883 217.879 55.6433C217.657 55.4013 217.352 55.2803 216.964 55.2803C216.697 55.2803 216.459 55.3384 216.248 55.4547C216.04 55.5709 215.876 55.7406 215.755 55.9636C215.635 56.1867 215.575 56.4572 215.575 56.7751Z" fill="#0F2167"/>
<path d="M222.946 54.5969V55.3088H220.124V54.5969H222.946ZM220.947 53.2872H221.784V58.4978C221.784 58.735 221.818 58.913 221.886 59.0316C221.957 59.1479 222.047 59.2262 222.156 59.2665C222.267 59.3045 222.384 59.3235 222.507 59.3235C222.599 59.3235 222.675 59.3187 222.734 59.3092C222.793 59.2974 222.84 59.2879 222.876 59.2808L223.046 60.0353C222.989 60.0567 222.91 60.078 222.808 60.0994C222.707 60.1231 222.578 60.135 222.422 60.135C222.185 60.135 221.954 60.0839 221.727 59.9819C221.502 59.8799 221.316 59.7245 221.167 59.5157C221.02 59.3069 220.947 59.0435 220.947 58.7255V53.2872Z" fill="#0F2167"/>
<path d="M226.359 60.1777C225.867 60.1777 225.436 60.0602 225.065 59.8253C224.696 59.5904 224.408 59.2618 224.2 58.8394C223.994 58.4171 223.891 57.9235 223.891 57.3588C223.891 56.7894 223.994 56.2923 224.2 55.8675C224.408 55.4428 224.696 55.113 225.065 54.8781C225.436 54.6432 225.867 54.5257 226.359 54.5257C226.851 54.5257 227.281 54.6432 227.649 54.8781C228.021 55.113 228.309 55.4428 228.515 55.8675C228.723 56.2923 228.827 56.7894 228.827 57.3588C228.827 57.9235 228.723 58.4171 228.515 58.8394C228.309 59.2618 228.021 59.5904 227.649 59.8253C227.281 60.0602 226.851 60.1777 226.359 60.1777ZM226.359 59.4231C226.732 59.4231 227.04 59.327 227.281 59.1348C227.522 58.9426 227.7 58.6899 227.816 58.3767C227.932 58.0635 227.99 57.7242 227.99 57.3588C227.99 56.9934 227.932 56.6529 227.816 56.3373C227.7 56.0218 227.522 55.7667 227.281 55.5721C227.04 55.3776 226.732 55.2803 226.359 55.2803C225.985 55.2803 225.678 55.3776 225.437 55.5721C225.196 55.7667 225.018 56.0218 224.902 56.3373C224.786 56.6529 224.728 56.9934 224.728 57.3588C224.728 57.7242 224.786 58.0635 224.902 58.3767C225.018 58.6899 225.196 58.9426 225.437 59.1348C225.678 59.327 225.985 59.4231 226.359 59.4231Z" fill="#0F2167"/>
<path d="M2.19623 73.0282C1.79442 73.0282 1.42923 72.9238 1.10069 72.715C0.772145 72.5062 0.509781 72.193 0.3136 71.7754C0.117418 71.3578 0.0193278 70.8394 0.0193278 70.2201C0.0193278 69.577 0.120964 69.0479 0.324236 68.6327C0.527509 68.2174 0.793417 67.9102 1.12196 67.7109C1.45287 67.5115 1.8086 67.4119 2.18914 67.4119C2.47514 67.4119 2.71978 67.4617 2.92305 67.5614C3.12632 67.6587 3.29414 67.7844 3.4265 67.9386C3.55887 68.0929 3.65932 68.253 3.72787 68.4191H3.76332V65.6608H5.49704V72.9499H3.78105V72.0637H3.72787C3.65459 72.2322 3.55059 72.39 3.41587 72.5371C3.28114 72.6842 3.11214 72.8028 2.90887 72.893C2.70796 72.9831 2.47041 73.0282 2.19623 73.0282ZM2.79896 71.6722C3.00932 71.6722 3.18896 71.6129 3.33787 71.4942C3.48678 71.3732 3.60141 71.2036 3.68178 70.9853C3.76214 70.767 3.80232 70.5107 3.80232 70.2165C3.80232 69.9175 3.76214 69.6601 3.68178 69.4442C3.60378 69.2282 3.48914 69.0621 3.33787 68.9459C3.18896 68.8296 3.00932 68.7715 2.79896 68.7715C2.58387 68.7715 2.40187 68.8308 2.25296 68.9494C2.10405 69.0681 1.9906 69.2354 1.9126 69.4513C1.83696 69.6672 1.79914 69.9223 1.79914 70.2165C1.79914 70.5107 1.83814 70.767 1.91614 70.9853C1.99414 71.2036 2.10641 71.3732 2.25296 71.4942C2.40187 71.6129 2.58387 71.6722 2.79896 71.6722Z" fill="#0F2167"/>
<path d="M9.13911 73.0531C8.56947 73.0531 8.07784 72.9404 7.6642 72.715C7.25293 72.4872 6.9362 72.1634 6.71402 71.7434C6.4942 71.321 6.38429 70.8192 6.38429 70.2379C6.38429 69.6731 6.49538 69.1796 6.71757 68.7572C6.93975 68.3325 7.25293 68.0027 7.65711 67.7678C8.06129 67.5305 8.53756 67.4119 9.08592 67.4119C9.47356 67.4119 9.8281 67.4724 10.1496 67.5934C10.471 67.7144 10.7487 67.8936 10.9827 68.1308C11.2167 68.3681 11.3987 68.6612 11.5287 69.0099C11.6587 69.3564 11.7237 69.7538 11.7237 70.2023V70.6365H6.99056V69.6257H10.1106C10.1082 69.4406 10.0645 69.2757 9.97938 69.131C9.89429 68.9862 9.77729 68.8735 9.62838 68.7928C9.48183 68.7098 9.31283 68.6683 9.12138 68.6683C8.92756 68.6683 8.75383 68.7122 8.6002 68.8C8.44656 68.8854 8.32483 69.0028 8.23502 69.1523C8.1452 69.2994 8.09793 69.4667 8.0932 69.6542V70.6828C8.0932 70.9058 8.13693 71.1015 8.22438 71.27C8.31183 71.4361 8.43593 71.5654 8.59665 71.658C8.75738 71.7505 8.94883 71.7968 9.17101 71.7968C9.32465 71.7968 9.46411 71.7754 9.58938 71.7327C9.71465 71.69 9.8222 71.6271 9.91201 71.5441C10.0018 71.461 10.0692 71.359 10.1141 71.238L11.706 71.2842C11.6398 71.6425 11.4945 71.9546 11.2699 72.2203C11.0477 72.4837 10.7558 72.6889 10.3942 72.836C10.0326 72.9808 9.6142 73.0531 9.13911 73.0531Z" fill="#0F2167"/>
<path d="M16.2894 73.0425C15.9419 73.0425 15.6335 72.9843 15.364 72.8681C15.0969 72.7494 14.8854 72.5715 14.7294 72.3342C14.5758 72.0945 14.4989 71.7944 14.4989 71.4337C14.4989 71.13 14.5521 70.8738 14.6585 70.6649C14.7648 70.4561 14.9114 70.2865 15.0981 70.156C15.2848 70.0255 15.4999 69.927 15.7434 69.8606C15.9868 69.7918 16.2468 69.7455 16.5234 69.7218C16.833 69.6933 17.0824 69.6636 17.2715 69.6328C17.4606 69.5996 17.5977 69.5533 17.6827 69.494C17.7702 69.4323 17.8139 69.3457 17.8139 69.2342V69.2164C17.8139 69.0337 17.7513 68.8925 17.626 68.7928C17.5007 68.6932 17.3317 68.6434 17.119 68.6434C16.8897 68.6434 16.7054 68.6932 16.5659 68.7928C16.4265 68.8925 16.3378 69.0301 16.3 69.2057L14.701 69.1488C14.7483 68.8166 14.87 68.52 15.0662 68.259C15.2648 67.9956 15.5366 67.7892 15.8817 67.6397C16.2291 67.4878 16.6463 67.4119 17.1332 67.4119C17.4807 67.4119 17.8009 67.4534 18.094 67.5365C18.3871 67.6171 18.6424 67.7358 18.8598 67.8924C19.0773 68.0466 19.2451 68.2364 19.3633 68.4618C19.4838 68.6873 19.5441 68.9447 19.5441 69.2342V72.9499H17.9132V72.1883H17.8707C17.7737 72.3733 17.6497 72.5299 17.4984 72.6581C17.3495 72.7862 17.1734 72.8823 16.9701 72.9464C16.7692 73.0104 16.5423 73.0425 16.2894 73.0425ZM16.8248 71.9035C17.0115 71.9035 17.1793 71.8656 17.3282 71.7896C17.4795 71.7137 17.6 71.6093 17.6898 71.4764C17.7797 71.3412 17.8246 71.1846 17.8246 71.0066V70.487C17.7749 70.5131 17.7147 70.5368 17.6437 70.5582C17.5752 70.5795 17.4996 70.5997 17.4168 70.6187C17.3341 70.6377 17.249 70.6543 17.1616 70.6685C17.0741 70.6827 16.9902 70.6958 16.9098 70.7077C16.7467 70.7338 16.6073 70.7741 16.4915 70.8287C16.378 70.8832 16.2906 70.9544 16.2291 71.0422C16.17 71.1276 16.1405 71.2297 16.1405 71.3483C16.1405 71.5286 16.2043 71.6663 16.3319 71.7612C16.4619 71.8561 16.6262 71.9035 16.8248 71.9035Z" fill="#0F2167"/>
<path d="M23.1463 73.0531C22.5719 73.0531 22.0791 72.9345 21.6678 72.6972C21.2589 72.46 20.9446 72.1301 20.7247 71.7078C20.5049 71.2831 20.395 70.7919 20.395 70.2343C20.395 69.6743 20.5049 69.1832 20.7247 68.7608C20.9469 68.3361 21.2625 68.0051 21.6714 67.7678C22.0826 67.5305 22.5731 67.4119 23.1427 67.4119C23.6462 67.4119 24.0846 67.5032 24.4581 67.6859C24.8339 67.8687 25.127 68.1273 25.3374 68.4618C25.5501 68.794 25.6624 69.1843 25.6742 69.6328H24.0539C24.0208 69.3528 23.9263 69.1333 23.7703 68.9744C23.6166 68.8154 23.4157 68.7359 23.1676 68.7359C22.9666 68.7359 22.7906 68.7928 22.6393 68.9067C22.488 69.0183 22.3698 69.1843 22.2847 69.405C22.202 69.6233 22.1607 69.8938 22.1607 70.2165C22.1607 70.5392 22.202 70.8121 22.2847 71.0351C22.3698 71.2558 22.488 71.423 22.6393 71.5369C22.7906 71.6485 22.9666 71.7042 23.1676 71.7042C23.3283 71.7042 23.4701 71.6698 23.593 71.601C23.7183 71.5322 23.8211 71.4314 23.9015 71.2985C23.9818 71.1632 24.0326 70.9995 24.0539 70.8073H25.6742C25.6576 71.2581 25.5454 71.652 25.3374 71.989C25.1317 72.3259 24.8422 72.5881 24.4687 72.7755C24.0976 72.9606 23.6568 73.0531 23.1463 73.0531Z" fill="#0F2167"/>
<path d="M29.1035 73.0531C28.5315 73.0531 28.0399 72.9357 27.6286 72.7008C27.2197 72.4635 26.9042 72.1337 26.682 71.7113C26.4622 71.2866 26.3523 70.7943 26.3523 70.2343C26.3523 69.672 26.4622 69.1796 26.682 68.7572C26.9042 68.3325 27.2197 68.0027 27.6286 67.7678C28.0399 67.5305 28.5315 67.4119 29.1035 67.4119C29.6755 67.4119 30.166 67.5305 30.5749 67.7678C30.9862 68.0027 31.3017 68.3325 31.5215 68.7572C31.7437 69.1796 31.8548 69.672 31.8548 70.2343C31.8548 70.7943 31.7437 71.2866 31.5215 71.7113C31.3017 72.1337 30.9862 72.4635 30.5749 72.7008C30.166 72.9357 29.6755 73.0531 29.1035 73.0531ZM29.1142 71.7398C29.3222 71.7398 29.4982 71.6758 29.6424 71.5476C29.7866 71.4195 29.8965 71.2415 29.9722 71.0137C30.0502 70.786 30.0892 70.5226 30.0892 70.2236C30.0892 69.9199 30.0502 69.6542 29.9722 69.4264C29.8965 69.1986 29.7866 69.0206 29.6424 68.8925C29.4982 68.7644 29.3222 68.7003 29.1142 68.7003C28.8991 68.7003 28.7171 68.7644 28.5682 68.8925C28.4216 69.0206 28.3093 69.1986 28.2313 69.4264C28.1557 69.6542 28.1179 69.9199 28.1179 70.2236C28.1179 70.5226 28.1557 70.786 28.2313 71.0137C28.3093 71.2415 28.4216 71.4195 28.5682 71.5476C28.7171 71.6758 28.8991 71.7398 29.1142 71.7398Z" fill="#0F2167"/>
<path d="M32.7429 72.9499V67.4831H34.427V68.4796H34.4837C34.583 68.119 34.7449 67.8509 34.9695 67.6753C35.194 67.4973 35.4552 67.4083 35.753 67.4083C35.8334 67.4083 35.9161 67.4143 36.0012 67.4261C36.0863 67.4356 36.1655 67.451 36.2387 67.4724V68.985C36.156 68.9566 36.0473 68.934 35.9126 68.9174C35.7802 68.9008 35.662 68.8925 35.558 68.8925C35.3524 68.8925 35.1668 68.9388 35.0014 69.0313C34.8383 69.1215 34.7095 69.2484 34.6149 69.4121C34.5227 69.5735 34.4767 69.7633 34.4767 69.9816V72.9499H32.7429Z" fill="#0F2167"/>
<path d="M38.6514 73.0282C38.2496 73.0282 37.8844 72.9238 37.5559 72.715C37.2273 72.5062 36.965 72.193 36.7688 71.7754C36.5726 71.3578 36.4745 70.8394 36.4745 70.2201C36.4745 69.577 36.5761 69.0479 36.7794 68.6327C36.9827 68.2174 37.2486 67.9102 37.5771 67.7109C37.9081 67.5115 38.2638 67.4119 38.6443 67.4119C38.9303 67.4119 39.175 67.4617 39.3782 67.5614C39.5815 67.6587 39.7493 67.7844 39.8817 67.9386C40.014 68.0929 40.1145 68.253 40.183 68.4191H40.2185V65.6608H41.9522V72.9499H40.2362V72.0637H40.183C40.1098 72.2322 40.0058 72.39 39.871 72.5371C39.7363 72.6842 39.5673 72.8028 39.364 72.893C39.1631 72.9831 38.9256 73.0282 38.6514 73.0282ZM39.2541 71.6722C39.4645 71.6722 39.6441 71.6129 39.793 71.4942C39.942 71.3732 40.0566 71.2036 40.137 70.9853C40.2173 70.767 40.2575 70.5107 40.2575 70.2165C40.2575 69.9175 40.2173 69.6601 40.137 69.4442C40.059 69.2282 39.9443 69.0621 39.793 68.9459C39.6441 68.8296 39.4645 68.7715 39.2541 68.7715C39.0391 68.7715 38.8571 68.8308 38.7081 68.9494C38.5592 69.0681 38.4458 69.2354 38.3678 69.4513C38.2921 69.6672 38.2543 69.9223 38.2543 70.2165C38.2543 70.5107 38.2933 70.767 38.3713 70.9853C38.4493 71.2036 38.5616 71.3732 38.7081 71.4942C38.8571 71.6129 39.0391 71.6722 39.2541 71.6722Z" fill="#0F2167"/>
<path d="M45.5907 73.0531C45.0187 73.0531 44.5271 72.9357 44.1158 72.7008C43.7069 72.4635 43.3914 72.1337 43.1692 71.7113C42.9494 71.2866 42.8395 70.7943 42.8395 70.2343C42.8395 69.672 42.9494 69.1796 43.1692 68.7572C43.3914 68.3325 43.7069 68.0027 44.1158 67.7678C44.5271 67.5305 45.0187 67.4119 45.5907 67.4119C46.1627 67.4119 46.6532 67.5305 47.0621 67.7678C47.4734 68.0027 47.7889 68.3325 48.0087 68.7572C48.2309 69.1796 48.342 69.672 48.342 70.2343C48.342 70.7943 48.2309 71.2866 48.0087 71.7113C47.7889 72.1337 47.4734 72.4635 47.0621 72.7008C46.6532 72.9357 46.1627 73.0531 45.5907 73.0531ZM45.6014 71.7398C45.8094 71.7398 45.9855 71.6758 46.1297 71.5476C46.2738 71.4195 46.3837 71.2415 46.4594 71.0137C46.5374 70.786 46.5764 70.5226 46.5764 70.2236C46.5764 69.9199 46.5374 69.6542 46.4594 69.4264C46.3837 69.1986 46.2738 69.0206 46.1297 68.8925C45.9855 68.7644 45.8094 68.7003 45.6014 68.7003C45.3863 68.7003 45.2043 68.7644 45.0554 68.8925C44.9088 69.0206 44.7966 69.1986 44.7186 69.4264C44.6429 69.6542 44.6051 69.9199 44.6051 70.2236C44.6051 70.5226 44.6429 70.786 44.7186 71.0137C44.7966 71.2415 44.9088 71.4195 45.0554 71.5476C45.2043 71.6758 45.3863 71.7398 45.6014 71.7398Z" fill="#0F2167"/>
<path d="M53.9172 73.0531C53.3429 73.0531 52.85 72.9345 52.4388 72.6972C52.0299 72.46 51.7155 72.1301 51.4957 71.7078C51.2759 71.2831 51.166 70.7919 51.166 70.2343C51.166 69.6743 51.2759 69.1832 51.4957 68.7608C51.7179 68.3361 52.0334 68.0051 52.4423 67.7678C52.8536 67.5305 53.344 67.4119 53.9137 67.4119C54.4171 67.4119 54.8556 67.5032 55.229 67.6859C55.6049 67.8687 55.8979 68.1273 56.1083 68.4618C56.321 68.794 56.4333 69.1843 56.4451 69.6328H54.8249C54.7918 69.3528 54.6972 69.1333 54.5412 68.9744C54.3876 68.8154 54.1867 68.7359 53.9385 68.7359C53.7376 68.7359 53.5615 68.7928 53.4102 68.9067C53.259 69.0183 53.1408 69.1843 53.0557 69.405C52.973 69.6233 52.9316 69.8938 52.9316 70.2165C52.9316 70.5392 52.973 70.8121 53.0557 71.0351C53.1408 71.2558 53.259 71.423 53.4102 71.5369C53.5615 71.6485 53.7376 71.7042 53.9385 71.7042C54.0992 71.7042 54.241 71.6698 54.364 71.601C54.4892 71.5322 54.592 71.4314 54.6724 71.2985C54.7528 71.1632 54.8036 70.9995 54.8249 70.8073H56.4451C56.4286 71.2581 56.3163 71.652 56.1083 71.989C55.9027 72.3259 55.6131 72.5881 55.2397 72.7755C54.8686 72.9606 54.4278 73.0531 53.9172 73.0531Z" fill="#0F2167"/>
<path d="M59.8745 73.0531C59.3025 73.0531 58.8108 72.9357 58.3996 72.7008C57.9907 72.4635 57.6751 72.1337 57.4529 71.7113C57.2331 71.2866 57.1232 70.7943 57.1232 70.2343C57.1232 69.672 57.2331 69.1796 57.4529 68.7572C57.6751 68.3325 57.9907 68.0027 58.3996 67.7678C58.8108 67.5305 59.3025 67.4119 59.8745 67.4119C60.4465 67.4119 60.9369 67.5305 61.3458 67.7678C61.7571 68.0027 62.0726 68.3325 62.2925 68.7572C62.5146 69.1796 62.6257 69.672 62.6257 70.2343C62.6257 70.7943 62.5146 71.2866 62.2925 71.7113C62.0726 72.1337 61.7571 72.4635 61.3458 72.7008C60.9369 72.9357 60.4465 73.0531 59.8745 73.0531ZM59.8851 71.7398C60.0931 71.7398 60.2692 71.6758 60.4134 71.5476C60.5576 71.4195 60.6675 71.2415 60.7431 71.0137C60.8211 70.786 60.8601 70.5226 60.8601 70.2236C60.8601 69.9199 60.8211 69.6542 60.7431 69.4264C60.6675 69.1986 60.5576 69.0206 60.4134 68.8925C60.2692 68.7644 60.0931 68.7003 59.8851 68.7003C59.67 68.7003 59.488 68.7644 59.3391 68.8925C59.1926 69.0206 59.0803 69.1986 59.0023 69.4264C58.9266 69.6542 58.8888 69.9199 58.8888 70.2236C58.8888 70.5226 58.9266 70.786 59.0023 71.0137C59.0803 71.2415 59.1926 71.4195 59.3391 71.5476C59.488 71.6758 59.67 71.7398 59.8851 71.7398Z" fill="#0F2167"/>
<path d="M63.5139 72.9499V67.4831H65.1625V68.4868H65.2228C65.3362 68.1546 65.5277 67.8924 65.7971 67.7002C66.0666 67.508 66.388 67.4119 66.7615 67.4119C67.1397 67.4119 67.4635 67.5092 67.7329 67.7037C68.0024 67.8983 68.1738 68.1593 68.247 68.4868H68.3038C68.4054 68.1617 68.604 67.9019 68.8994 67.7073C69.1949 67.5104 69.5435 67.4119 69.9453 67.4119C70.4606 67.4119 70.8789 67.578 71.2004 67.9102C71.5219 68.24 71.6826 68.6932 71.6826 69.2698V72.9499H69.9489V69.6684C69.9489 69.3955 69.8791 69.1879 69.7397 69.0455C69.6002 68.9008 69.4194 68.8284 69.1972 68.8284C68.9585 68.8284 68.7706 68.9067 68.6335 69.0633C68.4988 69.2176 68.4314 69.4252 68.4314 69.6862V72.9499H66.765V69.6506C66.765 69.3967 66.6965 69.1962 66.5594 69.0491C66.4223 68.902 66.2415 68.8284 66.017 68.8284C65.8657 68.8284 65.7321 68.8652 65.6163 68.9388C65.5005 69.0099 65.4095 69.112 65.3433 69.2449C65.2795 69.3777 65.2476 69.5343 65.2476 69.7147V72.9499H63.5139Z" fill="#0F2167"/>
<path d="M77.4439 73.0531C76.8719 73.0531 76.3803 72.9357 75.969 72.7008C75.5601 72.4635 75.2446 72.1337 75.0224 71.7113C74.8026 71.2866 74.6927 70.7943 74.6927 70.2343C74.6927 69.672 74.8026 69.1796 75.0224 68.7572C75.2446 68.3325 75.5601 68.0027 75.969 67.7678C76.3803 67.5305 76.8719 67.4119 77.4439 67.4119C78.0159 67.4119 78.5064 67.5305 78.9153 67.7678C79.3266 68.0027 79.6421 68.3325 79.8619 68.7572C80.0841 69.1796 80.1952 69.672 80.1952 70.2343C80.1952 70.7943 80.0841 71.2866 79.8619 71.7113C79.6421 72.1337 79.3266 72.4635 78.9153 72.7008C78.5064 72.9357 78.0159 73.0531 77.4439 73.0531ZM77.4546 71.7398C77.6626 71.7398 77.8387 71.6758 77.9828 71.5476C78.127 71.4195 78.2369 71.2415 78.3126 71.0137C78.3906 70.786 78.4296 70.5226 78.4296 70.2236C78.4296 69.9199 78.3906 69.6542 78.3126 69.4264C78.2369 69.1986 78.127 69.0206 77.9828 68.8925C77.8387 68.7644 77.6626 68.7003 77.4546 68.7003C77.2395 68.7003 77.0575 68.7644 76.9086 68.8925C76.762 69.0206 76.6497 69.1986 76.5718 69.4264C76.4961 69.6542 76.4583 69.9199 76.4583 70.2236C76.4583 70.5226 76.4961 70.786 76.5718 71.0137C76.6497 71.2415 76.762 71.4195 76.9086 71.5476C77.0575 71.6758 77.2395 71.7398 77.4546 71.7398Z" fill="#0F2167"/>
<path d="M87.9828 69.1523L86.3909 69.195C86.3743 69.0811 86.3294 68.9803 86.2561 68.8925C86.1829 68.8023 86.0871 68.7323 85.969 68.6825C85.8531 68.6303 85.7184 68.6042 85.5648 68.6042C85.3639 68.6042 85.1925 68.6445 85.0507 68.7252C84.9112 68.8059 84.8427 68.915 84.8451 69.0527C84.8427 69.1594 84.8852 69.252 84.9727 69.3303C85.0625 69.4086 85.2221 69.4715 85.4513 69.5189L86.5008 69.7182C87.0444 69.8226 87.4486 69.9958 87.7133 70.2379C87.9804 70.4799 88.1151 70.8002 88.1175 71.1988C88.1151 71.5737 88.0041 71.9 87.7842 72.1776C87.5668 72.4552 87.269 72.6711 86.8908 72.8254C86.5126 72.9772 86.0801 73.0531 85.5931 73.0531C84.8155 73.0531 84.2021 72.893 83.7531 72.5727C83.3063 72.25 83.0511 71.8181 82.9872 71.2771L84.6997 71.2344C84.7375 71.4337 84.8356 71.5856 84.994 71.69C85.1523 71.7944 85.3544 71.8466 85.6002 71.8466C85.8224 71.8466 86.0032 71.8051 86.1427 71.722C86.2821 71.639 86.3531 71.5286 86.3554 71.391C86.3531 71.2676 86.2987 71.1692 86.1923 71.0956C86.086 71.0197 85.9193 70.9604 85.6924 70.9177L84.7422 70.7361C84.1962 70.6365 83.7897 70.4526 83.5226 70.1845C83.2555 69.914 83.1231 69.5699 83.1255 69.1523C83.1231 68.7869 83.2201 68.4749 83.4162 68.2163C83.6124 67.9553 83.8913 67.7559 84.253 67.6183C84.6146 67.4807 85.0412 67.4119 85.5329 67.4119C86.2703 67.4119 86.8518 67.5673 87.2772 67.8781C87.7027 68.1866 87.9379 68.6113 87.9828 69.1523Z" fill="#0F2167"/>
<path d="M91.5167 73.0531C90.9471 73.0531 90.4554 72.9404 90.0418 72.715C89.6305 72.4872 89.3138 72.1634 89.0916 71.7434C88.8718 71.321 88.7619 70.8192 88.7619 70.2379C88.7619 69.6731 88.873 69.1796 89.0952 68.7572C89.3173 68.3325 89.6305 68.0027 90.0347 67.7678C90.4389 67.5305 90.9152 67.4119 91.4635 67.4119C91.8512 67.4119 92.2057 67.4724 92.5272 67.5934C92.8486 67.7144 93.1263 67.8936 93.3603 68.1308C93.5943 68.3681 93.7763 68.6612 93.9063 69.0099C94.0363 69.3564 94.1013 69.7538 94.1013 70.2023V70.6365H89.3682V69.6257H92.4882C92.4858 69.4406 92.4421 69.2757 92.357 69.131C92.2719 68.9862 92.1549 68.8735 92.006 68.7928C91.8594 68.7098 91.6904 68.6683 91.499 68.6683C91.3052 68.6683 91.1314 68.7122 90.9778 68.8C90.8242 68.8854 90.7024 69.0028 90.6126 69.1523C90.5228 69.2994 90.4755 69.4667 90.4708 69.6542V70.6828C90.4708 70.9058 90.5145 71.1015 90.602 71.27C90.6894 71.4361 90.8135 71.5654 90.9743 71.658C91.135 71.7505 91.3264 71.7968 91.5486 71.7968C91.7022 71.7968 91.8417 71.7754 91.967 71.7327C92.0922 71.69 92.1998 71.6271 92.2896 71.5441C92.3794 71.461 92.4468 71.359 92.4917 71.238L94.0836 71.2842C94.0174 71.6425 93.8721 71.9546 93.6475 72.2203C93.4253 72.4837 93.1334 72.6889 92.7718 72.836C92.4102 72.9808 91.9918 73.0531 91.5167 73.0531Z" fill="#0F2167"/>
<path d="M98.5003 70.5902V67.4831H100.231V72.9499H98.5783V71.932H98.5216C98.4011 72.2666 98.1954 72.5323 97.9047 72.7293C97.6163 72.9238 97.2677 73.0211 96.8588 73.0211C96.4877 73.0211 96.1615 72.9357 95.8803 72.7649C95.599 72.594 95.3803 72.3555 95.2243 72.0495C95.0683 71.741 94.9892 71.3803 94.9868 70.9675V67.4831H96.7205V70.6258C96.7229 70.9224 96.8009 71.1561 96.9545 71.327C97.1082 71.4978 97.3173 71.5832 97.5821 71.5832C97.7546 71.5832 97.9094 71.5452 98.0465 71.4693C98.186 71.391 98.2959 71.2783 98.3763 71.1312C98.459 70.9817 98.5003 70.8014 98.5003 70.5902Z" fill="#0F2167"/>
<path d="M103.479 75V67.4831H105.195V68.4191H105.248C105.319 68.253 105.42 68.0929 105.55 67.9386C105.682 67.7844 105.85 67.6587 106.053 67.5614C106.259 67.4617 106.504 67.4119 106.79 67.4119C107.169 67.4119 107.522 67.5115 107.851 67.7109C108.181 67.9102 108.449 68.2174 108.652 68.6327C108.855 69.0479 108.957 69.577 108.957 70.2201C108.957 70.8394 108.859 71.3578 108.662 71.7754C108.469 72.193 108.206 72.5062 107.875 72.715C107.547 72.9238 107.182 73.0282 106.78 73.0282C106.506 73.0282 106.268 72.9831 106.067 72.893C105.866 72.8028 105.697 72.6842 105.56 72.5371C105.425 72.39 105.321 72.2322 105.248 72.0637H105.213V75H103.479ZM105.177 70.2165C105.177 70.5107 105.216 70.767 105.294 70.9853C105.375 71.2036 105.489 71.3732 105.638 71.4942C105.789 71.6129 105.97 71.6722 106.181 71.6722C106.393 71.6722 106.574 71.6129 106.723 71.4942C106.872 71.3732 106.984 71.2036 107.06 70.9853C107.138 70.767 107.177 70.5107 107.177 70.2165C107.177 69.9223 107.138 69.6672 107.06 69.4513C106.984 69.2354 106.872 69.0681 106.723 68.9494C106.577 68.8308 106.396 68.7715 106.181 68.7715C105.968 68.7715 105.787 68.8296 105.638 68.9459C105.489 69.0621 105.375 69.2282 105.294 69.4442C105.216 69.6601 105.177 69.9175 105.177 70.2165Z" fill="#0F2167"/>
<path d="M112.411 73.0531C111.841 73.0531 111.35 72.9404 110.936 72.715C110.525 72.4872 110.208 72.1634 109.986 71.7434C109.766 71.321 109.656 70.8192 109.656 70.2379C109.656 69.6731 109.767 69.1796 109.989 68.7572C110.212 68.3325 110.525 68.0027 110.929 67.7678C111.333 67.5305 111.809 67.4119 112.358 67.4119C112.745 67.4119 113.1 67.4724 113.421 67.5934C113.743 67.7144 114.021 67.8936 114.255 68.1308C114.489 68.3681 114.671 68.6612 114.801 69.0099C114.931 69.3564 114.996 69.7538 114.996 70.2023V70.6365H110.262V69.6257H113.382C113.38 69.4406 113.336 69.2757 113.251 69.131C113.166 68.9862 113.049 68.8735 112.9 68.7928C112.754 68.7098 112.585 68.6683 112.393 68.6683C112.199 68.6683 112.026 68.7122 111.872 68.8C111.718 68.8854 111.597 69.0028 111.507 69.1523C111.417 69.2994 111.37 69.4667 111.365 69.6542V70.6828C111.365 70.9058 111.409 71.1015 111.496 71.27C111.584 71.4361 111.708 71.5654 111.868 71.658C112.029 71.7505 112.221 71.7968 112.443 71.7968C112.596 71.7968 112.736 71.7754 112.861 71.7327C112.986 71.69 113.094 71.6271 113.184 71.5441C113.274 71.461 113.341 71.359 113.386 71.238L114.978 71.2842C114.912 71.6425 114.766 71.9546 114.542 72.2203C114.32 72.4837 114.028 72.6889 113.666 72.836C113.304 72.9808 112.886 73.0531 112.411 73.0531Z" fill="#0F2167"/>
<path d="M115.881 72.9499V67.4831H117.565V68.4796H117.622C117.721 68.119 117.883 67.8509 118.108 67.6753C118.332 67.4973 118.593 67.4083 118.891 67.4083C118.971 67.4083 119.054 67.4143 119.139 67.4261C119.224 67.4356 119.304 67.451 119.377 67.4724V68.985C119.294 68.9566 119.185 68.934 119.051 68.9174C118.918 68.9008 118.8 68.8925 118.696 68.8925C118.49 68.8925 118.305 68.9388 118.139 69.0313C117.976 69.1215 117.848 69.2484 117.753 69.4121C117.661 69.5735 117.615 69.7633 117.615 69.9816V72.9499H115.881Z" fill="#0F2167"/>
<path d="M123.432 67.4831V68.7644H119.929V67.4831H123.432ZM120.659 72.9499V67.2055C120.659 66.7831 120.739 66.4331 120.897 66.1555C121.055 65.8755 121.275 65.6667 121.556 65.5291C121.838 65.3891 122.163 65.3191 122.531 65.3191C122.772 65.3191 122.999 65.3381 123.212 65.3761C123.427 65.4117 123.587 65.4437 123.691 65.4722L123.414 66.7463C123.35 66.725 123.272 66.7072 123.18 66.6929C123.09 66.6787 123.005 66.6716 122.925 66.6716C122.722 66.6716 122.582 66.7167 122.507 66.8068C122.431 66.897 122.393 67.0204 122.393 67.177V72.9499H120.659Z" fill="#0F2167"/>
<path d="M124.266 72.9499V67.4831H126V72.9499H124.266ZM125.135 66.846C124.891 66.846 124.682 66.7653 124.507 66.604C124.332 66.4402 124.245 66.2433 124.245 66.0131C124.245 65.7854 124.332 65.5908 124.507 65.4294C124.682 65.2657 124.891 65.1839 125.135 65.1839C125.38 65.1839 125.59 65.2657 125.762 65.4294C125.937 65.5908 126.025 65.7854 126.025 66.0131C126.025 66.2433 125.937 66.4402 125.762 66.604C125.59 66.7653 125.38 66.846 125.135 66.846Z" fill="#0F2167"/>
<path d="M128.837 65.6608V72.9499H127.103V65.6608H128.837Z" fill="#0F2167"/>
</svg>
